<?xml version="1.0" standalone="no"?>
<!DOCTYPE svg PUBLIC "-//W3C//DTD SVG 20010904//EN"
 "http://www.w3.org/TR/2001/REC-SVG-20010904/DTD/svg10.dtd">
<svg version="1.0" xmlns="http://www.w3.org/2000/svg"
 width="1488.000000pt" height="1494.000000pt" viewBox="-25.00 -95.00 1400.000000 1400.000000"
 preserveAspectRatio="xMidYMid meet">
<metadata>
Created by potrace 1.10, written by Peter Selinger 2001-2011
</metadata>
<g transform="translate(0.000000,1494.000000) scale(0.100000,-0.100000)"
fill="#000000" stroke="none">
<path d="M109 13738 c-2 -113 1 -167 11 -208 5 -19 10 -51 11 -70 3 -83 81
-362 135 -478 13 -29 24 -56 24 -61 0 -4 11 -28 24 -52 14 -24 35 -64 48 -89
12 -25 32 -58 44 -75 11 -16 30 -48 41 -70 36 -72 65 -120 83 -140 9 -11 34
-45 55 -75 21 -30 42 -59 46 -65 134 -169 201 -251 246 -300 87 -97 385 -394
470 -470 43 -38 94 -84 113 -102 69 -64 128 -113 245 -208 133 -107 513 -395
520 -395 3 0 56 -37 118 -83 61 -46 141 -101 177 -122 36 -21 79 -50 95 -65
17 -14 47 -35 68 -45 20 -11 37 -23 37 -28 0 -4 10 -12 23 -17 12 -6 56 -33
97 -60 41 -28 82 -53 90 -57 8 -4 33 -19 55 -34 113 -74 185 -119 192 -119 5
0 19 -10 33 -23 14 -13 39 -30 55 -39 75 -38 186 -103 255 -148 41 -27 89 -56
105 -64 106 -53 207 -118 258 -165 60 -57 67 -94 61 -348 -3 -130 -1 -260 6
-323 6 -58 15 -153 19 -211 5 -59 12 -112 15 -118 4 -6 8 -30 10 -53 5 -62 41
-217 77 -328 29 -89 37 -110 73 -192 33 -75 117 -245 135 -273 11 -16 29 -49
41 -72 12 -24 25 -43 30 -43 4 0 19 -17 32 -37 41 -62 157 -185 248 -264 106
-92 125 -105 235 -164 113 -60 126 -72 136 -132 4 -26 10 -56 14 -65 14 -35
-25 -32 -98 7 -154 80 -182 96 -206 118 -14 13 -59 45 -99 72 -63 43 -223 200
-304 300 -40 49 -112 157 -138 205 -13 25 -29 56 -37 70 -53 95 -63 115 -63
131 0 10 -4 20 -9 23 -13 8 -46 81 -67 146 -9 30 -23 67 -30 82 -8 14 -14 36
-14 49 0 23 -4 39 -33 134 -9 28 -21 79 -27 115 -6 36 -15 88 -20 115 -29 162
-52 530 -43 720 5 113 4 123 -20 176 -28 61 -65 96 -162 150 -33 18 -74 43
-91 56 -28 21 -88 55 -159 91 -16 9 -56 33 -87 54 -32 21 -66 41 -75 45 -10 3
-25 12 -33 19 -31 25 -110 64 -130 64 -32 0 -71 -35 -92 -81 -22 -50 -23 -117
-3 -304 8 -77 15 -176 15 -220 0 -44 7 -116 15 -160 8 -44 14 -103 15 -132 0
-28 4 -63 10 -77 5 -14 14 -58 19 -98 18 -124 86 -421 113 -488 6 -14 16 -38
22 -55 20 -48 38 -98 44 -125 3 -14 18 -46 34 -71 15 -25 28 -54 28 -63 0 -9
11 -35 25 -57 14 -22 30 -52 36 -67 23 -61 138 -244 206 -330 24 -29 43 -57
43 -61 0 -14 282 -296 325 -325 22 -14 69 -48 105 -75 73 -55 224 -148 285
-175 22 -10 76 -35 120 -55 130 -61 155 -71 170 -71 7 0 26 -6 42 -14 51 -26
97 -44 143 -55 25 -7 61 -16 80 -21 19 -5 73 -19 120 -30 47 -12 96 -27 110
-33 27 -13 56 -63 66 -116 l7 -33 -73 7 c-40 4 -103 16 -139 27 -36 10 -109
30 -161 44 -52 14 -99 29 -106 35 -6 5 -40 12 -75 15 l-64 6 -76 -63 c-101
-84 -249 -159 -314 -159 -34 0 -70 -24 -60 -41 4 -5 14 -9 23 -9 9 0 46 -9 82
-20 90 -27 190 -52 220 -54 24 -3 66 -14 135 -38 17 -6 53 -14 81 -18 28 -4
61 -13 72 -19 11 -6 36 -11 54 -11 18 -1 44 -7 58 -15 14 -8 42 -14 62 -15 20
0 49 -5 65 -11 15 -6 51 -15 78 -19 28 -5 77 -16 110 -26 105 -29 138 -29 181
0 78 53 85 23 18 -79 -25 -38 -49 -72 -53 -75 -4 -3 -24 -30 -45 -60 -22 -30
-45 -59 -52 -63 -8 -4 -14 -13 -14 -18 0 -18 -35 -58 -162 -186 -78 -79 -118
-127 -115 -137 9 -22 83 -29 177 -18 46 6 89 8 97 5 18 -7 11 -40 -20 -87 -12
-19 -35 -58 -52 -87 -47 -82 -51 -88 -122 -194 -75 -110 -107 -134 -181 -135
-42 0 -162 49 -200 83 -10 8 -60 38 -113 66 -88 47 -102 51 -164 51 -60 0 -71
-3 -105 -30 -21 -17 -41 -30 -45 -30 -18 0 -65 -44 -82 -77 -25 -49 -37 -119
-22 -129 7 -4 17 0 23 8 6 8 31 29 55 46 37 27 53 32 99 32 62 0 163 -31 202
-60 21 -17 23 -21 10 -30 -8 -5 -27 -10 -43 -10 -77 0 -155 -25 -207 -65 -55
-42 -61 -51 -109 -158 -25 -54 -31 -80 -31 -136 0 -76 27 -153 60 -171 21 -11
21 -11 35 74 10 64 59 149 108 189 67 55 180 97 260 97 58 0 62 -18 9 -43 -53
-26 -135 -107 -157 -158 -22 -47 -24 -88 -13 -220 l8 -87 -28 -10 c-202 -74
-843 -88 -1007 -22 -17 7 -41 17 -55 22 -132 51 -254 142 -296 220 -46 86 -64
-38 -64 -432 0 -351 20 -634 48 -690 45 -91 129 -178 212 -221 126 -65 137
-68 335 -110 82 -18 368 -23 425 -9 25 7 83 16 130 21 94 10 214 31 305 53 33
8 101 24 150 36 50 11 108 26 130 32 22 6 54 14 70 19 17 4 64 20 105 34 41
15 89 30 106 34 18 5 38 12 45 17 7 4 31 11 54 15 22 4 65 17 95 29 30 12 73
26 95 30 22 5 69 16 105 25 36 9 89 21 119 26 30 5 58 12 63 15 5 3 33 10 61
14 45 8 123 24 285 60 23 6 59 10 80 10 21 0 64 7 95 15 32 8 72 15 90 15 17
0 65 7 107 14 132 26 477 36 746 21 133 -7 247 -16 254 -20 8 -5 47 -12 89
-16 134 -13 384 -57 486 -84 28 -7 77 -19 110 -25 106 -21 139 -28 205 -45 36
-8 85 -20 110 -25 24 -6 49 -15 54 -20 6 -6 19 -10 31 -10 11 0 33 -7 49 -15
15 -8 39 -15 53 -15 13 0 34 -5 46 -12 12 -6 35 -15 52 -19 16 -4 55 -17 85
-28 30 -12 71 -26 90 -30 19 -5 87 -22 150 -39 63 -16 151 -37 195 -47 44 -10
94 -24 111 -31 17 -7 34 -11 37 -8 3 3 43 -1 89 -10 249 -46 519 -59 626 -31
33 8 72 15 88 15 51 0 137 29 255 85 76 36 188 132 210 179 14 30 33 62 48 80
18 22 23 1108 5 1126 -8 8 -18 1 -35 -28 -51 -85 -179 -174 -329 -231 -56 -22
-62 -23 -160 -41 -162 -29 -603 -12 -791 32 -111 25 -114 27 -101 69 6 19 13
73 17 121 6 80 5 92 -18 140 -30 62 -95 129 -158 162 -24 13 -44 28 -44 32 0
5 22 10 49 12 79 5 210 -45 262 -100 60 -64 84 -105 100 -174 9 -38 19 -75 21
-83 5 -21 38 12 63 63 32 67 28 162 -10 233 -16 31 -30 64 -30 73 0 66 -165
160 -283 160 -18 0 -39 5 -47 10 -37 25 106 89 198 90 59 0 113 -23 151 -64
14 -14 28 -26 33 -26 4 0 8 20 8 45 0 70 -51 144 -123 178 -30 14 -58 31 -62
36 -3 6 -37 11 -74 11 -61 0 -76 -5 -157 -46 -49 -26 -98 -54 -109 -64 -11 -9
-42 -29 -70 -43 -150 -76 -210 -64 -305 64 -33 44 -60 87 -60 94 0 7 -7 15
-15 19 -8 3 -15 10 -15 15 0 11 -72 135 -121 208 -39 58 -27 65 87 52 97 -11
194 -3 194 15 0 6 -53 66 -117 132 -141 146 -281 324 -357 456 -23 40 -25 49
-13 54 9 3 33 -6 54 -20 21 -14 49 -26 63 -26 37 0 215 39 300 66 25 8 58 14
74 14 15 0 49 7 75 15 25 8 82 21 126 30 44 9 94 21 110 27 33 11 90 25 150
37 83 16 307 81 323 94 21 16 -4 34 -56 39 -76 9 -189 67 -313 163 -97 75 -89
75 -404 -25 -104 -33 -262 -57 -277 -42 -12 12 25 103 53 128 10 9 38 20 62
25 23 4 67 14 97 23 30 10 71 21 90 26 137 35 126 31 293 104 21 9 46 16 56
16 10 0 24 7 31 15 7 8 18 15 25 15 7 0 53 20 104 45 50 25 95 45 100 45 4 0
26 13 47 28 21 16 46 31 54 35 34 17 62 35 83 55 12 11 47 38 78 59 122 82
270 223 382 363 37 47 82 102 99 122 16 20 39 54 50 74 11 20 31 55 46 78 14
23 41 73 60 111 18 39 37 77 42 85 42 71 132 287 153 365 9 33 26 92 37 131
11 39 20 79 20 89 0 10 4 32 9 49 26 85 34 117 47 191 8 44 18 118 23 165 5
47 14 98 20 113 6 16 11 52 11 80 0 29 7 88 15 132 10 54 14 155 15 312 l0
232 -37 36 c-49 48 -79 46 -162 -9 -36 -24 -82 -51 -101 -61 -19 -10 -42 -23
-50 -30 -14 -12 -64 -41 -159 -92 -25 -13 -59 -34 -77 -48 -18 -14 -35 -25
-39 -25 -14 0 -162 -101 -186 -127 -45 -50 -49 -82 -54 -401 -3 -292 -25 -554
-46 -577 -5 -5 -9 -23 -9 -40 0 -33 -24 -162 -38 -210 -5 -16 -22 -70 -37
-120 -15 -49 -40 -118 -56 -152 -16 -35 -29 -65 -29 -68 0 -14 -114 -237 -150
-292 -110 -172 -306 -388 -427 -469 -32 -21 -74 -50 -93 -65 -19 -14 -62 -41
-95 -59 -33 -18 -67 -39 -76 -46 -8 -8 -20 -14 -26 -14 -6 0 -24 -8 -41 -17
-47 -27 -62 -13 -55 49 8 74 32 109 90 132 44 18 106 55 193 117 50 35 202
169 220 193 9 12 39 46 68 76 52 55 134 170 152 213 4 12 25 47 45 77 20 30
39 67 42 83 3 15 9 30 13 32 9 6 37 65 65 135 9 25 23 60 31 78 8 18 14 41 14
52 0 10 4 29 9 42 35 89 75 273 91 418 5 47 15 130 21 185 6 55 12 224 13 375
2 275 6 311 41 363 16 25 130 106 178 127 27 12 95 52 162 95 62 39 294 175
300 175 2 0 54 34 115 75 60 41 125 82 142 91 18 9 71 42 118 73 47 30 93 60
102 66 15 9 118 79 197 135 14 10 81 54 149 99 68 44 142 96 165 114 23 19 70
54 105 78 168 117 372 273 431 329 9 8 45 37 81 65 173 132 438 381 758 714
19 19 50 55 70 80 20 25 71 87 112 136 72 85 123 154 145 194 6 10 25 38 43
62 18 24 58 87 88 139 30 52 59 102 64 110 5 8 25 49 46 90 20 41 43 82 49 90
7 8 15 26 18 40 3 14 22 67 41 117 35 90 51 149 83 303 19 92 29 408 14 423
-7 7 -12 5 -17 -9 -13 -36 -45 -109 -56 -129 -7 -11 -25 -45 -41 -75 -16 -30
-34 -61 -40 -69 -6 -7 -16 -21 -22 -32 -129 -230 -318 -465 -617 -770 -146
-148 -412 -390 -514 -466 -28 -21 -82 -66 -120 -100 -38 -34 -101 -86 -141
-115 -40 -29 -127 -95 -195 -146 -175 -132 -367 -272 -373 -272 -3 0 -18 -11
-33 -25 -15 -14 -32 -25 -38 -25 -6 0 -24 -12 -40 -26 -16 -14 -42 -32 -59
-41 -16 -9 -45 -29 -64 -45 -18 -16 -45 -35 -60 -41 -14 -6 -52 -31 -83 -54
-31 -24 -59 -43 -62 -43 -2 0 -41 -25 -85 -55 -44 -30 -83 -55 -87 -55 -4 0
-34 -20 -68 -44 -33 -24 -83 -55 -111 -70 -63 -34 -83 -47 -110 -69 -12 -9
-86 -55 -166 -102 -79 -46 -164 -97 -189 -112 -25 -15 -61 -37 -80 -48 -19
-11 -51 -31 -70 -45 -19 -14 -44 -30 -55 -36 -11 -6 -51 -28 -90 -49 -38 -20
-77 -44 -86 -51 -8 -8 -18 -14 -22 -14 -4 0 -41 -20 -83 -45 -41 -25 -77 -45
-79 -45 -2 0 -31 -18 -64 -40 -33 -22 -108 -66 -166 -98 -145 -79 -202 -111
-266 -152 -58 -37 -70 -44 -139 -82 -48 -26 -144 -86 -225 -140 -74 -49 -255
-235 -296 -304 -80 -134 -106 -274 -77 -406 6 -29 18 -62 25 -73 7 -11 13 -25
13 -32 0 -21 63 -106 110 -150 50 -46 125 -98 186 -127 51 -26 112 -83 128
-121 47 -109 59 -232 30 -304 -8 -18 -14 -44 -14 -58 0 -37 -84 -116 -147
-136 -148 -48 -367 8 -577 148 -316 211 -415 306 -579 556 -31 47 -61 97 -67
110 -5 13 -14 31 -18 39 -38 66 -49 121 -33 163 6 15 19 30 28 33 19 5 69 27
113 48 14 7 52 21 85 30 33 10 74 24 90 32 17 7 48 15 70 18 22 3 57 8 79 12
23 4 54 1 78 -7 53 -17 61 -4 53 84 -7 75 -31 125 -73 154 -31 20 -100 53
-113 53 -16 0 -9 -28 9 -35 33 -12 -10 -25 -54 -15 -70 17 -159 12 -177 -8
-10 -10 -17 -26 -17 -34 0 -17 -95 -108 -112 -108 -5 0 -1 15 11 33 41 65 68
123 75 159 7 36 6 37 -71 95 -80 60 -187 111 -279 132 -28 7 -125 17 -215 22
-90 5 -202 12 -247 16 l-84 6 27 -27 c14 -15 25 -31 23 -37 -2 -6 -26 -20 -53
-31 -64 -25 -115 -47 -140 -61 -11 -6 -33 -13 -49 -16 -40 -9 -43 -26 -6 -41
17 -7 30 -20 30 -30 0 -17 -143 -209 -167 -223 -7 -4 -13 -17 -13 -28 0 -18 4
-20 30 -14 37 8 48 -12 27 -52 -22 -43 -47 -103 -47 -113 0 -6 -11 -33 -25
-62 -14 -28 -25 -55 -25 -60 0 -14 37 -9 50 7 7 8 16 12 21 9 32 -19 -32 -155
-109 -232 -50 -49 -53 -56 -43 -78 24 -53 13 -82 -81 -206 -146 -193 -333
-340 -533 -417 -175 -68 -274 -75 -376 -28 -57 26 -116 81 -142 132 -48 93
-49 98 -48 207 1 66 7 120 15 140 22 52 86 119 135 142 134 63 235 158 304
284 l42 77 0 132 c0 92 -4 136 -12 144 -7 7 -13 22 -13 34 0 12 -4 25 -9 31
-6 5 -21 30 -35 56 -49 91 -199 259 -275 306 -14 9 -37 25 -51 37 -14 12 -77
53 -140 90 -63 38 -116 72 -118 77 -2 4 -10 8 -18 8 -8 0 -46 20 -84 45 -38
25 -72 45 -76 45 -4 0 -34 17 -68 38 -34 21 -95 56 -136 77 -41 22 -91 51
-111 67 -20 15 -44 28 -52 28 -9 0 -18 4 -21 9 -5 8 -127 81 -351 210 -49 29
-121 72 -160 97 -38 24 -90 56 -115 70 -44 26 -155 92 -195 116 -11 7 -56 36
-100 64 -44 28 -91 57 -105 64 -14 7 -63 38 -110 69 -47 30 -97 62 -111 71
-27 15 -75 46 -156 102 -23 15 -45 28 -50 28 -5 0 -20 11 -33 25 -13 13 -42
34 -64 46 -23 12 -57 34 -77 50 -20 16 -40 29 -44 29 -3 0 -32 19 -63 43 -32
23 -65 47 -74 52 -47 29 -126 86 -137 99 -8 9 -18 16 -24 16 -5 0 -33 19 -61
43 -28 23 -64 51 -81 61 -43 27 -188 136 -200 151 -6 7 -42 34 -80 61 -58 39
-135 100 -201 159 -6 6 -32 28 -59 50 -49 41 -219 186 -288 247 -157 137 -502
500 -607 638 -19 25 -44 56 -57 69 -13 13 -54 71 -92 130 -38 58 -80 120 -93
136 -13 17 -55 92 -93 167 -39 76 -76 149 -83 163 -23 44 -32 28 -33 -57z
m7528 -4239 c26 -10 27 -12 8 -19 -11 -5 -37 -9 -57 -9 -43 -1 -109 -16 -188
-42 -138 -45 -251 -62 -265 -40 -3 6 11 13 32 16 21 3 46 10 56 16 54 30 160
58 292 77 85 13 91 13 122 1z m-1473 -3428 c4 -5 0 -22 -8 -38 -8 -15 -33 -85
-55 -154 -22 -70 -50 -149 -62 -175 -11 -27 -29 -74 -39 -104 -18 -53 -41
-109 -59 -140 -17 -29 -41 -91 -41 -104 0 -8 -7 -19 -15 -26 -8 -7 -15 -20
-15 -30 0 -9 -11 -37 -25 -61 -14 -24 -28 -51 -31 -59 -22 -51 -51 -115 -84
-185 -21 -44 -42 -90 -45 -103 -7 -23 -6 -23 42 -16 26 4 68 13 93 20 25 8 61
14 80 14 19 0 57 7 84 15 27 8 74 15 105 15 31 0 74 5 96 11 22 5 92 14 155
20 63 5 151 13 195 18 101 12 274 12 390 0 50 -5 140 -13 200 -18 61 -5 126
-14 145 -20 19 -6 62 -11 96 -11 33 0 83 -7 110 -15 27 -8 66 -15 86 -15 20 0
48 -4 63 -10 14 -5 49 -14 78 -19 29 -4 60 -12 70 -16 14 -6 17 -2 17 23 0 17
-4 33 -9 36 -4 3 -30 54 -56 113 -26 59 -69 154 -96 210 -27 56 -49 106 -49
111 0 5 -11 29 -25 53 -28 50 -27 47 -65 149 -15 41 -45 122 -67 180 -22 58
-51 139 -63 180 -13 41 -29 84 -37 95 -16 25 -17 65 0 64 19 -1 169 -183 207
-250 8 -16 41 -65 74 -110 32 -45 70 -103 83 -128 14 -25 38 -68 54 -96 36
-59 109 -211 109 -225 0 -5 9 -14 19 -20 21 -10 21 -10 48 35 24 40 53 136 53
176 0 58 23 44 115 -71 28 -34 59 -72 71 -84 27 -28 145 -181 161 -209 23 -40
1 -69 -121 -160 -63 -48 -80 -77 -80 -142 -1 -47 -2 -50 -30 -53 -15 -2 -40 1
-55 7 -14 7 -49 16 -76 21 -88 16 -109 21 -160 35 -56 16 -151 33 -240 45 -33
4 -73 13 -88 19 -16 6 -45 11 -66 11 -21 0 -60 7 -87 15 -27 8 -85 15 -129 15
-44 0 -109 5 -145 10 -111 16 -379 21 -500 10 -63 -6 -176 -14 -251 -19 -74
-4 -141 -11 -149 -16 -7 -5 -43 -12 -79 -16 -65 -8 -115 -17 -238 -45 -34 -8
-74 -14 -89 -14 -29 0 -45 -4 -154 -38 -65 -20 -129 -33 -185 -35 -29 -2 -30
-1 -35 53 -8 75 -18 90 -110 160 -44 33 -85 70 -90 81 -14 25 -5 70 18 95 9
11 44 51 77 89 33 39 62 72 65 75 3 3 25 32 50 65 59 79 117 138 130 130 5 -3
10 -18 10 -33 0 -15 12 -61 26 -102 14 -41 28 -85 31 -98 4 -16 12 -22 26 -20
14 2 30 28 61 99 43 99 62 134 183 322 110 172 152 231 232 328 73 88 85 98
95 80z m2532 -1257 c128 -41 199 -94 255 -189 59 -102 23 -162 -73 -121 -33
14 -90 30 -158 45 -19 4 -44 12 -55 18 -43 23 -97 43 -113 43 -10 0 -73 18
-140 40 -66 22 -127 40 -135 40 -8 0 -19 6 -25 13 -19 22 10 51 90 87 59 28
90 36 163 41 50 3 95 6 101 7 6 1 47 -10 90 -24z m-3620 0 c62 -18 149 -72
149 -93 0 -17 -10 -22 -120 -56 -49 -15 -108 -33 -130 -41 -23 -8 -50 -14 -60
-14 -11 0 -29 -7 -39 -15 -11 -8 -29 -15 -40 -15 -12 0 -30 -7 -40 -15 -11 -8
-28 -15 -39 -15 -17 0 -68 -14 -152 -42 -56 -19 -75 -20 -90 -8 -19 16 -19 68
1 115 16 40 105 135 125 135 7 0 20 7 29 15 9 8 45 26 80 39 54 21 83 25 168
26 66 0 124 -6 158 -16z m1674 -275 c35 -15 53 -30 64 -54 22 -45 20 -56 -14
-103 -16 -23 -30 -45 -30 -48 0 -3 14 -19 30 -34 27 -25 30 -34 30 -89 0 -53
-3 -63 -27 -86 -16 -14 -40 -29 -56 -32 -15 -3 -30 -10 -33 -14 -7 -12 -191
-11 -199 1 -3 5 -9 113 -12 239 l-6 229 29 5 c84 12 177 6 224 -14z m257 -4
c3 -9 1 -57 -5 -108 -6 -51 -12 -137 -14 -192 l-3 -100 86 -6 c99 -7 109 -11
109 -46 l0 -26 -132 7 c-72 4 -136 10 -141 13 -6 3 -7 40 -3 92 3 47 9 147 12
221 3 74 7 141 9 148 6 18 74 15 82 -3z m-632 -7 c4 -12 17 -146 34 -353 9
-105 0 -126 -46 -109 -25 8 -29 16 -35 64 -3 30 -6 84 -7 120 -1 36 -5 81 -11
100 -15 51 -15 157 0 175 15 18 59 20 65 3z m988 -12 c18 -18 13 -134 -9 -210
-8 -27 -14 -68 -14 -90 0 -23 -8 -70 -18 -106 -17 -57 -22 -65 -43 -65 -23 0
-24 4 -27 70 -2 39 4 102 12 140 9 39 17 110 19 159 3 72 7 91 22 102 24 18
40 18 58 0z m-1192 -29 c67 -45 78 -117 29 -186 -25 -33 -28 -43 -15 -47 8 -3
26 -31 41 -62 14 -32 32 -70 40 -86 18 -38 18 -52 -2 -60 -42 -16 -54 -7 -89
68 -45 94 -61 108 -116 104 l-44 -3 2 -65 c1 -36 3 -81 5 -100 3 -33 1 -35
-30 -38 -39 -4 -44 6 -62 128 -7 47 -16 98 -21 114 -5 16 -9 43 -9 61 0 17 -7
54 -15 81 -24 81 -14 92 100 104 128 13 150 11 186 -13z m1402 -1 c8 -8 20
-29 27 -48 12 -32 42 -96 59 -128 32 -59 41 -80 41 -97 1 -10 12 -31 25 -48
l24 -29 10 28 c6 15 11 40 11 56 0 16 4 31 9 34 4 3 11 31 15 62 9 74 30 114
60 114 43 0 48 -20 26 -106 -48 -184 -70 -276 -70 -295 0 -37 -29 -79 -55 -79
-34 0 -50 21 -75 97 -13 38 -33 91 -45 118 -46 101 -55 123 -55 139 0 17 -26
33 -37 23 -7 -8 -22 -83 -33 -172 -5 -38 -12 -84 -16 -102 -7 -38 -38 -53 -62
-29 -13 13 -14 25 -4 83 25 154 34 222 42 292 6 54 13 78 26 88 23 17 59 17
77 -1z m-1745 -54 c-3 -24 -9 -28 -59 -38 -72 -14 -79 -19 -79 -54 0 -34 5
-58 60 -280 22 -87 21 -99 -5 -106 -38 -9 -53 1 -63 43 -32 132 -52 223 -58
258 -14 82 -47 101 -121 70 -48 -20 -60 -19 -74 7 -10 19 -8 25 15 45 16 14
40 23 60 23 17 0 36 4 42 9 5 6 34 14 64 20 96 17 151 30 168 40 26 15 54 -5
50 -37z m-443 -122 c0 -23 -5 -25 -50 -30 -62 -6 -117 -37 -129 -73 -8 -22 -6
-31 14 -52 20 -21 32 -25 84 -25 74 0 153 -27 174 -58 24 -37 21 -135 -4 -169
-29 -39 -101 -73 -167 -80 -48 -5 -58 -3 -63 12 -11 29 10 50 57 55 75 10 123
49 117 96 -5 44 -43 64 -140 74 -130 13 -171 53 -153 148 7 40 59 102 84 102
9 1 27 7 41 15 15 9 46 14 80 12 51 -2 55 -4 55 -27z m2846 14 c120 -37 172
-72 152 -102 -16 -26 -40 -26 -74 -1 -48 34 -133 51 -189 37 -86 -21 -124 -77
-124 -185 0 -71 0 -73 39 -113 26 -27 55 -45 91 -55 69 -20 73 -19 80 13 4 15
13 37 20 50 20 30 3 59 -39 70 -25 6 -32 14 -32 33 0 20 4 24 30 22 17 0 54
-9 83 -19 61 -21 74 -47 50 -98 -32 -68 -47 -102 -53 -123 -8 -30 -32 -35
-110 -23 -96 15 -153 48 -205 116 -42 56 -43 57 -42 139 1 74 4 87 32 134 37
60 68 84 135 104 65 20 92 20 156 1z"/>
<path d="M6598 4492 c-14 -3 -18 -14 -18 -55 0 -73 8 -81 66 -72 81 11 120 69
75 109 -18 16 -85 26 -123 18z"/>
<path d="M6602 4301 c-14 -9 -17 -33 -14 -118 l2 -53 54 0 c48 0 57 3 80 31
26 31 30 47 20 85 -9 32 -114 73 -142 55z"/>
<path d="M6002 4443 c-32 -6 -34 -18 -19 -93 12 -55 17 -66 36 -68 35 -5 65 5
94 32 33 31 37 84 8 110 -20 18 -79 28 -119 19z"/>
<path d="M2526 13531 c-8 -13 68 -41 113 -41 22 0 44 -6 51 -15 7 -8 19 -15
27 -15 22 0 105 -61 144 -105 52 -59 99 -133 99 -156 0 -17 -5 -19 -35 -13
-37 7 -51 -11 -17 -23 50 -18 98 -79 118 -148 l12 -40 1 45 c3 150 83 250 199
250 32 0 47 -6 70 -30 34 -34 42 -37 42 -15 0 24 -70 84 -106 91 -47 9 -139
-38 -173 -88 -31 -45 -58 -49 -71 -10 -39 109 -133 209 -251 269 -88 43 -209
68 -223 44z"/>
<path d="M10895 13525 c-63 -18 -86 -29 -160 -78 -63 -42 -148 -134 -153 -167
-2 -10 -10 -24 -18 -30 -8 -7 -14 -21 -14 -32 0 -38 -30 -31 -78 17 -58 59
-121 89 -167 81 -20 -4 -50 -23 -75 -48 -36 -37 -41 -46 -38 -82 4 -54 21 -53
29 1 3 24 7 44 10 46 89 72 197 36 246 -81 21 -49 24 -68 19 -139 -3 -45 -1
-85 3 -88 12 -7 21 19 21 58 0 18 7 41 15 51 8 11 15 26 15 34 0 20 63 92 81
92 9 0 22 7 29 15 11 13 8 15 -18 15 -17 0 -34 -5 -38 -11 -5 -8 -10 -6 -16 5
-19 34 119 217 184 246 13 6 43 22 67 35 24 14 59 25 77 25 41 0 116 29 108
41 -7 13 -70 10 -129 -6z"/>
<path d="M1026 13444 c-21 -21 -20 -37 3 -58 26 -24 53 -17 65 16 17 48 -32
78 -68 42z"/>
<path d="M3015 13440 c-33 -37 2 -93 44 -70 29 15 32 46 7 69 -27 26 -29 26
-51 1z"/>
<path d="M10480 13441 c-26 -49 1 -93 45 -73 43 20 29 92 -17 92 -9 0 -22 -9
-28 -19z"/>
<path d="M12460 13439 c-25 -45 28 -93 59 -55 7 8 11 27 9 43 -4 37 -50 46
-68 12z"/>
<path d="M1192 13342 c-26 -22 -32 -34 -32 -65 0 -59 49 -123 119 -156 50 -23
67 -26 159 -24 57 1 108 6 115 11 7 5 32 14 57 20 53 12 103 29 146 49 47 22
278 21 300 -1 8 -9 22 -16 30 -16 9 0 22 -7 30 -15 17 -16 34 -20 34 -7 0 12
-57 52 -75 52 -9 0 -27 7 -40 16 -38 25 -228 23 -331 -3 -45 -12 -91 -26 -102
-32 -37 -20 -98 -14 -115 12 -19 28 -31 18 -18 -16 5 -14 7 -28 4 -31 -4 -3
-31 -6 -62 -6 -65 0 -127 27 -177 77 -61 61 -39 133 41 133 32 0 36 2 25 15
-20 24 -71 18 -108 -13z"/>
<path d="M12250 13360 c-11 -7 -9 -11 13 -19 16 -6 39 -11 52 -11 26 0 35 -17
35 -63 0 -24 -10 -40 -42 -69 -24 -21 -49 -38 -56 -38 -7 0 -23 -7 -36 -16
-17 -10 -42 -14 -82 -12 -52 3 -59 6 -64 27 -5 22 -7 22 -19 7 -15 -18 -47
-16 -111 8 -19 8 -69 22 -110 32 -95 24 -279 24 -316 0 -13 -9 -34 -16 -46
-16 -25 -1 -86 -45 -76 -56 7 -7 99 34 109 48 10 15 252 11 290 -5 50 -21 99
-37 144 -48 22 -6 47 -16 55 -23 10 -8 49 -12 120 -11 91 1 113 4 161 26 70
33 119 95 119 152 0 67 -86 121 -140 87z"/>
<path d="M1326 13331 c-3 -4 6 -13 19 -19 14 -7 25 -16 25 -22 0 -5 5 -10 11
-10 5 0 23 -14 39 -32 16 -17 32 -29 36 -25 8 8 -97 117 -113 117 -6 0 -14 -4
-17 -9z"/>
<path d="M12173 13319 c-34 -21 -43 -39 -20 -39 12 1 67 45 67 55 0 10 -15 5
-47 -16z"/>
<path d="M2192 13311 c-8 -4 -12 -19 -10 -32 2 -20 9 -24 38 -24 29 0 36 4 38
24 4 24 -11 41 -38 41 -8 0 -21 -4 -28 -9z"/>
<path d="M11294 13295 c-8 -33 6 -47 42 -43 25 3 29 7 29 33 0 26 -4 30 -32
33 -28 3 -33 -1 -39 -23z"/>
<path d="M2425 13266 c-11 -9 -27 -16 -36 -16 -8 0 -26 -15 -40 -32 -19 -27
-24 -44 -23 -94 0 -51 5 -67 29 -98 16 -21 38 -42 49 -47 12 -5 28 -13 36 -18
57 -32 192 -52 226 -33 15 8 12 12 -22 21 -21 6 -52 11 -69 11 -38 0 -116 24
-147 44 -31 20 -68 86 -68 121 0 32 14 61 48 98 21 21 35 27 70 27 30 0 42 4
40 13 -7 18 -70 20 -93 3z"/>
<path d="M11014 13255 c-15 -14 -22 -25 -17 -25 6 0 16 7 23 15 16 19 86 9
112 -17 10 -10 22 -18 28 -18 15 0 30 -70 23 -116 -4 -33 -13 -49 -41 -71 -41
-33 -113 -61 -162 -62 -55 -2 -116 -21 -99 -32 23 -15 133 -11 155 6 10 8 31
15 45 15 15 0 32 7 39 15 7 8 18 15 24 15 16 0 59 48 74 83 15 34 15 87 2 122
-13 33 -58 75 -81 75 -10 0 -21 5 -24 10 -12 20 -73 11 -101 -15z"/>
<path d="M2542 13234 c1 -9 9 -19 16 -22 9 -3 13 2 10 14 -1 9 -9 19 -16 22
-9 3 -13 -2 -10 -14z"/>
<path d="M3981 13233 c-34 -17 -91 -76 -91 -96 0 -7 -7 -22 -15 -33 -16 -21
-21 -94 -6 -94 5 0 13 15 16 33 12 54 72 144 104 155 24 9 32 7 46 -8 20 -22
14 -62 -18 -125 -23 -45 -38 -60 -85 -81 -31 -14 -36 -13 -59 2 -25 16 -26 15
-47 -9 -14 -17 -36 -28 -66 -32 -59 -9 -152 -35 -167 -47 -17 -14 -51 0 -70
28 -24 37 -68 55 -142 59 -55 2 -73 -2 -107 -21 -54 -32 -110 -96 -141 -161
-31 -65 -44 -66 -124 -13 -33 22 -62 40 -63 40 -2 0 -23 19 -47 42 -36 35 -45
39 -47 24 -5 -24 68 -98 133 -136 88 -52 99 -65 107 -134 12 -106 26 -178 37
-189 6 -6 11 -19 11 -29 0 -10 7 -21 15 -24 8 -4 15 -12 15 -19 0 -18 17 -28
24 -16 4 5 0 16 -8 23 -7 8 -17 24 -20 36 -4 12 -11 22 -15 22 -5 0 -11 24
-14 53 -4 28 -9 67 -13 84 -3 18 -3 44 0 58 9 36 52 33 90 -5 16 -17 35 -30
42 -30 8 0 20 -13 28 -29 16 -30 63 -53 52 -24 -3 8 -6 18 -6 23 0 16 -95 99
-137 121 -59 30 -62 50 -19 113 86 125 127 156 210 156 50 0 64 -4 100 -32 22
-17 43 -33 45 -35 8 -6 -23 -53 -38 -58 -17 -5 -45 -44 -38 -52 3 -2 21 10 40
26 39 35 61 39 77 14 9 -15 10 -13 5 10 -4 21 -1 29 12 34 10 3 25 12 33 18
14 12 98 26 170 29 32 1 35 -2 38 -29 1 -16 5 -41 8 -54 8 -37 24 -6 24 47 0
32 5 44 18 49 106 35 176 101 204 192 19 62 19 62 -2 95 -24 39 -57 49 -99 29z"/>
<path d="M9499 13235 c-16 -8 -29 -26 -32 -42 -8 -41 4 -121 19 -134 8 -6 14
-17 14 -23 0 -6 10 -20 23 -32 29 -26 124 -84 139 -84 6 0 19 -7 29 -16 14
-13 21 -13 37 -3 16 10 31 10 72 1 28 -7 66 -12 83 -12 54 -1 112 -65 86 -96
-8 -10 -8 -14 0 -14 6 0 11 4 11 9 0 5 12 16 26 26 24 16 26 16 39 -2 7 -10
17 -15 21 -11 4 4 -5 20 -19 34 -15 15 -27 31 -27 35 0 14 33 49 46 49 6 0 17
7 24 15 8 10 31 15 71 15 48 0 66 -5 103 -30 64 -44 136 -143 136 -189 0 -12
-12 -28 -27 -38 -99 -62 -183 -152 -183 -195 0 -25 17 -23 25 3 8 24 104 119
121 119 6 0 17 7 24 16 8 8 25 14 39 12 24 -3 26 -7 29 -64 2 -45 -1 -64 -13
-74 -18 -15 -21 -84 -2 -78 6 3 13 22 15 43 2 21 10 48 18 59 9 13 14 47 14
91 l1 70 62 40 c80 51 146 107 147 123 0 21 -14 14 -83 -38 -36 -27 -73 -50
-81 -50 -8 0 -18 -4 -21 -10 -15 -25 -42 -6 -80 57 -73 124 -138 172 -230 171
-71 -1 -121 -23 -150 -67 -22 -34 -42 -38 -83 -17 -15 8 -69 23 -121 34 -97
21 -110 30 -111 72 -1 14 -12 45 -25 70 -13 25 -30 59 -39 77 -14 31 -88 93
-110 93 -6 -1 -23 -7 -37 -15z m75 -49 c17 -13 42 -46 55 -72 13 -27 30 -62
37 -77 30 -62 11 -78 -55 -48 -26 13 -58 38 -73 59 -31 44 -46 125 -28 147 17
20 28 19 64 -9z"/>
<path d="M12090 13218 c0 -12 1 -19 3 -17 1 2 9 12 16 22 12 14 11 17 -3 17
-10 0 -16 -8 -16 -22z"/>
<path d="M4219 13199 c-16 -31 4 -71 33 -67 31 5 44 31 30 62 -14 32 -47 34
-63 5z"/>
<path d="M9272 13204 c-27 -18 -28 -36 -4 -57 49 -44 112 11 66 57 -19 20 -34
20 -62 0z"/>
<path d="M2571 13183 c0 -10 4 -27 9 -38 7 -18 8 -18 15 7 7 28 1 48 -16 48
-5 0 -9 -8 -8 -17z"/>
<path d="M2795 13179 c-4 -6 -5 -12 -3 -14 7 -7 48 7 48 16 0 13 -37 11 -45
-2z"/>
<path d="M10710 13182 c0 -4 16 -15 35 -24 40 -18 42 -16 18 12 -17 20 -53 28
-53 12z"/>
<path d="M3555 13080 c-9 -28 3 -58 26 -65 37 -12 60 26 43 69 -9 24 -61 21
-69 -4z"/>
<path d="M4463 13086 c-4 -8 -21 -16 -37 -18 -36 -4 -48 -28 -14 -28 13 0 29
5 35 11 6 6 25 14 43 18 17 3 31 11 31 16 -1 16 -49 18 -58 1z"/>
<path d="M9022 13091 c-11 -7 -10 -10 3 -15 9 -3 25 -6 35 -6 10 0 32 -8 49
-17 24 -14 33 -15 42 -6 10 10 6 14 -19 19 -17 4 -37 13 -43 20 -13 16 -47 18
-67 5z"/>
<path d="M9920 13081 c-20 -38 21 -82 59 -62 44 24 31 81 -19 81 -19 0 -33 -7
-40 -19z"/>
<path d="M4324 13030 c-5 -5 -28 -19 -51 -32 -40 -22 -173 -141 -173 -154 0
-4 -16 -26 -34 -49 -37 -44 -86 -145 -86 -175 0 -10 -7 -23 -16 -30 -16 -14
-16 -61 1 -61 6 0 12 13 13 28 2 15 10 32 18 36 8 4 14 17 14 28 0 11 11 35
25 53 14 18 35 52 48 75 30 57 200 226 254 252 23 11 43 25 43 30 0 12 -43 12
-56 -1z"/>
<path d="M9170 13030 c0 -6 8 -14 18 -17 48 -18 164 -119 217 -188 17 -21 37
-46 47 -54 19 -19 68 -109 68 -125 0 -7 5 -17 11 -23 19 -19 56 -118 74 -200
9 -43 21 -89 25 -103 7 -23 8 -22 14 15 24 147 85 254 146 255 31 0 40 -6 69
-48 21 -29 23 -41 17 -90 l-6 -57 24 30 c79 94 -33 239 -148 191 -42 -17 -96
-72 -96 -98 0 -20 -22 -36 -28 -20 -2 7 -10 19 -18 26 -8 8 -14 26 -14 40 0
23 -20 80 -41 116 -5 8 -14 26 -20 40 -35 83 -175 234 -254 275 -31 15 -58 32
-61 36 -7 13 -44 11 -44 -1z"/>
<path d="M2043 12989 c9 -5 17 -14 17 -19 0 -5 11 -21 25 -36 28 -30 51 -94
42 -118 -5 -13 -24 -16 -99 -17 -106 -1 -154 -11 -99 -22 19 -4 74 -7 123 -7
116 0 132 -8 124 -64 -5 -30 0 -62 17 -114 13 -40 28 -74 33 -75 15 -3 16 54
1 71 -9 11 -16 47 -19 100 l-5 82 51 15 c106 32 395 28 441 -5 6 -4 27 -13 47
-19 22 -7 53 -30 75 -56 37 -42 113 -174 113 -196 0 -16 42 -69 51 -63 10 6
-18 81 -38 105 -7 8 -13 25 -13 36 0 11 -7 26 -15 33 -8 7 -15 20 -15 29 0 30
-129 151 -162 151 -7 0 -22 7 -32 15 -11 8 -34 15 -50 15 -17 0 -49 7 -71 15
-53 19 -151 19 -207 0 -29 -10 -71 -15 -117 -13 l-72 3 -22 40 c-30 54 -65 93
-100 110 -34 17 -51 20 -24 4z"/>
<path d="M11468 12977 c-33 -19 -108 -117 -108 -139 0 -14 -143 -8 -194 7 -61
19 -149 19 -201 0 -22 -8 -53 -15 -70 -15 -67 0 -208 -93 -221 -146 -3 -13
-10 -24 -14 -24 -12 0 -50 -77 -50 -101 0 -11 -7 -27 -15 -35 -18 -19 -20 -57
-2 -52 6 3 13 14 15 26 2 11 10 26 18 32 8 7 14 19 14 26 0 30 65 127 111 167
56 48 133 73 254 83 101 8 305 -12 325 -31 12 -13 12 -27 2 -97 -9 -61 -9 -85
0 -95 15 -18 28 0 28 40 0 16 5 38 12 50 6 12 14 38 17 57 l6 35 122 5 c178 8
177 28 -2 33 l-90 2 -3 33 c-3 33 28 84 86 140 30 29 8 29 -40 -1z"/>
<path d="M4685 12911 c-60 -16 -126 -38 -145 -49 -19 -12 -45 -26 -57 -31 -11
-5 -24 -15 -28 -20 -3 -6 -13 -11 -21 -11 -9 0 -30 -12 -47 -27 -65 -57 -197
-193 -197 -204 0 -6 -13 -28 -28 -48 -33 -41 -53 -79 -75 -136 -8 -22 -25 -65
-38 -95 -47 -115 -42 -346 12 -492 17 -46 33 -94 36 -108 3 -14 11 -32 18 -40
6 -8 15 -22 19 -30 3 -8 16 -31 27 -50 12 -19 31 -53 43 -76 43 -82 176 -251
214 -270 20 -11 55 -30 77 -44 22 -13 55 -33 74 -43 19 -10 41 -25 48 -33 8
-8 20 -14 26 -14 15 0 87 -66 87 -79 0 -15 -11 -14 -30 4 -40 36 -297 162
-407 200 -43 15 -88 33 -100 41 -12 8 -33 14 -45 14 -13 0 -36 7 -52 15 -15 8
-37 15 -48 15 -11 0 -32 6 -46 14 -15 8 -47 22 -72 31 -25 9 -52 21 -60 26 -8
4 -42 22 -75 39 -118 60 -213 118 -234 144 -7 9 -19 16 -26 16 -15 0 -242 221
-276 269 -24 35 -70 83 -74 79 -5 -6 17 -147 31 -194 7 -28 14 -60 14 -71 0
-12 13 -51 30 -88 17 -37 30 -75 30 -84 0 -9 4 -21 9 -26 5 -6 26 -41 46 -80
21 -38 51 -85 66 -103 16 -18 29 -36 29 -40 0 -4 35 -44 78 -88 66 -70 187
-168 257 -211 37 -22 161 -83 170 -83 5 0 16 -6 24 -13 21 -17 80 -41 156 -62
33 -9 76 -23 96 -30 31 -12 210 -46 309 -59 33 -4 113 -23 190 -44 64 -18 194
-84 290 -147 157 -104 255 -199 351 -342 68 -102 76 -86 44 92 -13 70 -65 207
-111 292 -56 103 -177 267 -271 366 -39 42 -92 108 -118 147 -25 38 -51 72
-56 75 -5 4 -17 23 -28 43 -10 20 -34 69 -54 109 -21 39 -37 77 -37 83 0 7 -6
26 -14 43 -23 53 -46 171 -46 233 0 62 24 149 55 199 37 62 159 124 242 125
17 0 35 5 39 11 8 13 -55 80 -111 118 -88 59 -112 66 -230 65 -90 0 -103 1
-71 9 22 6 67 30 99 53 33 24 68 44 79 44 10 0 33 7 49 16 41 21 181 14 269
-13 77 -23 207 -89 270 -137 25 -19 46 -33 48 -31 5 5 -28 67 -44 83 -7 7 -19
21 -26 30 -17 23 -84 75 -128 98 -55 30 -90 56 -90 65 0 19 54 7 97 -21 24
-16 47 -30 50 -30 6 0 81 -58 105 -83 30 -29 108 -138 108 -151 0 -17 46 -126
59 -139 15 -15 22 -5 55 73 62 145 55 389 -13 510 -4 8 -16 31 -26 50 -30 58
-93 132 -163 192 -37 32 -70 58 -75 58 -4 0 -26 12 -49 26 -22 14 -91 39 -152
54 -155 39 -280 39 -431 1z"/>
<path d="M8480 12924 c-119 -31 -136 -37 -178 -58 -148 -73 -252 -175 -316
-311 -10 -22 -22 -48 -27 -57 -65 -129 -67 -336 -3 -460 8 -14 14 -35 14 -46
0 -11 11 -27 25 -36 24 -16 24 -16 30 22 6 33 24 76 62 145 16 30 96 123 130
151 56 46 161 106 186 106 42 0 23 -23 -57 -69 -41 -23 -93 -61 -118 -85 -50
-50 -104 -124 -95 -132 7 -7 44 13 71 37 45 43 210 129 246 129 10 0 34 7 53
15 93 38 259 7 371 -70 29 -19 69 -38 89 -42 69 -11 47 -19 -26 -9 -112 15
-189 -2 -279 -64 -73 -49 -124 -102 -114 -119 3 -4 29 -11 58 -14 107 -11 210
-79 249 -164 27 -59 29 -256 3 -342 -19 -64 -96 -226 -136 -287 -16 -23 -28
-45 -28 -49 0 -15 -114 -158 -171 -214 -80 -79 -279 -360 -279 -395 0 -7 -7
-19 -15 -26 -8 -7 -15 -18 -15 -26 0 -7 -7 -30 -16 -51 -31 -71 -34 -78 -49
-121 -18 -54 -32 -202 -18 -202 10 0 32 28 99 126 66 97 184 208 294 279 26
17 55 36 66 42 44 29 201 104 228 109 16 3 33 7 39 11 11 7 120 33 167 39 175
25 280 46 325 65 11 4 47 16 80 25 69 20 176 68 347 155 20 10 39 23 43 28 3
6 25 23 49 39 105 71 203 171 281 285 73 108 90 139 145 272 22 55 57 209 65
285 l7 75 -63 -70 c-140 -157 -248 -254 -366 -331 -65 -43 -131 -83 -148 -89
-16 -5 -37 -15 -45 -20 -34 -23 -146 -75 -161 -75 -8 0 -24 -7 -35 -15 -10 -8
-27 -15 -37 -15 -26 0 -128 -35 -224 -76 -17 -8 -36 -14 -43 -14 -7 0 -55 -20
-107 -45 -52 -25 -100 -45 -108 -45 -8 0 -16 -4 -20 -9 -3 -6 -26 -20 -52 -33
-26 -13 -58 -33 -71 -45 -47 -43 -95 -43 -51 0 24 24 163 117 174 117 3 0 24
12 48 27 23 15 59 36 81 47 21 10 46 31 55 45 9 14 48 69 86 121 60 82 85 121
126 200 85 162 123 311 123 480 -1 155 -29 264 -100 392 -85 151 -222 297
-336 357 -24 12 -62 33 -85 45 -23 13 -54 26 -70 29 -15 3 -57 13 -93 22 -94
22 -291 28 -360 9z"/>
<path d="M5562 12897 c-28 -30 -28 -68 1 -95 30 -28 52 -28 82 3 33 32 32 68
-1 94 -34 27 -55 26 -82 -2z"/>
<path d="M7902 12900 c-41 -39 -14 -120 40 -120 27 0 68 45 68 74 0 27 -41 66
-69 66 -10 0 -27 -9 -39 -20z"/>
<path d="M1996 12651 c-25 -27 -6 -61 34 -61 40 0 59 34 34 61 -9 10 -25 19
-34 19 -9 0 -25 -9 -34 -19z"/>
<path d="M11490 12656 c-6 -8 -10 -25 -8 -38 2 -18 9 -23 33 -23 24 0 31 5 33
23 4 25 -13 52 -33 52 -7 0 -18 -7 -25 -14z"/>
<path d="M3720 12622 c-47 -21 -70 -46 -70 -73 0 -38 9 -37 44 6 41 48 76 47
127 -4 22 -21 39 -45 39 -53 0 -8 5 -19 10 -24 6 -6 13 -35 16 -65 8 -81 13
-101 27 -96 10 3 20 49 29 137 2 18 -3 28 -20 35 -14 6 -32 30 -44 57 -16 37
-29 52 -62 68 -43 20 -69 24 -96 12z"/>
<path d="M2387 12598 c-49 -42 -26 -132 57 -224 68 -76 230 -144 339 -144 34
0 61 -16 69 -41 3 -9 11 -8 29 4 19 12 34 14 69 7 64 -13 80 -12 80 4 0 18
-22 26 -76 26 -60 0 -124 34 -124 66 0 13 -5 24 -10 24 -6 0 -9 -12 -8 -27 3
-24 -1 -28 -24 -31 -15 -2 -40 4 -57 12 -16 9 -41 16 -54 16 -31 0 -110 35
-160 71 -79 57 -126 155 -98 208 18 33 61 26 166 -24 72 -34 103 -56 137 -95
45 -53 58 -60 58 -34 0 41 -121 152 -200 183 -19 8 -64 16 -100 18 -57 4 -68
2 -93 -19z"/>
<path d="M10990 12605 c-14 -8 -31 -14 -38 -15 -20 0 -126 -84 -161 -127 -17
-21 -31 -45 -31 -54 0 -9 -7 -22 -15 -29 -17 -14 -21 -60 -5 -60 6 0 10 8 10
18 0 23 64 109 110 149 19 16 58 40 85 52 28 12 63 29 78 36 54 28 117 9 117
-36 -1 -43 -46 -127 -90 -166 -34 -31 -144 -83 -176 -83 -14 0 -39 -7 -55 -16
-42 -21 -83 -15 -87 14 -4 29 -20 28 -31 -1 -14 -36 -53 -56 -117 -59 -32 -2
-59 -8 -61 -15 -6 -17 27 -24 70 -14 21 5 50 6 65 2 19 -5 36 -2 57 11 17 10
41 18 54 18 67 0 187 38 274 87 26 15 80 74 114 125 35 53 37 132 4 159 -29
23 -133 26 -171 4z"/>
<path d="M6728 12448 c-8 -13 -19 -32 -26 -43 -6 -11 -25 -45 -41 -76 -37 -70
-113 -166 -170 -213 -44 -37 -106 -61 -201 -77 -30 -5 -72 -12 -93 -15 -27 -5
-52 -21 -86 -54 -60 -59 -77 -102 -59 -155 17 -51 35 -55 53 -11 9 20 30 46
48 57 77 49 252 -12 291 -101 3 -8 15 -28 26 -45 23 -36 23 -35 44 -104 24
-80 22 -309 -3 -389 -23 -70 -41 -102 -58 -102 -16 0 -17 50 -1 101 9 31 8 52
-2 97 -25 109 -75 179 -150 211 l-51 22 -54 -25 c-38 -17 -61 -36 -79 -65 -36
-56 -66 -52 -66 9 0 10 -21 37 -46 59 -37 32 -55 41 -83 41 -38 0 -148 58
-164 86 -4 8 -17 14 -28 14 -18 0 -19 -5 -13 -72 15 -186 37 -268 86 -324 26
-29 13 -53 -32 -60 -47 -8 -75 -36 -89 -91 -13 -48 -1 -117 30 -169 18 -30
113 -104 133 -104 5 0 17 -6 25 -13 50 -41 160 -56 239 -32 18 6 22 3 22 -12
0 -46 -162 -78 -249 -49 -27 9 -56 16 -63 16 -27 1 -118 67 -151 110 -52 69
-71 137 -64 237 5 82 4 84 -22 101 -108 68 -168 152 -156 220 9 55 -8 92 -42
92 -35 0 -90 19 -123 43 -48 34 -52 17 -14 -63 15 -30 31 -62 35 -70 5 -8 12
-22 15 -30 3 -8 9 -22 14 -30 5 -8 19 -35 31 -60 12 -25 25 -52 30 -60 5 -8
12 -22 15 -30 18 -47 27 -68 40 -92 34 -68 45 -89 94 -193 28 -60 60 -126 71
-145 26 -47 119 -242 134 -280 3 -8 20 -42 38 -75 l32 -60 947 -3 948 -2 65
137 c36 76 70 145 75 153 5 8 26 49 45 90 20 41 41 82 46 90 17 29 76 155 84
180 7 22 90 194 132 275 53 99 71 137 96 193 15 35 27 68 27 73 0 12 -37 12
-45 -1 -10 -17 -75 -40 -111 -40 -18 0 -36 -6 -40 -12 -5 -7 -9 -45 -11 -85
-4 -97 -23 -125 -152 -222 -24 -18 -24 -21 -14 -76 12 -66 1 -139 -27 -196
-36 -70 -152 -169 -199 -169 -10 0 -35 -7 -54 -15 -85 -35 -257 4 -257 58 0 5
14 6 33 3 81 -17 109 -17 159 -1 29 10 60 21 68 26 8 4 33 18 55 29 68 37 113
88 135 155 19 58 20 63 3 110 -19 56 -44 81 -91 90 -46 9 -48 25 -11 78 25 36
34 63 45 133 7 49 13 109 14 134 0 25 5 62 11 83 6 22 9 40 7 42 -2 2 -26 -14
-53 -36 -64 -51 -111 -74 -148 -71 -59 5 -131 -67 -151 -150 -3 -16 -10 -28
-15 -28 -4 0 -20 23 -35 50 -42 78 -131 113 -196 78 -54 -29 -76 -49 -95 -85
-10 -21 -26 -46 -33 -55 -11 -14 -15 -47 -14 -138 0 -110 -10 -158 -24 -113
-3 10 -9 26 -14 35 -36 67 -50 137 -50 248 0 114 12 175 46 242 8 14 14 32 14
40 0 28 70 116 113 141 103 61 214 43 263 -41 25 -42 28 -44 40 -27 8 11 14
43 14 74 0 54 -1 56 -57 111 -52 49 -65 56 -123 68 -132 25 -195 43 -237 68
-67 39 -155 150 -214 269 -29 58 -56 105 -61 105 -4 0 -13 -10 -20 -22z m70
-382 c83 -76 120 -106 129 -106 5 0 19 -10 31 -23 l22 -23 -43 -60 c-39 -55
-58 -90 -92 -169 -7 -16 -21 -74 -31 -127 -17 -94 -17 -102 0 -195 10 -54 22
-107 26 -118 4 -11 18 -51 30 -90 50 -154 124 -275 192 -311 34 -18 54 -10 76
30 14 26 17 63 17 233 0 199 0 202 24 227 19 20 34 26 68 26 38 0 46 -4 61
-30 9 -16 23 -32 31 -35 33 -13 117 26 196 90 44 36 83 65 88 65 10 0 9 -18
-3 -25 -5 -3 -10 -14 -10 -24 0 -11 -14 -48 -31 -85 -19 -41 -31 -84 -32 -113
-2 -45 0 -48 24 -51 15 -2 37 -14 50 -28 31 -33 30 -96 -2 -131 -32 -33 -121
-73 -166 -74 -115 -1 -235 -114 -209 -197 6 -17 41 -39 124 -76 13 -6 86 -10
163 -10 l139 1 0 -32 c0 -18 -7 -38 -15 -45 -8 -7 -15 -17 -15 -23 0 -6 -7
-19 -17 -29 -15 -16 -37 -18 -263 -18 l-247 0 -74 49 c-107 71 -170 141 -227
251 -50 96 -59 105 -78 92 -13 -8 -94 -146 -94 -160 0 -11 -159 -172 -170
-172 -5 0 -29 -13 -53 -30 l-45 -30 -250 0 -250 0 -16 25 c-9 13 -16 31 -16
38 0 8 -7 20 -16 27 -19 17 -15 66 6 61 8 -1 65 -5 125 -7 94 -3 119 0 174 19
34 12 79 36 99 53 30 25 34 34 28 58 -9 36 -87 113 -139 136 -23 11 -61 20
-84 20 -94 0 -193 72 -193 141 0 45 32 89 66 89 14 0 27 7 31 16 8 22 -11 101
-47 191 -17 41 -30 76 -30 79 0 11 29 2 41 -13 27 -32 123 -97 172 -115 57
-22 78 -18 97 17 25 47 110 48 144 2 20 -27 21 -41 21 -230 0 -111 4 -211 8
-223 4 -11 18 -27 31 -34 22 -11 29 -9 68 17 42 28 109 122 122 171 4 12 17
46 30 75 30 70 56 150 56 176 0 12 7 36 16 52 29 57 11 264 -32 366 -8 17 -14
34 -14 38 0 4 -25 45 -55 90 -30 46 -55 88 -55 93 0 6 22 26 49 44 58 39 129
96 150 121 23 25 47 21 89 -17z"/>
<path d="M10557 12443 c-13 -12 -7 -33 8 -33 8 0 15 9 15 20 0 20 -11 26 -23
13z"/>
<path d="M407 12413 c-4 -3 -7 -45 -6 -92 1 -130 26 -317 58 -436 10 -38 26
-99 36 -135 9 -36 34 -102 56 -147 21 -46 39 -87 39 -93 0 -5 14 -32 30 -58
17 -27 30 -51 30 -54 0 -19 132 -235 206 -338 14 -19 32 -44 40 -55 129 -180
493 -553 619 -635 22 -15 77 -58 123 -97 46 -39 107 -86 135 -105 29 -19 99
-66 155 -104 136 -91 153 -102 177 -114 11 -5 27 -14 35 -20 49 -32 231 -132
375 -205 61 -31 130 -67 155 -80 103 -53 121 -58 146 -44 l24 12 0 281 c0 297
-1 308 -52 402 -17 30 -105 104 -125 104 -5 0 -22 14 -38 30 -16 17 -32 30
-36 30 -5 0 -29 15 -55 33 -25 17 -70 48 -99 67 -77 51 -211 144 -280 195 -33
25 -93 69 -134 97 -72 52 -95 69 -203 155 -29 22 -100 78 -158 124 -143 113
-388 326 -481 419 -14 14 -57 56 -97 93 -39 38 -122 124 -184 191 -208 225
-214 232 -314 370 -17 24 -43 56 -58 72 -15 16 -43 55 -62 87 -35 56 -44 64
-57 50z"/>
<path d="M13065 12412 c-6 -4 -28 -31 -49 -61 -21 -30 -43 -59 -47 -65 -5 -6
-32 -42 -61 -81 -28 -38 -76 -99 -107 -135 -31 -36 -78 -92 -105 -125 -27 -33
-138 -147 -245 -254 -233 -229 -252 -248 -356 -335 -44 -37 -105 -89 -135
-116 -115 -101 -138 -120 -145 -120 -8 0 -83 -57 -100 -76 -18 -20 -157 -128
-225 -174 -37 -25 -118 -84 -181 -131 -63 -47 -135 -98 -160 -115 -25 -16 -72
-47 -104 -69 -31 -22 -81 -56 -110 -75 -199 -131 -231 -159 -252 -216 -5 -16
-16 -45 -24 -64 -10 -26 -14 -104 -17 -306 l-3 -271 27 -18 c25 -16 29 -16 68
0 22 9 55 24 71 33 43 24 279 146 350 181 33 17 84 46 113 66 30 19 58 35 62
35 5 0 29 14 53 30 25 17 49 30 55 30 5 0 16 7 23 16 7 9 45 36 84 61 172 111
241 160 350 252 12 10 45 36 75 60 262 205 626 601 737 801 11 19 36 61 56 92
21 31 37 59 37 62 0 3 14 25 30 49 17 25 30 48 30 51 0 3 12 30 26 59 14 28
30 63 34 77 5 14 18 50 30 80 69 175 113 357 136 560 20 188 15 238 -21 212z"/>
<path d="M2780 12382 c0 -19 12 -42 22 -42 14 0 5 43 -9 48 -7 2 -13 -1 -13
-6z"/>
<path d="M3517 12349 c-9 -6 -17 -16 -17 -23 0 -8 -12 -35 -27 -62 -27 -47
-28 -55 -28 -184 0 -138 2 -146 48 -225 63 -108 194 -228 293 -270 45 -18 43
-5 -6 46 -22 23 -40 46 -40 51 0 4 -4 8 -9 8 -5 0 -25 24 -45 53 -35 51 -46
87 -26 87 6 0 10 -3 10 -7 0 -5 15 -24 33 -43 17 -20 37 -47 43 -60 11 -23 12
-24 20 -6 5 13 2 23 -9 31 -10 7 -17 24 -17 39 0 14 -4 26 -10 26 -5 0 -10 10
-9 23 l0 22 11 -22 c6 -13 14 -23 19 -23 4 0 12 -12 18 -27 18 -47 30 -62 115
-152 27 -28 53 -51 59 -51 6 0 7 18 3 48 -4 26 -11 83 -15 127 -10 93 -33 195
-61 265 -19 49 -88 146 -140 198 -22 23 -131 101 -185 134 -6 4 -18 2 -28 -3z
m121 -480 l-5 -24 -10 25 c-12 28 -6 47 9 32 5 -5 8 -20 6 -33z"/>
<path d="M2872 12149 c1 -13 8 -23 13 -21 15 3 12 35 -3 40 -9 3 -13 -3 -10
-19z"/>
<path d="M2713 12118 c-16 -35 4 -70 36 -66 28 3 37 24 27 64 -8 32 -49 33
-63 2z"/>
<path d="M10775 12120 c-15 -17 -16 -24 -7 -45 14 -29 42 -32 65 -7 22 24 21
35 -1 55 -24 22 -35 21 -57 -3z"/>
<path d="M625 11127 c-4 -14 -2 -34 4 -46 6 -11 14 -48 16 -83 7 -84 42 -249
75 -354 6 -17 10 -38 10 -46 0 -9 14 -46 30 -83 17 -37 30 -73 30 -80 0 -7 16
-44 35 -81 19 -38 35 -74 35 -80 0 -6 7 -17 15 -24 8 -7 15 -19 15 -27 0 -8
14 -35 30 -60 17 -24 30 -46 30 -48 0 -8 104 -172 121 -190 11 -11 47 -56 82
-100 111 -144 208 -244 367 -381 63 -54 120 -104 125 -110 6 -6 26 -20 45 -32
20 -11 46 -32 59 -46 14 -14 29 -26 35 -26 11 0 110 -65 134 -88 8 -7 28 -20
45 -29 18 -9 58 -34 90 -55 32 -22 104 -62 160 -89 56 -28 113 -56 127 -64 38
-21 139 -65 149 -65 5 0 14 -7 21 -15 7 -8 19 -15 26 -15 8 0 42 -13 76 -28
35 -16 90 -37 123 -48 33 -10 65 -22 71 -26 6 -4 39 -17 73 -28 51 -16 66 -17
82 -7 28 17 33 49 20 110 -7 29 -16 73 -21 99 -5 26 -13 56 -19 67 -6 11 -11
35 -11 53 0 18 -7 58 -15 88 -8 30 -15 85 -15 121 0 42 -5 72 -15 85 -8 10
-15 26 -15 34 0 9 -19 37 -42 62 -34 37 -62 55 -129 82 -48 19 -113 49 -145
67 -33 17 -93 50 -134 71 -41 22 -80 44 -85 48 -6 5 -55 31 -110 59 -93 47
-196 111 -418 258 -48 32 -96 63 -106 68 -9 6 -39 28 -67 50 -27 23 -67 54
-89 70 -22 16 -56 42 -76 59 -20 17 -74 63 -120 101 -115 97 -368 355 -437
445 -31 41 -67 83 -79 93 -12 9 -32 34 -44 55 -12 20 -32 48 -44 62 -19 22
-48 67 -91 141 -18 32 -23 33 -29 6z"/>
<path d="M12797 11067 c-99 -164 -283 -385 -477 -573 -196 -190 -230 -219
-445 -379 -55 -41 -121 -90 -146 -109 -25 -18 -59 -41 -75 -50 -16 -9 -42 -25
-59 -36 -16 -11 -37 -23 -45 -26 -8 -4 -24 -15 -35 -25 -31 -27 -200 -127
-305 -181 -52 -27 -131 -69 -175 -93 -44 -25 -105 -57 -135 -71 -131 -62 -181
-84 -189 -84 -5 0 -28 -21 -52 -47 -36 -42 -45 -59 -60 -133 -10 -47 -18 -104
-19 -127 0 -23 -5 -54 -11 -70 -6 -15 -15 -57 -19 -93 -5 -36 -16 -96 -25
-135 -28 -119 -29 -124 -10 -145 24 -26 63 -25 129 4 29 13 68 27 85 31 17 3
33 11 36 16 4 5 15 9 27 9 11 0 32 6 46 14 43 23 99 46 111 46 6 0 33 14 59
30 27 17 54 30 60 30 6 0 25 8 44 17 18 9 41 20 51 25 10 5 37 18 60 29 45 22
51 25 132 69 47 25 112 66 190 117 170 112 180 119 285 202 114 91 256 218
319 286 25 27 70 74 99 105 102 106 213 264 349 495 71 121 177 409 202 552 6
29 15 61 20 72 6 11 11 33 11 49 0 16 7 49 15 72 19 53 20 170 3 170 -7 0 -30
-28 -51 -63z"/>
<path d="M5806 10258 c-8 -18 -11 -42 -7 -57 l7 -26 935 0 934 0 6 45 c5 35 3
48 -9 58 -12 9 -215 12 -934 12 l-919 0 -13 -32z"/>
<path d="M12380 9672 c0 -17 -223 -247 -317 -328 -26 -23 -70 -61 -98 -86 -27
-24 -97 -77 -155 -118 -58 -41 -127 -90 -155 -109 -49 -36 -73 -51 -110 -71
-11 -6 -33 -19 -50 -30 -16 -11 -39 -24 -50 -30 -11 -6 -47 -26 -80 -45 -55
-32 -158 -83 -245 -123 -19 -8 -53 -24 -75 -35 -62 -31 -67 -34 -107 -51 -20
-9 -41 -16 -47 -16 -6 0 -19 -4 -29 -9 -38 -21 -109 -50 -152 -61 -25 -7 -65
-19 -90 -26 -25 -8 -64 -19 -88 -24 -30 -8 -56 -25 -92 -62 -28 -28 -50 -57
-50 -64 0 -12 -21 -66 -41 -106 -5 -10 -9 -23 -9 -28 0 -17 -128 -268 -167
-327 -10 -15 -23 -42 -30 -61 -10 -29 -8 -36 10 -58 22 -24 23 -24 107 -14 47
5 103 14 125 19 22 6 74 17 115 27 78 17 137 37 182 60 14 8 33 14 41 14 9 0
28 7 44 15 15 8 69 33 118 56 143 65 247 119 282 145 17 13 36 24 42 24 5 0
16 6 23 13 7 7 75 59 151 116 178 134 452 403 574 563 15 20 57 74 92 120 35
46 86 123 114 173 27 49 59 103 70 119 26 36 57 97 57 110 0 5 6 17 14 25 14
17 116 262 116 280 0 6 -9 11 -20 11 -11 0 -20 -4 -20 -8z"/>
<path d="M1080 9646 c0 -14 5 -28 10 -31 6 -3 10 -16 10 -27 0 -12 14 -51 31
-87 18 -36 52 -109 77 -161 25 -52 55 -108 67 -125 11 -16 49 -76 84 -132 35
-56 72 -110 82 -119 11 -9 19 -21 19 -26 0 -5 28 -43 63 -84 34 -42 77 -94 95
-117 138 -172 471 -466 660 -582 9 -5 41 -26 72 -46 53 -34 201 -109 216 -109
4 0 28 -13 54 -29 25 -16 61 -32 78 -36 18 -3 34 -11 37 -16 4 -5 15 -9 26 -9
11 0 30 -5 42 -12 34 -19 88 -39 132 -48 22 -5 69 -16 105 -25 98 -25 262 -44
282 -34 35 19 39 43 13 90 -13 24 -38 71 -55 104 -17 33 -35 67 -40 75 -10 17
-97 203 -110 235 -60 147 -110 202 -212 227 -88 23 -199 56 -223 67 -11 5 -45
19 -75 31 -85 33 -87 34 -225 99 -186 89 -325 160 -360 186 -16 12 -37 25 -45
28 -8 4 -28 16 -45 27 -16 11 -39 24 -50 30 -24 12 -64 38 -96 63 -98 74 -214
157 -219 157 -19 0 -331 295 -425 403 -55 62 -75 71 -75 33z"/>
<path d="M2140 8051 c0 -4 24 -38 53 -76 28 -37 59 -77 67 -89 31 -44 221
-212 330 -292 30 -22 84 -58 120 -79 36 -21 81 -48 100 -60 41 -24 146 -74
210 -99 48 -19 83 -33 143 -60 21 -9 45 -16 55 -16 9 0 37 -6 62 -14 145 -47
450 -63 520 -28 62 30 54 55 -47 147 -48 44 -115 110 -148 146 -74 82 -107 99
-188 99 -66 0 -242 21 -317 38 -25 6 -72 15 -105 22 -70 13 -161 41 -290 87
-54 20 -152 62 -199 86 -74 37 -173 91 -186 100 -17 13 -42 28 -101 59 -21 11
-42 24 -45 29 -7 11 -34 12 -34 0z"/>
<path d="M11295 8035 c-22 -13 -67 -38 -100 -56 -33 -17 -67 -37 -75 -44 -8
-7 -40 -24 -70 -39 -30 -14 -62 -30 -70 -35 -52 -29 -80 -41 -97 -41 -10 0
-24 -5 -31 -12 -12 -12 -63 -33 -117 -48 -28 -8 -71 -22 -120 -40 -22 -9 -140
-34 -225 -49 -30 -5 -82 -15 -115 -21 -33 -6 -107 -14 -165 -17 -62 -3 -117
-12 -135 -21 -16 -8 -86 -71 -155 -141 -69 -69 -135 -134 -147 -144 -29 -21
-29 -58 -2 -83 18 -16 40 -19 162 -22 142 -4 273 11 376 44 25 8 53 14 63 14
11 0 46 14 80 30 33 17 66 30 74 30 8 0 22 4 32 9 9 5 53 26 97 45 44 20 87
41 95 46 8 5 29 16 45 24 43 19 222 142 302 206 147 118 353 347 341 379 -1 5
-21 -1 -43 -14z"/>
<path d="M10395 7167 c-22 -5 -54 -16 -72 -23 -17 -8 -38 -14 -46 -14 -9 0
-42 -6 -74 -14 -171 -41 -415 -46 -573 -12 -198 43 -200 43 -292 -11 -32 -19
-87 -48 -121 -65 -147 -71 -160 -86 -112 -130 29 -27 88 -58 170 -88 33 -13
69 -27 80 -32 35 -16 303 -4 365 16 30 10 71 21 90 26 117 28 361 143 430 203
11 9 24 17 28 17 4 0 34 20 67 45 33 25 63 45 66 45 4 0 14 11 23 25 9 14 15
24 14 24 -2 -1 -21 -6 -43 -12z"/>
<path d="M3070 7154 c0 -8 12 -20 28 -28 15 -8 36 -23 46 -35 11 -12 23 -21
27 -21 4 0 38 -20 74 -46 63 -43 213 -124 282 -152 61 -25 143 -52 158 -52 8
0 23 -4 33 -9 83 -43 346 -58 434 -25 214 79 265 115 245 168 -3 8 -46 34 -94
57 -48 24 -101 52 -117 63 -91 62 -163 78 -236 52 -25 -9 -58 -16 -75 -16 -16
0 -52 -7 -79 -15 -95 -29 -335 -19 -506 22 -36 8 -76 17 -90 20 -14 2 -34 8
-45 13 -36 16 -85 18 -85 4z"/>
<path d="M717 6164 c-24 -24 329 -401 463 -494 19 -14 46 -35 60 -48 14 -13
41 -32 60 -42 19 -11 46 -28 60 -39 35 -28 18 -54 -41 -61 -24 -3 -54 -11 -66
-18 -12 -7 -37 -12 -55 -12 -18 0 -55 -7 -82 -15 -27 -8 -68 -15 -92 -15 -24
0 -69 -7 -101 -15 -31 -8 -93 -15 -138 -15 -104 0 -116 -8 -75 -49 18 -17 46
-38 64 -46 17 -8 54 -28 81 -44 50 -30 220 -115 305 -153 25 -11 52 -24 60
-27 8 -4 62 -22 120 -40 58 -18 121 -39 140 -46 58 -21 141 -43 215 -56 96
-17 414 -24 429 -9 7 7 13 140 16 425 6 465 0 433 85 478 36 19 55 22 171 20
98 -1 140 -5 162 -17 17 -9 44 -16 60 -16 16 0 49 -7 73 -16 32 -11 87 -16
204 -17 151 -2 162 -1 197 21 20 12 39 30 42 39 10 26 -44 85 -95 104 -148 55
-139 54 -514 52 -207 -1 -369 -6 -397 -12 -74 -17 -438 -25 -553 -12 -55 7
-145 16 -201 21 -55 5 -113 14 -128 20 -15 5 -41 10 -57 10 -17 0 -40 5 -52
12 -12 6 -38 15 -57 19 -19 4 -48 12 -65 17 -16 6 -57 18 -90 28 -33 10 -64
21 -70 25 -7 5 -124 49 -130 49 -1 0 -4 -3 -8 -6z"/>
<path d="M12720 6163 c-8 -4 -35 -15 -60 -26 -74 -33 -143 -56 -170 -57 -14 0
-34 -7 -44 -15 -11 -8 -31 -15 -45 -15 -14 -1 -37 -7 -51 -15 -14 -8 -42 -14
-62 -15 -20 0 -49 -5 -65 -11 -15 -6 -71 -15 -123 -19 -52 -5 -140 -14 -195
-20 -116 -14 -467 -7 -560 11 -37 7 -197 12 -415 13 -320 1 -358 -1 -385 -16
-16 -10 -42 -18 -57 -18 -15 0 -30 -4 -33 -10 -3 -5 -14 -10 -24 -10 -24 0
-91 -71 -91 -98 0 -15 12 -28 43 -44 39 -21 53 -23 197 -21 112 1 167 6 199
17 24 9 56 16 71 16 15 0 45 7 66 16 27 11 74 16 163 17 146 2 197 -13 232
-69 19 -31 20 -55 26 -441 4 -280 9 -410 17 -415 21 -14 328 -9 386 7 30 8 70
15 89 15 35 0 118 24 163 46 14 8 34 14 44 14 17 0 84 21 129 41 11 5 43 16
70 24 28 9 82 32 122 51 39 19 77 34 83 34 6 0 26 11 43 24 18 13 57 36 87 50
30 15 69 36 85 46 17 10 48 29 71 40 49 26 73 58 52 71 -7 5 -44 9 -83 9 -38
0 -106 6 -150 15 -91 16 -184 32 -269 44 -32 5 -63 14 -69 20 -6 6 -27 11 -47
11 -36 0 -60 14 -60 36 0 6 35 35 78 65 42 29 82 58 87 65 6 6 28 23 50 37 79
49 455 448 455 482 0 6 -30 5 -50 -2z"/>
<path d="M2304 5786 c-68 -12 -94 -28 -94 -58 0 -18 45 -67 63 -68 4 0 35 -13
70 -29 66 -30 182 -61 232 -61 17 -1 41 -7 55 -15 14 -8 46 -14 71 -15 26 0
66 -7 89 -15 23 -8 77 -15 119 -15 42 0 94 -5 116 -10 22 -5 43 -6 48 -1 14
14 37 123 37 177 l0 55 -37 -8 c-21 -4 -105 -7 -186 -6 -145 1 -168 5 -282 45
-16 6 -69 14 -118 19 -48 4 -95 10 -105 12 -9 2 -45 -1 -78 -7z"/>
<path d="M10970 5781 c-36 -3 -75 -12 -87 -19 -12 -6 -33 -12 -46 -12 -13 0
-37 -6 -53 -14 -39 -19 -252 -30 -339 -17 -38 6 -71 8 -74 5 -16 -15 13 -206
33 -223 6 -6 30 -6 56 -1 25 5 77 9 116 10 39 0 91 7 114 15 23 8 59 15 80 15
21 0 54 7 73 15 20 8 52 15 70 15 19 0 54 7 77 15 23 8 53 15 65 15 13 0 36 6
52 14 15 8 50 25 76 38 49 23 87 60 87 83 0 6 -9 20 -19 29 -22 20 -168 29
-281 17z"/>
<path d="M2207 5613 c-3 -5 -7 -213 -9 -463 l-3 -455 28 -47 c71 -118 242
-216 432 -247 28 -5 68 -14 90 -21 22 -6 60 -10 84 -8 40 3 46 6 53 33 4 17
11 104 14 195 5 145 12 193 40 289 3 8 12 11 26 8 12 -4 32 1 47 12 14 9 50
30 80 45 30 16 62 32 70 36 9 5 43 16 76 25 33 9 69 20 80 25 39 15 132 40
151 40 10 0 33 8 49 18 17 11 59 28 95 40 74 25 130 68 130 99 0 76 -239 162
-510 183 -63 5 -135 13 -160 19 -25 6 -75 11 -111 11 -36 0 -88 7 -115 15 -27
8 -74 15 -104 15 -30 0 -71 5 -90 11 -19 6 -60 14 -90 19 -30 5 -77 15 -105
24 -27 8 -81 24 -119 35 -38 11 -76 27 -86 36 -18 16 -36 19 -43 8z"/>
<path d="M11220 5601 c-23 -18 -97 -42 -180 -60 -19 -4 -45 -13 -57 -19 -12
-7 -37 -12 -55 -12 -18 0 -58 -7 -88 -15 -30 -8 -80 -15 -110 -15 -30 0 -77
-7 -104 -15 -27 -8 -74 -15 -105 -15 -31 0 -96 -7 -146 -15 -49 -8 -117 -15
-150 -15 -33 0 -82 -7 -109 -15 -27 -8 -64 -15 -82 -15 -18 0 -35 -4 -38 -9
-3 -5 -23 -12 -43 -16 -66 -11 -120 -33 -167 -67 -88 -62 -55 -106 132 -174
53 -20 122 -42 152 -50 167 -44 268 -78 325 -110 118 -65 140 -81 147 -105 3
-13 12 -46 19 -74 7 -27 16 -131 19 -230 l5 -180 59 -3 c32 -2 73 2 90 8 17 6
54 15 81 20 150 25 300 95 381 178 88 90 85 72 82 587 -3 490 -2 478 -58 436z"/>
<path d="M3700 5116 c-46 -26 -105 -52 -150 -65 -25 -8 -63 -19 -85 -26 -22
-7 -65 -18 -95 -25 -30 -7 -79 -23 -108 -36 -29 -13 -56 -24 -61 -24 -45 0
-211 -109 -211 -138 0 -30 89 -155 142 -199 52 -43 222 -123 262 -123 13 0 40
-7 60 -15 20 -9 40 -14 44 -11 4 2 37 -2 72 -9 97 -21 157 -19 170 5 14 26 9
672 -5 677 -5 1 -21 -4 -35 -11z"/>
<path d="M9732 4783 l3 -348 65 1 c36 0 103 8 150 18 47 9 103 21 125 26 105
22 210 75 282 142 54 52 133 165 133 192 0 23 -49 63 -115 95 -93 44 -185 81
-203 81 -14 0 -62 13 -242 67 -30 9 -80 29 -111 45 -97 48 -90 76 -87 -319z"/>
<path d="M6570 3694 c-103 -8 -100 -5 -100 -87 0 -39 5 -90 11 -112 5 -22 14
-71 18 -110 15 -116 33 -208 47 -242 8 -17 14 -36 14 -43 0 -13 56 -128 72
-148 18 -21 84 -52 111 -52 41 0 100 52 135 120 38 71 72 172 72 211 0 15 7
46 15 69 8 23 15 59 15 79 0 20 7 58 15 85 20 66 20 212 0 219 -19 8 -354 16
-425 11z"/>
<path d="M6150 3658 c-47 -5 -114 -15 -150 -23 -36 -8 -78 -16 -95 -19 -70
-12 -145 -32 -155 -42 -19 -19 -60 -138 -60 -176 0 -51 23 -62 108 -54 130 13
236 70 353 187 77 78 106 117 93 127 -5 4 -47 4 -94 0z"/>
<path d="M7237 3654 c-12 -12 21 -58 85 -120 130 -127 261 -194 375 -194 77 0
93 11 93 65 0 24 -4 46 -9 49 -4 3 -19 33 -31 66 -18 49 -28 61 -49 66 -14 3
-44 10 -66 15 -22 6 -62 14 -90 19 -27 4 -68 12 -90 18 -52 13 -209 25 -218
16z"/>
</g>
</svg>
