<?xml version="1.0" standalone="no"?>
<!DOCTYPE svg PUBLIC "-//W3C//DTD SVG 20010904//EN"
 "http://www.w3.org/TR/2001/REC-SVG-20010904/DTD/svg10.dtd">
<svg version="1.0" xmlns="http://www.w3.org/2000/svg"
 width="1350.000000pt" height="1350.000000pt" viewBox="0 0 1350.000000 1350.000000"
 preserveAspectRatio="xMidYMid meet">
<metadata>
Created by potrace 1.10, written by Peter Selinger 2001-2011
</metadata>
<g transform="translate(0.000000,1350.000000) scale(0.100000,-0.100000)"
fill="#000000" stroke="none">
<path d="M207 12293 c-4 -48 -3 -126 3 -173 5 -47 12 -110 15 -140 10 -91 65
-292 118 -430 41 -105 132 -289 188 -375 10 -16 22 -37 26 -45 4 -8 25 -41 48
-75 23 -33 64 -91 90 -130 162 -236 515 -615 825 -885 47 -41 101 -89 120
-106 19 -18 58 -50 85 -72 28 -22 79 -64 115 -93 56 -46 391 -301 461 -351
151 -107 280 -196 314 -218 13 -8 61 -40 107 -71 46 -31 121 -81 168 -111 47
-30 123 -79 170 -110 47 -30 118 -74 158 -99 40 -24 85 -52 100 -61 15 -10 36
-22 47 -28 24 -13 46 -27 102 -63 24 -15 45 -27 47 -27 3 0 22 -12 43 -26 21
-14 47 -30 58 -35 11 -5 34 -18 50 -29 17 -11 39 -24 50 -30 11 -6 34 -19 50
-30 17 -11 37 -23 45 -27 34 -15 117 -68 138 -87 13 -12 33 -39 44 -61 19 -37
20 -56 19 -310 -1 -193 3 -303 14 -385 8 -63 15 -131 15 -150 0 -19 7 -69 15
-110 9 -41 23 -109 32 -150 8 -41 20 -88 25 -105 6 -16 14 -46 18 -65 8 -33
14 -53 45 -140 37 -102 114 -268 159 -345 49 -84 162 -239 220 -304 97 -106
319 -274 439 -331 27 -12 52 -32 57 -44 14 -37 27 -105 22 -111 -13 -13 -49
-2 -130 41 -327 172 -586 443 -757 792 -32 64 -62 125 -66 134 -16 33 -66 178
-92 268 -51 175 -65 246 -95 480 -20 155 -35 447 -27 554 9 140 -4 195 -62
254 -24 23 -53 47 -65 52 -13 6 -30 14 -38 20 -140 89 -574 340 -590 340 -11
0 -39 -17 -61 -38 l-41 -38 1 -219 c1 -300 44 -683 103 -925 6 -25 14 -63 18
-85 3 -22 11 -56 18 -75 6 -19 18 -62 28 -95 9 -33 23 -75 30 -93 8 -18 14
-39 14 -47 0 -8 6 -29 14 -47 8 -18 22 -53 32 -78 119 -307 300 -591 515 -810
41 -41 97 -93 124 -115 28 -21 55 -44 60 -51 15 -17 171 -124 255 -175 97 -58
277 -146 375 -182 153 -57 177 -65 245 -84 30 -8 78 -21 105 -29 28 -8 77 -19
110 -25 69 -12 86 -24 114 -85 32 -68 30 -74 -31 -68 -62 6 -223 45 -313 76
-16 5 -43 14 -60 18 -16 5 -50 16 -75 25 -58 21 -105 14 -144 -23 -107 -100
-227 -164 -373 -198 -85 -19 -99 -33 -47 -45 16 -4 65 -17 109 -29 44 -12 99
-26 123 -31 23 -5 51 -13 61 -19 11 -5 30 -10 42 -10 12 0 45 -6 73 -14 87
-25 219 -57 376 -92 41 -9 100 -22 130 -29 71 -17 196 -43 236 -49 20 -3 45 2
68 15 74 39 74 23 -1 -90 -105 -158 -173 -240 -334 -404 -83 -84 -103 -109
-93 -118 22 -18 127 -22 214 -9 44 7 83 10 85 8 5 -5 -12 -41 -45 -93 -10 -16
-28 -48 -40 -70 -12 -22 -35 -59 -51 -83 -16 -24 -29 -45 -29 -47 0 -9 -94
-141 -114 -160 -72 -70 -146 -58 -311 49 -33 22 -91 54 -128 73 -59 30 -79 35
-139 35 -43 0 -76 -5 -86 -14 -9 -7 -33 -22 -52 -32 -54 -29 -81 -57 -106
-111 -23 -49 -32 -129 -16 -139 5 -3 27 14 50 38 75 78 166 85 305 22 45 -20
40 -36 -12 -36 -62 0 -175 -40 -225 -80 -22 -18 -66 -85 -66 -101 0 -7 -12
-37 -27 -68 -34 -73 -40 -136 -18 -198 20 -57 58 -108 73 -99 6 3 16 32 23 64
23 105 80 189 166 239 52 30 200 66 223 53 13 -7 12 -10 -5 -16 -52 -19 -145
-107 -176 -167 -18 -33 -20 -53 -16 -145 2 -59 8 -119 12 -134 8 -31 14 -29
-95 -52 -197 -41 -284 -50 -510 -50 -185 -1 -238 3 -295 17 -222 57 -295 95
-413 215 -52 51 -97 91 -100 87 -4 -4 -7 -253 -7 -553 l0 -547 29 -60 c40 -81
151 -190 236 -232 120 -58 193 -81 318 -98 173 -25 416 -17 627 20 44 8 94 16
110 18 17 2 53 10 80 17 28 6 77 19 110 27 80 20 163 42 200 55 17 5 46 14 65
18 19 4 71 20 115 34 44 15 105 34 135 43 30 9 73 22 95 28 62 19 144 42 215
60 36 9 85 23 110 31 25 8 54 14 64 14 11 0 42 6 70 14 129 36 395 87 606 116
41 5 187 17 324 26 232 15 268 15 505 0 141 -9 290 -21 331 -27 195 -26 485
-81 606 -115 28 -8 58 -14 66 -14 9 0 38 -6 64 -14 27 -8 78 -22 114 -31 64
-17 94 -25 215 -61 77 -22 128 -37 245 -74 102 -32 168 -52 252 -74 29 -8 78
-22 109 -30 31 -9 64 -16 74 -16 10 0 41 -6 69 -14 120 -34 388 -66 557 -66
250 0 396 34 597 139 47 25 146 134 181 200 l34 65 1 547 c1 384 -2 551 -10
559 -8 8 -18 0 -36 -27 -74 -110 -191 -195 -333 -241 -155 -50 -200 -56 -430
-56 -225 -1 -333 10 -530 54 -68 15 -80 20 -77 36 21 151 23 217 7 263 -20 60
-70 120 -142 168 -41 27 -51 38 -41 44 21 12 158 -24 219 -57 87 -48 169 -181
169 -274 0 -55 18 -51 60 12 32 50 34 58 34 138 -1 76 -4 92 -32 145 -18 33
-32 67 -32 75 0 19 -63 81 -105 103 -50 26 -126 47 -172 47 -52 0 -58 20 -10
38 52 21 136 42 167 42 41 0 110 -33 144 -69 17 -17 34 -31 39 -31 19 0 -1
129 -25 163 -33 46 -51 67 -60 67 -4 0 -30 14 -58 31 -43 26 -59 30 -117 30
-69 0 -118 -16 -188 -61 -16 -11 -39 -24 -50 -30 -11 -6 -33 -19 -50 -30 -49
-33 -128 -69 -162 -76 -46 -9 -77 1 -117 37 -35 30 -133 169 -163 229 -4 8
-33 58 -65 111 -32 53 -58 102 -58 109 0 8 15 9 58 3 92 -13 217 -10 236 6 15
13 8 22 -71 100 -81 78 -121 122 -193 207 -81 95 -210 284 -210 308 0 21 18
20 42 -1 24 -21 101 -21 185 0 32 9 94 23 138 32 78 16 137 30 240 55 28 7 68
16 90 20 22 4 60 12 85 19 25 7 71 19 103 27 141 35 185 46 232 59 28 7 79 21
115 30 95 25 94 25 84 34 -10 9 -126 41 -149 41 -46 0 -214 99 -291 172 -58
55 -87 57 -219 14 -260 -85 -430 -121 -441 -93 -6 15 38 96 65 121 10 9 42 21
72 25 30 5 88 19 129 31 41 12 91 25 110 30 33 8 53 14 140 45 65 24 265 109
310 133 151 80 309 180 388 246 177 147 277 250 386 396 77 104 74 99 144 215
60 100 143 272 187 385 9 25 23 60 31 78 8 18 14 39 14 47 0 8 6 29 14 47 56
134 145 567 167 808 4 52 13 138 18 190 6 52 11 181 11 286 l0 191 -35 36
c-57 59 -79 57 -186 -11 -15 -9 -53 -33 -85 -52 -33 -19 -68 -40 -79 -47 -11
-7 -29 -17 -40 -23 -11 -6 -33 -19 -50 -30 -16 -11 -39 -24 -50 -30 -11 -6
-33 -19 -50 -30 -16 -11 -37 -23 -45 -27 -47 -21 -174 -106 -194 -130 -14 -15
-29 -46 -35 -68 -6 -22 -13 -168 -15 -325 -4 -283 -19 -458 -52 -597 -8 -34
-14 -71 -14 -84 0 -12 -7 -47 -16 -78 -9 -31 -23 -81 -31 -111 -26 -90 -75
-233 -92 -268 -4 -9 -15 -33 -23 -52 -157 -357 -425 -667 -733 -846 -53 -31
-162 -83 -180 -86 -22 -3 -23 10 -9 82 9 46 15 53 77 86 76 40 86 46 150 88
74 47 207 162 272 233 62 69 164 196 165 205 0 4 17 33 38 65 55 82 136 253
186 391 31 87 38 109 46 142 4 19 12 49 18 65 24 75 63 295 84 480 7 62 13
237 13 400 1 285 2 291 24 330 20 33 98 105 115 105 2 0 62 34 131 75 70 41
129 75 131 75 2 0 20 12 41 26 21 14 47 30 58 35 11 5 32 17 47 27 24 15 294
182 336 207 30 18 104 66 192 124 47 31 89 58 93 60 9 3 205 135 357 239 52
36 120 84 150 107 30 23 73 54 95 69 47 31 129 90 176 128 19 14 72 56 119 93
256 200 546 451 694 601 471 478 711 807 890 1219 42 96 81 217 116 355 32
130 51 482 28 506 -10 9 -38 -15 -38 -33 0 -37 -160 -333 -242 -448 -99 -138
-154 -213 -174 -235 -12 -14 -48 -56 -80 -95 -147 -177 -435 -461 -687 -677
-138 -118 -170 -144 -352 -290 -77 -62 -294 -225 -345 -261 -30 -20 -94 -66
-215 -152 -92 -65 -492 -336 -510 -345 -5 -3 -48 -30 -95 -61 -47 -30 -113
-73 -148 -95 -35 -21 -74 -46 -87 -54 -89 -56 -213 -133 -230 -143 -10 -7 -37
-23 -60 -37 -22 -13 -49 -30 -60 -37 -11 -7 -29 -17 -40 -23 -11 -6 -33 -19
-50 -30 -16 -11 -39 -24 -50 -30 -11 -6 -33 -19 -50 -30 -16 -11 -37 -23 -45
-27 -8 -4 -91 -52 -185 -108 -93 -55 -177 -104 -185 -108 -8 -4 -28 -16 -45
-27 -16 -11 -37 -23 -45 -27 -18 -8 -159 -89 -180 -103 -8 -6 -22 -13 -30 -17
-8 -4 -47 -26 -86 -50 -39 -24 -74 -43 -77 -43 -4 0 -23 -12 -44 -26 -21 -14
-47 -30 -58 -35 -11 -5 -33 -18 -50 -29 -16 -11 -39 -24 -50 -30 -11 -6 -32
-18 -47 -28 -15 -9 -57 -36 -95 -59 -120 -75 -238 -182 -312 -283 -80 -108
-105 -163 -127 -285 -29 -157 22 -308 149 -435 40 -40 81 -76 92 -81 11 -5 34
-18 50 -28 17 -11 49 -29 72 -41 64 -32 106 -95 129 -189 17 -73 17 -121 0
-205 -17 -77 -47 -123 -115 -171 -42 -29 -46 -30 -159 -30 -95 1 -129 5 -179
23 -68 24 -170 72 -218 102 -16 11 -40 25 -52 32 -153 91 -338 247 -442 373
-61 73 -114 147 -134 185 -4 8 -16 29 -26 45 -11 17 -36 62 -55 101 -57 111
-47 170 30 194 16 4 54 18 84 30 186 71 320 99 391 80 38 -11 44 -10 57 7 18
25 7 137 -19 179 -59 97 -146 133 -357 148 -81 6 -86 8 -133 49 -123 107 -323
167 -562 167 -71 0 -159 5 -198 11 -38 6 -74 9 -80 7 -7 -2 2 -18 20 -35 17
-17 31 -33 31 -36 0 -8 -207 -92 -250 -101 -35 -7 -64 -31 -56 -44 4 -7 22
-12 39 -12 18 0 37 -4 44 -8 15 -10 -58 -119 -139 -207 -35 -37 -65 -72 -67
-77 -2 -6 15 -9 43 -6 l47 3 -6 -35 c-4 -19 -13 -47 -21 -62 -8 -15 -14 -32
-14 -38 0 -7 -16 -44 -35 -83 -19 -39 -35 -74 -35 -79 0 -14 37 -9 50 7 14 17
50 20 50 4 0 -29 -72 -140 -128 -197 l-63 -65 21 -21 c21 -23 26 -51 11 -60
-5 -3 -19 -25 -31 -48 -55 -107 -218 -280 -345 -368 -161 -112 -355 -189 -475
-190 -114 0 -224 71 -279 181 -29 59 -31 69 -31 176 0 94 3 121 20 153 28 54
79 103 136 130 27 13 74 43 106 67 58 44 158 150 158 167 0 5 6 17 13 25 8 9
22 39 33 66 28 75 27 259 -3 336 -62 162 -156 275 -348 421 -51 38 -507 318
-519 318 -4 0 -199 112 -226 130 -8 6 -22 13 -30 17 -8 4 -59 33 -113 65 -54
32 -100 58 -102 58 -2 0 -21 12 -42 26 -21 14 -47 30 -58 35 -11 5 -33 18 -50
29 -16 10 -41 25 -55 32 -28 16 -356 214 -398 240 -15 10 -36 22 -47 28 -11 6
-32 18 -47 28 -29 18 -208 130 -236 147 -75 46 -166 106 -427 280 -165 110
-334 225 -375 255 -93 67 -493 365 -517 385 -17 14 -101 82 -208 167 -27 22
-66 54 -85 72 -20 17 -65 56 -100 86 -157 132 -477 449 -616 610 -121 140
-334 425 -334 447 0 4 -6 14 -14 22 -15 18 -59 97 -106 191 -18 36 -39 77 -46
92 -8 14 -14 32 -14 40 0 8 -11 24 -24 37 l-23 22 -6 -88z m7263 -4032 c0 -10
-9 -30 -20 -44 -11 -14 -20 -29 -20 -34 0 -14 -49 -58 -56 -51 -3 4 1 17 9 30
8 12 17 38 21 57 3 19 11 40 17 48 17 20 49 16 49 -6z m199 0 c22 -14 -5 -23
-46 -15 -31 6 -34 8 -18 15 27 10 47 10 64 0z m-6 -218 c-13 -2 -35 -2 -50 0
-16 2 -5 4 22 4 28 0 40 -2 28 -4z m-113 -22 c0 -10 -35 -21 -71 -21 -14 0
-34 -7 -45 -15 -10 -8 -37 -15 -59 -15 -22 0 -49 -7 -59 -15 -22 -16 -72 -20
-80 -6 -6 10 26 21 62 21 13 0 30 7 38 15 9 8 30 15 47 15 18 1 43 7 57 15 27
16 110 20 110 6z m-101 -3453 c57 -67 88 -110 205 -283 44 -64 59 -88 76 -120
6 -11 26 -47 45 -80 19 -33 59 -108 88 -167 28 -59 57 -107 62 -108 19 0 70
120 80 187 7 47 25 76 40 65 6 -4 26 -27 45 -52 19 -25 41 -52 49 -61 9 -9 41
-47 71 -84 30 -37 68 -82 83 -99 39 -43 69 -103 62 -125 -6 -21 -42 -53 -104
-96 -68 -46 -101 -98 -101 -157 l0 -50 -42 7 c-24 4 -65 13 -93 20 -89 24
-149 38 -195 45 -64 11 -157 29 -210 42 -25 6 -76 14 -115 19 -38 4 -101 12
-140 18 -283 39 -708 49 -950 23 -202 -22 -347 -42 -415 -57 -36 -8 -75 -15
-88 -15 -13 0 -53 -7 -90 -16 -37 -8 -98 -22 -137 -30 -38 -9 -93 -22 -121
-30 -28 -8 -67 -14 -87 -14 -37 0 -37 0 -37 43 0 60 -15 82 -100 152 -116 95
-122 122 -42 217 26 30 76 91 112 134 36 44 69 84 75 90 5 6 25 29 44 52 37
47 51 46 51 -1 0 -64 63 -220 88 -215 16 3 18 7 52 78 11 25 25 52 30 60 5 8
11 22 15 30 3 8 11 24 18 35 7 11 34 58 61 105 87 151 238 370 299 435 11 11
26 30 34 43 20 29 33 28 33 -3 0 -23 -6 -40 -46 -147 -8 -21 -20 -55 -28 -75
-39 -106 -96 -251 -121 -308 -7 -16 -23 -55 -35 -85 -37 -92 -111 -251 -196
-424 -30 -60 -52 -111 -49 -114 3 -3 22 0 44 6 21 7 48 12 61 12 12 0 52 6 89
14 452 98 1023 110 1531 34 41 -6 98 -15 125 -18 52 -8 131 -23 223 -42 28 -6
55 -8 58 -5 4 4 -18 57 -49 119 -62 127 -129 270 -182 393 -37 85 -49 113 -60
140 -14 33 -39 99 -62 160 -9 22 -22 58 -30 80 -49 131 -89 242 -100 278 -11
35 16 15 76 -55z m-2276 -1179 c65 -25 127 -73 112 -86 -5 -6 -39 -18 -75 -27
-36 -10 -80 -24 -98 -32 -18 -8 -41 -14 -52 -14 -11 0 -34 -6 -52 -14 -18 -8
-60 -22 -93 -32 -33 -9 -78 -23 -100 -29 -22 -7 -67 -21 -100 -30 -33 -9 -74
-21 -91 -26 -44 -13 -44 -13 -44 31 0 84 80 183 194 239 38 18 92 37 120 42
81 13 216 2 279 -22z m3581 4 c68 -23 149 -76 191 -125 49 -58 86 -178 54
-178 -21 0 -141 33 -289 80 -52 17 -120 38 -150 47 -30 9 -73 22 -95 28 -22 7
-67 21 -100 31 -33 10 -64 21 -68 25 -12 9 65 70 111 87 92 35 253 37 346 5z
m-1929 -277 c32 -24 35 -32 35 -77 0 -40 -5 -53 -25 -71 -31 -27 -32 -43 -2
-63 60 -39 63 -133 6 -188 -43 -41 -231 -66 -258 -33 -11 13 -32 416 -23 443
5 16 51 22 150 18 71 -2 87 -6 117 -29z m216 -141 c-3 -88 -5 -180 -5 -205
l-1 -45 87 -7 c98 -7 108 -11 108 -40 0 -21 -3 -21 -122 -15 -79 4 -126 11
-134 19 -11 10 -11 43 -4 158 5 80 10 180 10 223 l0 78 33 -3 32 -3 -4 -160z
m-607 139 c3 -9 6 -44 6 -79 0 -34 7 -128 15 -209 9 -81 13 -151 10 -156 -3
-6 -17 -10 -30 -10 -28 0 -30 8 -45 155 -6 61 -15 152 -21 203 -5 51 -7 98 -4
103 10 15 62 10 69 -7z m988 -16 c2 -6 -2 -45 -9 -87 -7 -42 -20 -132 -29
-201 -22 -175 -21 -170 -48 -170 -13 0 -26 6 -29 13 -5 14 8 174 18 216 4 13
10 68 15 122 4 54 11 103 15 108 8 15 62 14 67 -1z m-1205 -18 c35 -21 63 -66
63 -103 0 -13 -14 -45 -32 -71 -31 -48 -31 -48 -11 -65 29 -23 83 -134 83
-170 0 -22 -28 -36 -44 -22 -6 5 -19 26 -28 45 -10 20 -25 52 -35 72 -22 45
-62 67 -108 58 -51 -9 -56 -22 -40 -85 8 -29 15 -68 15 -85 0 -33 -21 -59 -41
-52 -13 4 -48 134 -49 181 0 15 -6 53 -14 85 -27 107 -38 184 -28 194 16 16
112 36 177 37 43 1 69 -4 92 -19z m1405 -17 c10 -9 18 -20 18 -25 0 -5 13 -36
29 -71 41 -88 88 -207 95 -239 9 -40 34 -35 44 10 5 20 15 60 22 87 7 28 16
70 20 95 13 70 27 100 49 100 35 0 44 -24 27 -77 -28 -91 -46 -160 -46 -179 0
-10 -6 -36 -14 -59 -8 -22 -17 -57 -21 -77 -3 -20 -14 -46 -23 -59 -15 -18
-22 -20 -38 -11 -19 10 -34 38 -70 135 -9 23 -22 56 -29 72 -7 17 -29 68 -48
115 -20 47 -39 85 -44 85 -4 0 -11 -22 -14 -50 -3 -27 -11 -79 -18 -115 -7
-36 -17 -88 -22 -117 -12 -61 -28 -79 -53 -60 -16 11 -16 20 -7 72 24 142 41
243 47 289 9 77 20 96 50 96 15 0 36 -7 46 -17z m-1742 -33 c0 -23 -28 -40
-67 -40 -16 0 -39 -7 -51 -16 -20 -14 -23 -22 -17 -58 3 -22 12 -63 20 -91 18
-67 35 -140 47 -199 8 -39 6 -52 -6 -64 -16 -16 -44 -10 -50 10 -2 7 -11 47
-20 88 -20 86 -40 162 -64 238 -13 46 -19 53 -36 48 -111 -28 -118 -28 -133
-13 -14 13 -13 17 8 30 25 16 121 43 199 57 25 5 56 13 70 19 14 5 42 10 63
10 30 1 37 -2 37 -19z m-440 -120 c0 -23 -35 -40 -83 -40 -47 0 -90 -38 -90
-80 0 -51 30 -70 112 -70 94 0 149 -29 175 -91 19 -46 19 -47 -3 -90 -25 -50
-64 -80 -134 -103 -60 -20 -91 -20 -107 -1 -22 27 -4 45 45 45 94 0 161 63
134 124 -18 39 -58 56 -131 56 -77 0 -125 23 -152 72 -18 33 -19 39 -6 78 22
67 105 119 193 120 41 0 47 -3 47 -20z m2831 5 c58 -17 129 -52 141 -69 23
-34 -27 -52 -61 -23 -28 24 -100 47 -147 47 -103 0 -176 -78 -177 -191 -1 -96
35 -142 146 -184 44 -17 49 -17 66 -1 18 16 41 78 41 110 0 10 -11 19 -30 23
-34 6 -53 32 -40 52 8 15 16 13 95 -16 58 -22 64 -38 40 -97 -10 -22 -24 -59
-33 -81 -27 -68 -30 -70 -114 -50 -131 32 -202 84 -232 171 -20 59 -20 82 -1
148 25 87 87 144 180 167 47 11 68 10 126 -6z"/>
<path d="M6650 3101 c-23 -6 -25 -13 -28 -65 -4 -78 7 -90 76 -83 81 9 121 54
92 106 -16 30 -95 54 -140 42z"/>
<path d="M6637 2893 c-12 -12 -8 -148 5 -161 17 -17 83 -15 118 3 59 30 67 91
19 136 -26 24 -40 29 -83 29 -29 0 -56 -3 -59 -7z"/>
<path d="M6038 3039 c-21 -12 -22 -45 -5 -114 13 -48 15 -50 50 -53 42 -4 100
26 118 60 16 30 2 84 -26 102 -27 18 -110 21 -137 5z"/>
<path d="M2532 12043 c-29 -11 4 -23 67 -23 110 0 225 -44 314 -121 42 -36
127 -158 127 -183 0 -18 -16 -22 -22 -5 -2 6 -30 11 -68 11 -64 0 -65 -1 -102
-43 -21 -24 -38 -49 -38 -56 0 -22 20 -25 28 -4 11 30 72 71 104 71 72 0 131
-64 154 -167 9 -38 18 -78 20 -91 3 -13 9 -20 14 -17 6 3 10 53 10 111 0 125
18 175 79 223 50 40 128 44 161 9 34 -37 35 -64 6 -108 -14 -22 -26 -42 -26
-45 0 -14 24 -1 51 27 24 27 29 41 29 83 -1 56 -17 83 -70 110 -68 35 -191 -7
-229 -79 -18 -34 -38 -33 -53 2 -24 56 -102 163 -142 195 -106 85 -169 107
-301 106 -55 0 -106 -3 -113 -6z"/>
<path d="M10858 12031 c-69 -25 -140 -74 -192 -132 -45 -50 -60 -73 -89 -135
-23 -49 -35 -50 -74 -5 -66 77 -147 100 -222 62 -55 -28 -65 -46 -65 -108 0
-50 3 -58 32 -84 42 -38 60 -28 27 15 -30 40 -32 75 -4 110 17 22 28 26 72 26
115 0 177 -91 177 -257 0 -112 18 -124 35 -22 19 114 80 189 155 189 36 0 106
-45 114 -74 2 -10 9 -15 14 -12 30 18 -50 115 -97 118 -46 3 -95 -3 -108 -14
-20 -17 -16 17 8 64 72 141 252 248 416 248 60 0 89 12 57 24 -34 13 -209 4
-256 -13z"/>
<path d="M1121 11966 c-27 -29 -22 -57 14 -76 20 -11 28 -10 50 4 29 19 32 42
9 74 -20 29 -45 28 -73 -2z"/>
<path d="M12461 11964 c-21 -27 -20 -35 7 -66 19 -23 45 -23 65 0 22 24 21 55
-1 75 -26 24 -47 21 -71 -9z"/>
<path d="M3090 11960 c-11 -11 -20 -27 -20 -35 0 -19 35 -55 54 -55 43 0 64
80 27 100 -28 14 -38 13 -61 -10z"/>
<path d="M10500 11960 c-24 -24 -25 -38 -4 -68 29 -42 84 -17 84 38 0 47 -46
64 -80 30z"/>
<path d="M1285 11869 c-30 -26 -35 -37 -35 -74 0 -108 149 -206 292 -191 48 5
63 3 76 -11 15 -15 17 -15 22 6 4 17 20 27 65 42 33 10 75 24 94 30 51 17 162
39 196 39 48 0 168 -28 204 -47 65 -36 74 -41 112 -78 56 -53 48 -27 -12 39
-53 58 -80 75 -169 107 -76 27 -219 26 -320 -2 -191 -54 -188 -54 -210 -34
-11 10 -20 23 -20 30 0 24 -112 135 -157 155 -64 28 -96 26 -138 -11z m176
-66 c48 -41 78 -75 96 -109 13 -27 2 -34 -58 -34 -109 0 -223 97 -189 160 8
16 21 20 59 20 40 0 54 -6 92 -37z"/>
<path d="M12232 11880 c-45 -20 -152 -121 -152 -144 0 -7 -10 -22 -23 -34 -21
-19 -29 -21 -68 -13 -24 5 -57 14 -74 19 -93 32 -150 42 -236 42 -94 0 -195
-22 -221 -48 -7 -7 -18 -12 -25 -12 -15 0 -123 -104 -123 -119 0 -6 29 11 64
39 35 27 68 50 74 50 6 0 23 6 39 14 31 16 132 36 179 36 55 0 195 -34 272
-66 18 -8 42 -14 53 -14 12 0 23 -8 26 -20 6 -22 18 -26 28 -10 4 7 28 8 65 4
85 -9 190 25 245 81 75 74 73 160 -5 200 -38 20 -66 19 -118 -5z m116 -87 c3
-37 -1 -43 -35 -70 -21 -16 -54 -37 -75 -46 -40 -19 -133 -23 -143 -7 -9 14
57 101 101 135 41 32 87 44 124 35 21 -5 26 -13 28 -47z"/>
<path d="M2282 11844 c-27 -18 -29 -55 -4 -77 24 -22 45 -21 65 1 23 26 21 58
-5 76 -12 9 -25 16 -28 16 -3 0 -16 -7 -28 -16z"/>
<path d="M11323 11848 c-26 -12 -32 -65 -11 -86 19 -19 55 -14 72 10 21 30 20
44 -4 68 -23 23 -26 23 -57 8z"/>
<path d="M2495 11793 c-45 -23 -65 -44 -81 -82 -28 -67 -13 -133 45 -194 39
-43 98 -64 197 -71 49 -4 104 -12 122 -18 24 -7 37 -7 44 0 8 8 2 13 -18 18
-16 4 -38 13 -49 20 -11 8 -36 14 -56 14 -53 0 -160 36 -189 63 -14 13 -34 39
-44 59 -23 43 -17 76 22 120 24 26 36 31 75 32 41 1 50 -3 72 -29 15 -19 26
-50 31 -85 5 -41 9 -50 15 -35 4 11 8 40 8 65 2 105 -103 171 -194 123z"/>
<path d="M11010 11772 c-37 -36 -40 -43 -40 -90 0 -60 16 -69 26 -14 13 72 71
106 137 78 60 -24 83 -96 52 -156 -30 -58 -138 -110 -227 -110 -22 0 -52 -6
-66 -14 -15 -8 -36 -17 -46 -21 -14 -4 -16 -9 -9 -16 8 -8 21 -8 45 -1 18 6
74 14 123 18 102 7 146 25 199 80 104 107 33 284 -114 284 -32 0 -47 -7 -80
-38z"/>
<path d="M4055 11763 c-16 -9 -40 -26 -52 -38 -33 -32 -79 -133 -87 -188 -4
-27 -13 -50 -19 -51 -7 -2 -50 -11 -97 -21 -47 -9 -97 -23 -112 -31 -36 -19
-55 -18 -68 6 -6 11 -30 33 -53 48 -36 23 -52 27 -112 26 -81 0 -106 -12 -175
-85 -41 -43 -69 -87 -84 -131 -3 -10 -12 -18 -20 -18 -18 0 -111 55 -152 90
-41 35 -94 105 -94 123 0 22 -17 30 -24 12 -20 -53 85 -189 199 -256 l60 -35
6 -94 c6 -89 13 -114 52 -200 18 -39 70 -100 86 -100 6 0 11 -4 11 -10 0 -5 8
-10 18 -10 16 1 16 1 0 14 -10 7 -18 18 -18 25 0 6 -4 11 -9 11 -5 0 -25 33
-44 74 -29 58 -38 91 -43 154 -6 70 -5 82 9 88 29 11 154 -92 176 -146 6 -14
15 -32 20 -40 5 -8 13 -24 17 -35 7 -18 8 -17 12 8 9 70 -63 188 -146 238 -20
12 -47 31 -59 42 l-22 19 27 50 c54 100 137 168 206 168 47 0 126 -45 126 -72
0 -8 -20 -36 -45 -62 -25 -27 -45 -56 -45 -65 0 -9 -7 -25 -15 -35 -17 -22
-20 -73 -6 -95 7 -11 11 -4 16 25 7 42 9 47 30 83 18 31 74 91 86 91 5 0 17
-16 26 -35 21 -44 37 -34 29 20 -5 29 -3 45 6 52 23 18 142 45 183 41 36 -3
40 -6 43 -33 2 -16 8 -34 13 -39 5 -6 9 -24 9 -42 0 -18 3 -40 7 -50 13 -35
19 15 9 82 -11 76 1 97 67 115 53 14 141 102 156 155 22 79 12 133 -29 157
-34 20 -37 20 -75 0z m58 -64 c17 -27 -13 -106 -56 -149 -64 -65 -123 -64 -94
1 8 19 19 46 25 61 16 39 82 109 100 106 8 -2 19 -10 25 -19z"/>
<path d="M9529 11765 c-71 -38 -57 -163 30 -257 13 -16 30 -28 37 -28 6 0 17
-7 24 -15 7 -8 23 -15 36 -15 13 0 33 -9 45 -21 18 -18 20 -28 14 -79 -6 -56
0 -108 13 -96 3 3 10 41 16 83 l11 78 60 0 c33 0 86 -9 118 -19 l57 -18 0 -59
c0 -65 14 -79 24 -25 10 52 34 54 77 7 21 -22 40 -49 44 -61 3 -11 10 -20 14
-20 5 0 12 -24 16 -52 l8 -53 8 35 c8 33 -4 84 -32 130 -5 8 -12 21 -16 29 -3
7 -21 29 -40 48 -19 18 -33 39 -30 46 6 20 67 56 105 63 40 8 93 -8 134 -40
35 -27 91 -102 108 -145 15 -38 20 -32 -77 -100 -88 -62 -155 -181 -135 -239
l10 -27 6 30 c4 17 11 37 17 45 5 8 13 24 18 36 17 39 140 144 169 144 37 0 9
-207 -35 -261 -7 -8 -13 -19 -13 -23 0 -5 -14 -26 -31 -47 -41 -53 -20 -49 34
5 71 70 117 188 117 296 0 74 3 78 80 123 51 30 118 90 141 127 18 29 43 110
36 117 -3 2 -8 -4 -11 -15 -4 -11 -13 -23 -21 -26 -8 -3 -15 -12 -15 -20 0
-29 -179 -166 -218 -166 -6 0 -23 24 -38 54 -49 98 -136 171 -214 182 -64 9
-120 -10 -174 -57 -44 -39 -49 -41 -74 -29 -15 7 -72 23 -127 35 -95 20 -100
23 -108 51 -41 140 -65 186 -119 227 -45 33 -68 39 -99 22z m79 -70 c49 -41
115 -195 83 -195 -21 0 -67 23 -89 43 -32 30 -62 94 -62 132 0 53 22 59 68 20z"/>
<path d="M4289 11729 c-11 -11 -18 -27 -15 -36 3 -8 6 -19 6 -23 0 -5 10 -14
21 -21 16 -8 27 -8 45 2 31 16 34 73 5 89 -28 14 -38 13 -62 -11z"/>
<path d="M9295 11726 c-31 -47 18 -103 64 -74 28 17 29 73 2 88 -31 16 -49 12
-66 -14z"/>
<path d="M3638 11619 c-21 -12 -24 -59 -6 -77 22 -22 67 -14 80 13 24 53 -23
94 -74 64z"/>
<path d="M4510 11611 c-165 -60 -314 -183 -403 -331 -38 -63 -97 -203 -97
-231 0 -35 -19 -29 -41 15 -31 63 -71 90 -136 91 -46 0 -56 -4 -87 -34 -34
-33 -36 -38 -36 -102 0 -65 2 -70 37 -104 36 -34 65 -43 92 -26 15 10 8 15
-29 24 -29 7 -60 54 -60 92 0 40 26 81 59 95 26 10 35 10 63 -7 43 -24 66 -75
90 -193 10 -52 21 -102 24 -110 9 -23 22 16 23 69 2 100 80 296 170 428 44 64
142 161 211 209 68 46 182 98 243 108 20 4 37 11 37 16 0 16 -111 9 -160 -9z"/>
<path d="M8990 11621 c0 -11 25 -21 50 -21 24 0 140 -49 195 -83 45 -27 132
-98 167 -134 45 -47 117 -153 145 -213 46 -97 73 -163 73 -180 0 -10 7 -34 15
-53 8 -20 15 -62 15 -94 0 -65 15 -104 24 -62 2 13 7 40 10 59 22 151 51 222
103 253 28 16 35 16 65 4 77 -32 66 -172 -15 -188 -23 -5 -23 -23 0 -28 26 -5
77 26 96 59 10 17 17 49 17 82 0 99 -77 157 -170 129 -39 -12 -94 -68 -101
-104 -8 -40 -28 -10 -59 85 -16 52 -72 153 -121 219 -82 111 -195 194 -362
263 -40 17 -147 22 -147 7z"/>
<path d="M9945 11604 c-15 -23 -15 -27 0 -50 16 -26 44 -31 76 -14 39 22 11
90 -38 90 -11 0 -28 -12 -38 -26z"/>
<path d="M2015 11560 c-3 -6 2 -13 12 -16 103 -34 220 -159 183 -198 -4 -4
-46 -10 -93 -13 -113 -7 -185 14 -244 74 -52 52 -65 40 -20 -19 54 -71 108
-91 257 -94 l125 -3 18 -78 c31 -134 50 -181 88 -225 46 -54 59 -45 25 17 -24
42 -66 216 -66 271 0 25 8 28 135 45 98 13 249 7 305 -12 142 -47 174 -79 264
-263 73 -146 136 -234 158 -220 5 3 -5 20 -22 37 -16 17 -30 38 -30 48 0 9 -7
22 -15 29 -8 7 -15 18 -15 26 0 7 -7 30 -16 51 -9 21 -23 52 -30 68 -42 97
-59 128 -94 167 -94 108 -278 154 -491 123 -136 -20 -171 -18 -179 10 -10 37
-62 105 -99 128 -81 50 -143 69 -156 47z"/>
<path d="M11575 11561 c-3 -5 -18 -12 -33 -16 -41 -9 -117 -79 -142 -131 -13
-25 -29 -48 -38 -51 -8 -4 -75 2 -149 11 -161 21 -274 10 -387 -39 -47 -20
-145 -117 -167 -165 -32 -71 -47 -106 -64 -150 -35 -91 -71 -157 -95 -176 -8
-7 -12 -15 -8 -19 9 -9 57 27 58 43 0 6 4 12 9 12 12 0 15 5 117 215 60 126
123 181 249 216 92 26 410 11 429 -20 11 -18 -32 -219 -59 -274 -31 -63 -28
-83 8 -46 47 49 81 128 92 214 4 28 12 63 18 78 l12 28 125 3 c105 2 131 6
164 24 47 25 96 68 96 83 0 7 8 18 18 25 13 10 14 15 5 25 -10 10 -14 8 -20
-7 -22 -60 -133 -112 -238 -113 -100 -1 -135 8 -135 35 0 49 114 160 183 178
15 3 25 11 22 16 -8 13 -62 13 -70 1z"/>
<path d="M4829 11455 c-47 -7 -95 -18 -107 -24 -11 -6 -28 -11 -36 -11 -9 0
-46 -15 -83 -33 -234 -113 -388 -295 -484 -567 -20 -56 -23 -86 -23 -220 -1
-122 3 -169 18 -220 48 -169 135 -340 257 -502 72 -97 96 -120 164 -154 94
-48 105 -55 105 -65 0 -5 9 -9 19 -9 21 0 37 -17 27 -28 -4 -3 -15 -1 -24 5
-9 7 -37 22 -62 33 -25 12 -52 26 -60 31 -8 5 -22 12 -30 15 -8 3 -49 19 -90
36 -106 43 -138 54 -200 73 -30 10 -70 24 -88 31 -18 8 -39 14 -46 14 -36 0
-259 111 -374 186 -151 99 -293 230 -390 362 -25 34 -49 62 -54 62 -27 0 17
-246 70 -385 25 -67 80 -180 107 -219 14 -20 25 -39 25 -43 0 -3 22 -33 49
-67 54 -67 144 -156 206 -201 22 -17 42 -32 45 -35 5 -6 53 -37 85 -57 44 -26
225 -113 235 -113 7 0 24 -6 38 -14 48 -24 193 -64 327 -90 286 -55 276 -53
315 -66 242 -87 397 -187 550 -356 61 -67 144 -186 160 -230 14 -35 30 -21 30
28 0 41 -23 159 -41 213 -6 17 -14 44 -18 61 -10 37 -83 190 -125 259 -39 64
-139 199 -187 250 -81 87 -94 102 -158 190 -84 116 -82 113 -135 220 -77 156
-89 203 -90 345 0 110 2 130 21 166 46 87 144 147 264 161 27 3 49 10 49 16 0
5 -29 38 -64 72 -72 70 -157 116 -226 122 -96 9 -97 11 -25 49 152 81 271 86
440 17 84 -34 182 -94 233 -142 24 -23 47 -41 52 -41 16 0 12 36 -5 50 -8 7
-15 16 -15 21 0 23 -147 169 -170 169 -4 0 -10 6 -13 14 -3 8 -16 16 -28 18
-12 2 -24 9 -27 16 -5 17 33 15 48 -3 7 -8 17 -15 22 -15 35 0 198 -164 198
-198 0 -5 7 -15 15 -22 8 -7 15 -20 15 -30 0 -10 7 -23 15 -30 8 -7 15 -21 15
-31 0 -26 30 -99 41 -99 5 0 12 8 15 18 3 9 11 31 18 47 30 69 39 105 51 195
24 168 -10 318 -100 455 -118 177 -289 277 -524 305 -100 12 -129 11 -242 -5z
m-101 -1854 c3 -8 -1 -12 -9 -9 -7 2 -15 10 -17 17 -3 8 1 12 9 9 7 -2 15 -10
17 -17z"/>
<path d="M8555 11455 c-179 -27 -288 -79 -401 -190 -44 -44 -87 -92 -95 -107
-64 -122 -84 -173 -98 -244 -20 -110 -12 -215 26 -339 19 -62 52 -135 62 -135
4 0 15 26 25 58 26 80 22 71 54 127 7 11 17 31 22 44 15 33 151 167 180 176
13 4 30 14 38 21 16 16 42 18 42 4 0 -6 -10 -15 -22 -20 -72 -28 -237 -201
-238 -247 0 -14 -6 -23 -15 -23 -15 0 -20 -12 -9 -23 4 -3 25 11 48 33 214
203 482 273 673 175 18 -9 35 -20 38 -25 3 -5 19 -11 36 -15 43 -10 28 -18
-44 -26 -35 -3 -87 -18 -120 -34 -60 -28 -187 -137 -187 -160 0 -7 18 -15 43
-17 130 -16 219 -71 267 -168 20 -39 23 -60 23 -157 -1 -79 -6 -127 -18 -165
-28 -83 -77 -201 -92 -219 -7 -8 -13 -20 -13 -26 0 -5 -13 -29 -30 -51 -16
-23 -30 -45 -30 -48 0 -8 -118 -158 -160 -204 -95 -103 -186 -220 -237 -305
-31 -52 -113 -226 -113 -240 0 -9 -5 -26 -11 -37 -19 -36 -49 -177 -49 -234 0
-56 13 -70 30 -31 23 52 109 172 175 244 47 53 188 166 260 210 84 51 270 127
350 143 101 20 166 33 240 46 86 16 141 30 245 63 114 36 153 51 245 98 175
88 318 198 422 328 66 82 163 236 163 258 0 7 6 21 13 32 33 51 107 340 107
417 0 36 -16 44 -31 16 -7 -13 -15 -25 -18 -28 -3 -3 -19 -23 -35 -45 -83
-113 -278 -285 -421 -371 -114 -70 -295 -148 -465 -202 -113 -36 -126 -41
-235 -88 -96 -41 -111 -48 -125 -55 -8 -5 -25 -13 -37 -18 -11 -6 -24 -15 -28
-20 -8 -14 -35 -14 -35 -2 0 9 12 17 75 51 11 5 34 19 50 30 17 11 44 26 60
33 45 21 87 68 174 198 102 151 174 298 216 444 25 83 25 342 1 399 -9 21 -16
45 -16 53 0 8 -21 58 -46 111 -142 296 -386 474 -699 511 -105 13 -123 12
-230 -4z m405 -1844 c0 -12 -20 -25 -27 -18 -7 7 6 27 18 27 5 0 9 -4 9 -9z"/>
<path d="M5622 11431 c-33 -24 -33 -88 -2 -113 47 -38 123 -3 123 57 0 34 -40
75 -72 75 -14 0 -37 -9 -49 -19z"/>
<path d="M7937 11422 c-15 -15 -27 -37 -27 -48 0 -34 41 -74 76 -74 65 0 98
84 51 128 -32 30 -68 28 -100 -6z"/>
<path d="M2090 11188 c-25 -27 -26 -50 -2 -71 24 -22 55 -21 75 1 23 25 21 45
-6 70 -29 28 -41 28 -67 0z"/>
<path d="M11503 11191 c-13 -11 -23 -28 -23 -39 0 -40 60 -68 88 -40 20 20 14
65 -10 82 -28 20 -28 20 -55 -3z"/>
<path d="M2515 11153 c-91 -23 -87 -144 9 -258 51 -62 192 -125 311 -140 28
-3 58 -8 67 -11 19 -6 51 -57 62 -97 3 -15 11 -27 16 -27 6 0 10 -9 10 -20 0
-10 6 -23 13 -27 8 -4 16 -16 20 -25 7 -19 27 -25 27 -9 0 5 -7 16 -15 25 -8
8 -15 21 -15 28 0 8 -7 23 -15 34 -8 10 -15 28 -15 40 0 11 -5 25 -12 32 -9 9
-9 15 0 24 9 9 26 9 74 0 153 -30 158 -32 226 -81 43 -31 53 -19 17 19 -45 47
-147 91 -243 104 -78 11 -110 30 -122 73 -6 21 -19 54 -30 73 -10 19 -23 45
-29 57 -13 27 -109 123 -124 123 -6 0 -18 6 -26 13 -37 31 -162 61 -206 50z
m150 -79 c43 -20 120 -77 147 -109 9 -11 33 -51 53 -89 26 -49 33 -71 25 -76
-7 -4 -49 2 -94 14 -153 41 -232 94 -272 181 -27 57 -29 76 -11 94 16 17 99 9
152 -15z"/>
<path d="M11055 11151 c-64 -12 -155 -62 -210 -116 -49 -49 -115 -157 -115
-188 0 -35 -44 -67 -105 -78 -82 -15 -167 -40 -186 -56 -8 -7 -19 -13 -23 -13
-15 0 -76 -53 -76 -66 0 -8 -4 -14 -10 -14 -5 0 -10 -6 -10 -14 0 -8 15 0 35
19 38 36 104 71 150 78 17 3 56 10 87 17 74 16 89 10 81 -32 -3 -18 -12 -40
-19 -49 -8 -8 -14 -23 -14 -33 0 -10 -7 -24 -15 -32 -16 -16 -21 -44 -7 -44 8
1 52 67 52 79 0 5 7 14 15 21 8 7 15 22 15 34 0 12 13 36 29 53 23 26 39 32
87 38 59 7 133 29 208 60 50 21 136 108 164 166 58 119 0 194 -133 170z m93
-93 c2 -29 -5 -49 -30 -88 -50 -77 -130 -126 -243 -150 -22 -5 -53 -14 -69
-20 -50 -18 -54 2 -18 73 72 141 197 229 317 224 39 -2 40 -3 43 -39z"/>
<path d="M6774 10993 c-9 -30 -65 -135 -100 -189 -95 -144 -190 -212 -319
-227 -176 -21 -289 -126 -254 -235 6 -20 21 -47 32 -60 20 -21 22 -22 28 -5 4
10 8 30 8 45 1 16 12 36 32 52 40 34 129 36 192 5 46 -23 107 -77 107 -94 0
-6 5 -16 12 -23 31 -31 68 -190 71 -302 2 -86 -16 -185 -46 -249 -15 -34 -22
-40 -29 -28 -4 9 -4 27 2 42 14 37 12 95 -4 157 -19 72 -41 112 -83 153 -75
73 -217 52 -254 -37 -16 -38 -41 -33 -55 11 -16 48 -59 83 -129 105 -96 30
-141 54 -179 96 -35 39 -56 50 -56 30 0 -5 7 -35 15 -67 8 -31 15 -90 15 -129
0 -87 29 -190 65 -228 26 -28 25 -46 -2 -46 -34 0 -85 -43 -104 -87 -23 -55
-24 -80 -2 -135 22 -56 48 -89 103 -130 87 -65 202 -97 285 -78 60 13 77 1 39
-29 -23 -18 -40 -21 -134 -21 -92 0 -115 4 -162 24 -66 29 -110 65 -146 120
-59 87 -78 189 -48 261 l15 34 -49 30 c-26 16 -66 48 -88 71 -43 45 -52 74
-52 171 0 63 -7 69 -80 69 -25 0 -54 13 -100 44 -36 25 -66 43 -68 41 -2 -2 1
-11 7 -22 9 -16 62 -126 216 -448 73 -153 162 -337 259 -537 42 -86 76 -159
76 -162 0 -4 11 -24 25 -46 l25 -40 933 0 c512 0 937 4 943 8 10 6 55 96 231
462 114 236 189 391 262 541 39 81 71 151 71 157 0 5 7 15 15 22 16 13 21 60
7 60 -5 0 -17 -9 -28 -21 -28 -32 -89 -59 -129 -59 -67 0 -75 -11 -75 -99 0
-70 -3 -82 -29 -118 -16 -22 -57 -58 -90 -79 -65 -42 -63 -36 -41 -122 13 -55
-9 -146 -52 -209 -30 -44 -116 -123 -134 -123 -7 0 -25 -7 -40 -15 -21 -11
-60 -15 -139 -15 -100 1 -113 3 -139 24 -36 30 -21 40 41 25 102 -23 260 35
338 125 81 92 84 212 6 276 -19 17 -45 30 -57 30 -34 0 -34 10 0 54 37 49 51
107 66 266 6 58 13 121 16 140 l7 35 -43 -43 c-50 -51 -112 -92 -137 -92 -25
0 -103 -30 -136 -52 -15 -11 -37 -42 -48 -69 -12 -27 -25 -49 -29 -49 -5 0
-17 17 -27 37 -60 122 -232 107 -301 -25 -51 -99 -60 -165 -37 -277 6 -27 5
-28 -6 -10 -7 11 -16 23 -21 26 -20 13 -48 156 -48 244 0 88 22 205 51 270 14
33 65 103 89 123 42 35 91 52 153 52 58 0 65 -2 95 -33 22 -23 32 -43 32 -64
0 -44 13 -48 40 -11 31 42 34 131 6 168 -49 65 -123 101 -246 120 -93 14 -159
48 -226 114 -41 41 -103 132 -143 211 -22 44 -45 86 -51 93 -15 17 -30 15 -36
-5z m72 -409 c21 -19 64 -53 94 -74 85 -58 87 -62 52 -107 -40 -51 -88 -140
-114 -216 -18 -50 -22 -85 -23 -182 0 -119 14 -196 51 -283 8 -18 14 -40 14
-48 0 -9 20 -58 45 -110 91 -188 198 -255 234 -146 18 56 24 178 13 264 -11
84 -1 161 26 191 10 11 30 17 58 17 37 0 46 -4 61 -27 25 -39 33 -44 73 -36
50 9 97 35 165 93 33 28 61 46 63 40 2 -6 -7 -34 -20 -63 -34 -72 -60 -161
-56 -189 2 -18 11 -24 41 -28 28 -4 41 -12 52 -34 20 -38 19 -55 -5 -94 -23
-38 -113 -82 -169 -82 -50 0 -128 -40 -178 -90 -37 -37 -43 -49 -43 -86 0 -49
17 -65 110 -105 49 -22 69 -24 193 -23 75 0 137 -1 137 -3 0 -3 -12 -29 -27
-59 l-26 -54 -259 0 -260 0 -56 37 c-83 55 -156 134 -212 230 -28 46 -50 87
-50 92 0 4 -9 16 -19 25 -21 19 -41 14 -41 -9 0 -26 -103 -187 -156 -245 -29
-31 -80 -73 -113 -93 l-60 -37 -258 2 -258 3 -26 53 c-15 28 -23 54 -18 57 4
3 48 3 96 -1 132 -9 234 14 307 69 29 23 36 35 36 62 0 68 -138 174 -229 176
-75 1 -174 61 -187 115 -10 38 25 88 65 92 41 4 46 19 31 95 -12 59 -19 76
-55 146 -25 48 0 47 58 -2 67 -56 113 -82 160 -90 39 -6 43 -3 85 47 21 26 84
21 112 -9 23 -25 24 -28 21 -220 -2 -177 0 -198 18 -233 11 -22 27 -42 36 -46
25 -9 92 31 124 74 44 61 101 186 135 295 8 28 22 72 31 99 23 75 21 266 -4
336 -34 96 -57 143 -104 212 l-46 67 82 59 c45 33 93 72 106 86 14 14 30 26
36 26 6 0 29 -16 51 -36z"/>
<path d="M13073 10973 c-5 -15 -46 -75 -81 -118 -4 -5 -18 -26 -32 -45 -22
-33 -162 -211 -185 -236 -5 -7 -37 -43 -70 -80 -138 -158 -326 -347 -495 -499
-36 -32 -83 -74 -105 -94 -44 -40 -162 -139 -295 -246 -95 -77 -523 -396 -621
-464 -178 -121 -266 -180 -334 -224 -92 -59 -139 -106 -167 -166 -18 -41 -21
-75 -29 -326 -10 -300 -8 -313 38 -334 23 -10 44 -2 207 79 99 50 208 106 241
125 33 19 67 38 75 41 32 15 318 190 380 233 36 24 94 65 130 89 246 170 549
441 736 658 219 255 400 550 498 812 65 174 79 225 121 435 17 89 21 362 5
372 -6 3 -13 -2 -17 -12z"/>
<path d="M495 10943 c-9 -49 2 -239 21 -348 23 -132 62 -275 104 -385 12 -30
25 -67 30 -81 4 -14 12 -34 18 -45 5 -10 32 -64 60 -119 27 -55 59 -116 71
-135 11 -19 24 -41 28 -49 12 -25 157 -237 193 -282 107 -133 157 -188 299
-329 236 -235 477 -426 791 -626 62 -39 82 -51 105 -64 11 -6 34 -19 50 -29
17 -11 50 -31 75 -44 25 -14 61 -34 80 -45 19 -11 71 -39 115 -62 44 -23 87
-45 95 -51 8 -5 67 -34 132 -64 103 -49 119 -54 142 -44 38 18 43 50 35 209
-4 80 -8 202 -8 271 -1 192 -29 240 -205 357 -55 36 -109 71 -118 77 -9 5 -50
33 -90 61 -40 28 -102 71 -138 95 -66 46 -122 86 -290 210 -154 114 -205 152
-210 159 -3 3 -34 28 -70 55 -36 27 -76 59 -90 71 -14 13 -56 49 -95 81 -38
32 -75 63 -81 68 -6 6 -46 42 -90 80 -374 331 -709 700 -898 988 -21 31 -42
57 -46 57 -4 0 -11 -16 -15 -37z"/>
<path d="M3592 10887 c-39 -47 -81 -193 -82 -284 -1 -223 140 -393 452 -545
24 -11 38 -10 38 2 0 6 -6 10 -13 10 -7 0 -20 8 -28 18 -9 9 -41 39 -72 66
-31 27 -53 54 -50 59 3 5 18 -5 34 -22 30 -33 45 -38 52 -18 2 6 8 9 12 5 4
-4 3 -14 -3 -21 -15 -18 -3 -30 15 -15 10 8 17 7 26 -4 16 -19 77 -61 82 -56
2 2 -7 41 -21 88 -13 46 -24 102 -24 125 0 44 -30 188 -51 245 -40 107 -145
226 -280 316 -75 50 -73 49 -87 31z"/>
<path d="M2792 10658 c-14 -14 -15 -47 -3 -67 11 -18 71 -17 82 1 24 37 2 78
-41 78 -14 0 -31 -5 -38 -12z"/>
<path d="M10781 10646 c-24 -43 17 -83 66 -65 27 10 37 42 23 69 -16 30 -73
28 -89 -4z"/>
<path d="M717 9703 c-10 -18 34 -286 70 -428 49 -195 136 -411 222 -555 11
-19 24 -42 28 -50 27 -60 211 -316 287 -399 278 -304 519 -493 936 -731 22
-13 264 -132 342 -168 37 -18 73 -32 79 -32 6 0 23 -6 37 -14 26 -13 67 -30
150 -60 20 -7 53 -19 72 -26 62 -22 99 -24 120 -5 24 21 25 46 6 123 -36 141
-76 359 -76 409 0 53 -29 138 -61 176 -17 21 -64 51 -126 81 -190 94 -249 123
-343 173 -52 28 -111 60 -130 72 -19 11 -42 24 -50 28 -8 4 -55 31 -105 61
-367 221 -677 456 -919 698 -70 71 -191 200 -227 244 -94 113 -259 341 -259
358 0 12 -48 53 -53 45z"/>
<path d="M12854 9687 c-11 -12 -42 -56 -69 -97 -162 -248 -435 -547 -700 -765
-27 -22 -63 -51 -79 -65 -81 -67 -201 -153 -356 -256 -63 -42 -126 -84 -140
-93 -14 -10 -32 -20 -40 -24 -8 -4 -28 -16 -45 -27 -16 -11 -37 -23 -45 -27
-8 -4 -35 -19 -60 -34 -86 -52 -196 -110 -416 -219 -149 -75 -227 -119 -240
-138 -30 -40 -54 -108 -54 -150 0 -48 -41 -277 -72 -402 -39 -157 -7 -197 122
-150 19 7 51 18 70 25 174 63 505 214 620 284 19 11 42 24 50 28 37 17 322
198 355 225 6 5 26 21 46 36 478 359 816 814 967 1302 18 58 39 126 47 151 8
26 15 58 15 72 0 14 4 37 10 51 10 27 43 287 37 293 -2 1 -12 -7 -23 -20z"/>
<path d="M5867 8833 c-4 -3 -7 -30 -7 -59 0 -38 4 -53 16 -58 9 -3 427 -6 929
-6 782 0 915 2 922 14 4 8 6 37 5 65 l-4 51 -927 0 c-510 0 -931 -3 -934 -7z"/>
<path d="M1164 8256 c-4 -11 -2 -33 5 -50 7 -17 17 -44 21 -61 11 -39 38 -111
49 -133 5 -9 27 -54 49 -99 34 -68 105 -193 165 -288 11 -18 98 -139 115 -160
4 -5 30 -39 57 -75 68 -90 81 -105 240 -266 203 -206 343 -316 610 -481 31
-20 276 -138 320 -155 149 -58 259 -90 415 -122 233 -47 276 -15 187 136 -40
67 -119 226 -153 306 -8 17 -21 49 -30 70 -59 137 -91 170 -198 202 -39 12
-86 28 -104 36 -18 8 -39 14 -47 14 -8 0 -29 6 -47 14 -18 8 -53 22 -78 31
-25 9 -61 24 -80 32 -19 8 -48 21 -65 27 -80 34 -251 117 -355 174 -98 53
-112 61 -145 82 -16 11 -37 23 -45 27 -8 4 -43 26 -78 50 -35 24 -65 43 -68
43 -6 0 -281 207 -319 241 -113 99 -157 139 -206 188 -65 66 -143 152 -181
201 -24 31 -28 32 -34 16z"/>
<path d="M12385 8223 c-73 -90 -330 -339 -440 -427 -94 -75 -214 -161 -300
-216 -213 -136 -448 -261 -645 -344 -63 -26 -124 -53 -135 -58 -11 -6 -33 -15
-50 -19 -16 -4 -55 -17 -85 -29 -30 -12 -71 -25 -90 -29 -19 -4 -45 -13 -57
-19 -12 -7 -30 -12 -41 -12 -27 0 -104 -71 -126 -116 -10 -22 -25 -51 -32 -66
-8 -14 -14 -31 -14 -37 0 -11 -54 -135 -71 -161 -5 -8 -12 -22 -15 -30 -8 -21
-38 -79 -63 -120 -11 -19 -25 -45 -30 -57 -5 -11 -15 -24 -20 -28 -6 -3 -11
-26 -11 -51 0 -57 18 -65 120 -54 146 16 426 90 512 136 14 8 31 14 37 14 17
0 196 88 279 137 41 24 75 43 77 43 7 0 139 92 220 153 247 186 519 471 693
725 69 100 88 131 102 157 6 11 26 47 45 80 100 173 210 444 189 465 -7 7 -23
-6 -49 -37z"/>
<path d="M2203 6642 c33 -77 201 -268 327 -373 36 -30 67 -57 70 -60 7 -9 180
-129 185 -129 2 0 21 -12 42 -26 44 -30 260 -136 318 -157 251 -89 371 -112
575 -112 159 1 200 14 200 65 0 25 -24 53 -148 175 -82 80 -157 152 -168 159
-10 7 -57 16 -104 20 -134 10 -260 26 -322 42 -32 8 -67 14 -77 14 -11 0 -42
7 -68 15 -26 8 -73 22 -103 31 -106 31 -218 75 -345 136 -71 34 -258 140 -285
163 -8 7 -36 24 -62 38 l-47 26 12 -27z"/>
<path d="M11351 6637 c-29 -17 -61 -37 -70 -42 -9 -6 -34 -22 -56 -35 -23 -14
-50 -31 -60 -37 -31 -20 -275 -138 -325 -157 -227 -90 -446 -138 -735 -162
-38 -3 -79 -7 -90 -9 -11 -2 -91 -74 -178 -159 -135 -133 -157 -159 -157 -185
0 -44 39 -61 159 -68 224 -14 480 47 761 181 41 20 98 49 125 64 51 28 236
150 245 162 3 3 27 23 54 43 96 72 255 237 323 332 22 31 64 105 60 105 -1 0
-26 -15 -56 -33z"/>
<path d="M3080 5774 c0 -12 37 -46 75 -69 17 -11 55 -37 85 -60 61 -44 85 -60
115 -75 11 -6 34 -19 50 -29 53 -34 204 -106 280 -134 263 -96 472 -100 661
-11 119 55 160 107 117 147 -10 8 -66 40 -124 70 -58 30 -124 66 -147 81 -48
30 -100 34 -171 11 -112 -35 -182 -45 -334 -45 -189 0 -298 19 -487 86 -94 33
-120 39 -120 28z"/>
<path d="M10460 5765 c-14 -8 -33 -14 -42 -15 -10 0 -32 -6 -50 -14 -18 -8
-60 -21 -93 -29 -159 -40 -213 -47 -363 -47 -150 0 -206 8 -338 45 -76 22
-119 19 -172 -12 -75 -45 -82 -49 -180 -97 -110 -56 -129 -81 -91 -122 70 -76
262 -144 405 -144 92 0 353 55 378 80 5 5 16 10 23 10 20 0 166 68 250 117
123 70 333 219 333 235 0 12 -32 9 -60 -7z"/>
<path d="M790 4753 c0 -17 182 -225 291 -333 104 -104 317 -276 362 -293 30
-11 21 -45 -15 -52 -18 -3 -55 -12 -83 -20 -63 -17 -150 -34 -240 -46 -38 -5
-99 -13 -135 -19 -36 -5 -100 -10 -142 -10 -42 0 -79 -4 -82 -9 -7 -11 73 -65
219 -147 55 -32 268 -135 325 -158 36 -15 74 -31 85 -36 11 -4 29 -11 40 -13
11 -3 52 -16 90 -30 79 -27 154 -47 270 -73 83 -18 411 -27 448 -12 16 7 17
36 17 417 l0 410 29 34 c34 39 113 67 187 67 54 0 190 -23 269 -45 88 -25 265
-48 324 -42 96 10 181 50 181 85 0 28 -40 68 -92 94 -161 79 -370 91 -903 48
-400 -32 -722 -14 -1010 56 -144 36 -321 94 -372 122 -24 13 -63 16 -63 5z"/>
<path d="M12735 4750 c-3 -5 -20 -14 -38 -19 -18 -5 -57 -19 -87 -31 -30 -12
-68 -25 -85 -30 -228 -60 -314 -77 -510 -102 -128 -15 -468 -16 -655 0 -460
38 -648 36 -805 -6 -165 -44 -235 -113 -172 -169 68 -61 251 -64 477 -8 109
27 216 45 267 45 65 0 151 -27 183 -58 24 -23 25 -31 32 -186 3 -88 7 -277 7
-419 1 -235 3 -258 19 -265 35 -15 354 -6 437 12 260 57 408 109 660 232 220
108 381 206 370 224 -3 6 -38 10 -76 10 -102 0 -347 35 -499 72 -25 6 -62 14
-83 18 -59 12 -68 27 -32 56 17 14 38 28 47 32 39 16 223 173 335 286 124 125
263 287 263 305 0 14 -47 14 -55 1z"/>
<path d="M2386 4376 c-162 -37 -101 -136 124 -199 93 -27 328 -69 455 -82 28
-2 81 -9 119 -15 45 -7 73 -7 80 -1 13 11 31 96 41 194 7 61 -2 70 -46 46 -11
-6 -80 -10 -158 -10 -134 0 -159 4 -331 46 -30 7 -80 16 -111 19 -30 3 -68 8
-85 10 -16 3 -55 -1 -88 -8z"/>
<path d="M11025 4375 c-49 -7 -108 -17 -130 -23 -130 -35 -182 -42 -312 -42
-104 0 -145 4 -167 15 -47 25 -53 8 -33 -88 9 -45 17 -96 17 -113 0 -54 14
-57 152 -39 327 43 500 78 623 127 67 27 87 42 107 76 17 28 17 30 -2 52 -17
20 -120 52 -155 48 -5 0 -50 -6 -100 -13z"/>
<path d="M2287 4213 c-3 -5 -8 -204 -12 -443 -7 -403 -6 -438 11 -480 49 -126
175 -227 344 -277 96 -29 226 -53 281 -53 71 0 66 -16 74 217 7 206 28 300 65
295 12 -1 38 11 60 28 21 16 41 30 45 30 5 0 37 14 72 30 34 17 70 30 78 30 8
0 29 6 47 14 18 7 60 21 93 31 33 9 75 23 93 31 18 8 39 14 47 14 27 0 170 66
213 97 41 31 42 63 1 97 -98 83 -289 127 -729 166 -129 12 -258 30 -327 46
-34 8 -74 14 -89 14 -26 0 -69 11 -194 48 -30 10 -79 29 -107 45 -58 30 -60
30 -66 20z"/>
<path d="M11235 4194 c-99 -58 -425 -128 -720 -153 -407 -36 -611 -80 -708
-154 -20 -16 -42 -38 -48 -49 -27 -51 87 -108 406 -203 139 -41 198 -63 279
-105 49 -25 98 -57 109 -72 22 -30 39 -148 52 -376 l8 -122 64 0 c62 0 139 14
253 46 118 33 204 79 270 144 66 64 94 109 103 165 11 68 -5 905 -17 904 -6 0
-29 -12 -51 -25z"/>
<path d="M3806 3731 c-6 -10 -63 -37 -136 -66 -25 -9 -60 -23 -78 -31 -18 -8
-41 -14 -52 -14 -11 0 -34 -6 -52 -14 -18 -8 -67 -24 -108 -36 -41 -13 -79
-27 -84 -31 -6 -5 -18 -9 -28 -9 -25 0 -146 -67 -182 -101 l-30 -28 27 -54
c50 -97 166 -198 282 -244 127 -51 303 -86 400 -81 l60 3 6 145 c9 197 10 535
3 554 -7 18 -20 21 -28 7z"/>
<path d="M9744 3727 c-3 -8 -1 -168 3 -358 l8 -344 60 -3 c92 -5 374 52 391
79 3 5 12 9 21 9 21 0 120 62 164 102 63 58 129 159 129 196 0 46 -137 121
-305 168 -33 9 -71 21 -85 27 -14 5 -41 13 -60 17 -61 14 -166 53 -243 91 -65
33 -75 35 -83 16z"/>
<path d="M6524 2292 c-8 -5 -9 -36 -2 -112 35 -408 113 -631 235 -671 41 -13
107 7 141 44 48 51 94 174 125 332 22 113 50 344 46 380 l-4 30 -265 2 c-146
2 -270 0 -276 -5z"/>
<path d="M6260 2273 c-44 -3 -181 -24 -290 -45 -30 -6 -77 -14 -104 -18 -54
-8 -71 -23 -86 -82 -6 -20 -14 -40 -19 -43 -15 -9 -24 -101 -11 -124 9 -18 20
-21 84 -21 59 0 89 6 147 30 116 47 228 133 307 236 48 63 45 71 -28 67z"/>
<path d="M7260 2255 c0 -8 46 -61 103 -117 100 -101 134 -124 270 -182 55 -23
178 -22 200 2 21 23 21 51 3 94 -8 18 -25 59 -37 90 -21 53 -26 58 -58 63 -20
3 -58 10 -84 16 -26 6 -76 15 -110 19 -34 5 -89 14 -122 19 -90 16 -165 14
-165 -4z"/>
</g>
</svg>
