<?xml version="1.0" standalone="no"?>
<!DOCTYPE svg PUBLIC "-//W3C//DTD SVG 20010904//EN"
 "http://www.w3.org/TR/2001/REC-SVG-20010904/DTD/svg10.dtd">
<svg version="1.0" xmlns="http://www.w3.org/2000/svg"
 width="900.000000pt" height="327.000000pt" viewBox="0 0 900.000000 327.000000"
 preserveAspectRatio="xMidYMid meet">
<metadata>
Created by potrace 1.10, written by Peter Selinger 2001-2011
</metadata>
<g transform="translate(0.000000,327.000000) scale(0.100000,-0.100000)"
fill="#000000" stroke="none">
<path d="M4240 3185 c0 -28 -5 -37 -24 -45 -13 -5 -27 -14 -31 -21 -6 -8 -13
-5 -27 12 l-18 24 -39 -42 c-21 -24 -48 -43 -58 -43 -18 0 -21 -9 -27 -77 -6
-77 2 -351 11 -365 7 -13 22 -9 44 13 24 24 60 19 39 -6 -6 -8 -9 -23 -5 -35
8 -26 -10 -49 -34 -43 -24 6 -33 -22 -36 -118 -2 -54 -9 -87 -25 -119 -22 -42
-22 -48 -15 -264 4 -122 7 -239 6 -261 -1 -22 0 -87 1 -145 1 -58 2 -132 2
-165 0 -63 -19 -145 -33 -145 -17 0 -21 66 -21 306 0 202 -2 245 -15 258 -10
9 -15 34 -15 69 0 37 -4 57 -14 60 -8 3 -15 26 -18 56 -3 32 -14 62 -30 83
-14 18 -28 42 -32 53 -3 11 -15 31 -26 45 l-19 25 -23 -50 c-13 -28 -33 -64
-45 -81 -16 -23 -22 -45 -21 -74 1 -34 -3 -46 -22 -60 -20 -15 -22 -23 -16
-62 6 -37 3 -47 -14 -63 -18 -17 -20 -30 -20 -172 0 -129 -2 -153 -15 -153 -8
0 -15 1 -16 3 0 1 -2 61 -5 132 -5 123 -7 131 -30 148 -19 15 -24 28 -24 64 0
36 -5 51 -25 69 -16 15 -25 34 -25 54 0 17 -9 39 -21 51 -11 11 -25 34 -31 51
l-11 31 -14 -26 c-7 -15 -27 -34 -44 -42 -42 -22 -35 -49 14 -53 44 -4 46 -13
10 -41 -16 -12 -39 -30 -51 -41 -29 -25 -51 -26 -59 -2 -3 9 -14 25 -25 35
-28 27 -23 47 12 47 23 0 30 5 30 19 0 26 -19 31 -74 19 -50 -11 -101 -4 -91
12 3 6 15 10 25 10 24 0 35 17 21 34 -7 9 -7 16 2 25 14 14 -1 27 -42 38 -31
8 -54 -21 -47 -59 5 -23 1 -30 -24 -43 -27 -14 -30 -21 -30 -63 0 -26 -7 -58
-15 -72 -20 -35 -23 -41 -29 -72 -3 -14 -17 -40 -30 -56 -22 -26 -24 -31 -12
-54 12 -22 12 -28 -3 -42 -10 -11 -16 -33 -16 -63 0 -26 -5 -48 -11 -50 -8 -3
-12 25 -13 93 -1 99 -9 124 -42 124 -23 0 -35 18 -21 32 8 8 15 8 25 0 23 -19
27 -3 27 101 0 74 -3 98 -12 95 -7 -3 -14 -14 -16 -26 -4 -25 -22 -30 -22 -7
0 11 -7 14 -25 9 -29 -7 -33 10 -10 40 8 11 12 30 8 46 -5 27 22 90 39 90 18
0 17 -23 -1 -46 -27 -35 -26 -58 3 -77 19 -13 26 -14 34 -4 11 13 16 262 6
315 -6 32 -24 45 -24 17 0 -8 -9 -15 -20 -15 -11 0 -23 7 -26 15 -4 9 -19 15
-35 15 -26 0 -29 3 -29 35 0 37 1 36 -83 50 l-38 6 4 -105 c2 -58 6 -109 10
-112 3 -4 14 -4 23 0 16 6 16 18 -1 73 -6 18 -4 21 14 16 14 -4 26 1 35 12 11
16 13 15 29 -8 15 -23 15 -26 -3 -42 -13 -12 -20 -31 -20 -57 0 -35 2 -38 23
-33 23 6 84 -31 72 -43 -3 -4 -10 -1 -14 6 -13 21 -61 -6 -61 -34 0 -40 -18
-72 -42 -76 -28 -4 -36 -36 -11 -45 26 -9 32 -23 26 -55 -3 -16 0 -35 7 -43
14 -17 15 -17 -21 -32 -16 -7 -31 -8 -42 -1 -10 5 -22 6 -27 3 -12 -8 -11
-257 1 -276 6 -10 13 -10 33 -1 14 6 26 16 26 22 0 5 6 10 14 10 21 0 31 21
15 31 -11 6 -11 11 -1 21 9 9 12 9 12 -4 0 -9 7 -19 17 -22 14 -6 14 -9 -5
-26 -12 -11 -26 -20 -31 -20 -5 0 -13 -9 -16 -20 -3 -11 -11 -20 -16 -20 -5 0
-19 -10 -30 -21 -23 -23 -38 -73 -39 -129 0 -26 -3 -31 -10 -20 -5 8 -10 68
-10 132 l0 116 -29 7 -28 6 -5 141 c-4 118 -7 143 -22 153 -14 11 -18 37 -23
169 l-6 156 34 -6 c32 -6 33 -6 14 9 -17 13 -19 25 -17 76 3 50 1 61 -11 61
-18 0 -30 30 -22 52 3 8 -1 21 -9 28 -18 14 -12 30 10 30 8 0 14 -10 14 -24 0
-33 16 -42 24 -13 3 12 6 75 6 140 0 92 -4 123 -16 143 -12 17 -16 45 -16 87
1 37 -5 75 -14 95 -9 20 -14 53 -12 85 l3 52 -110 6 c-60 3 -114 2 -119 -2 -4
-4 -9 -40 -10 -81 -1 -68 -3 -73 -24 -76 -22 -3 -23 -6 -16 -65 4 -34 10 -69
15 -78 9 -18 9 -24 6 -298 -1 -124 1 -179 10 -190 21 -27 16 -51 -10 -51 -42
0 -47 -17 -47 -145 0 -108 2 -122 20 -138 18 -15 20 -29 20 -167 l0 -150 -44
0 c-27 0 -48 6 -57 16 -11 14 -13 14 -21 -1 -5 -9 -7 -29 -3 -45 6 -26 2 -32
-34 -55 -30 -19 -45 -23 -58 -16 -10 6 -35 13 -55 16 -38 6 -48 18 -27 31 8 5
4 12 -10 23 -21 16 -21 51 0 51 5 0 18 9 30 21 19 19 22 19 45 4 14 -9 28 -23
31 -31 9 -23 21 -16 25 14 2 21 8 26 24 24 15 -2 23 4 28 20 9 36 8 38 -23 38
-59 0 -64 15 -56 191 3 87 3 174 -1 193 -6 35 -8 36 -49 36 -25 0 -52 7 -66
18 -36 27 -71 41 -104 43 -49 2 -55 0 -55 -21 0 -12 -6 -33 -14 -48 -18 -35
-21 -104 -19 -354 2 -212 10 -262 38 -238 17 14 37 -18 44 -75 5 -35 10 -40
34 -43 31 -4 35 -25 11 -60 -18 -26 -34 -20 -34 13 0 32 -20 43 -34 19 -10
-17 -11 -14 -16 19 -3 21 -9 39 -15 40 -15 3 -19 -75 -4 -84 11 -6 10 -12 -2
-26 -9 -10 -19 -26 -22 -35 -13 -36 -27 -17 -27 36 0 59 -22 95 -35 57 -9 -30
-21 -26 -20 7 0 22 -5 28 -27 30 -22 3 -30 -2 -38 -23 -13 -35 -6 -45 31 -45
45 0 31 -22 -24 -40 -44 -14 -47 -18 -53 -57 -6 -39 -27 -63 -39 -43 -3 5 -7
27 -9 50 -5 50 -11 57 -31 40 -21 -18 -43 -6 -47 26 -2 20 -11 29 -38 38 l-35
11 -1 150 c-2 143 -3 150 -22 148 -40 -5 -53 27 -57 147 -3 61 -7 115 -9 119
-3 4 -59 8 -125 10 -146 3 -146 3 -133 -121 5 -46 8 -123 6 -173 -2 -83 -1
-91 22 -112 30 -28 30 -48 0 -105 -14 -26 -22 -55 -19 -69 2 -13 -4 -45 -15
-70 -14 -33 -17 -50 -10 -63 11 -20 5 -52 -15 -80 -13 -18 -29 -19 -287 -19
-294 1 -290 1 -290 55 0 39 10 58 36 69 33 12 30 30 -3 27 -25 -3 -28 0 -28
27 0 30 1 30 59 33 34 1 65 -3 73 -9 9 -8 34 -9 81 -4 78 9 122 9 175 0 25 -5
47 -3 62 5 13 7 36 10 51 7 32 -6 78 9 69 22 -3 5 -102 10 -227 10 -122 0
-243 4 -270 7 -60 8 -428 -16 -428 -29 0 -4 8 -6 18 -3 9 3 30 -1 46 -9 34
-18 78 -19 121 -4 21 8 48 9 81 3 43 -8 49 -12 49 -34 0 -22 -4 -25 -32 -22
-38 4 -44 -14 -9 -27 36 -14 46 -57 25 -105 l-12 -25 -143 5 -144 4 0 -75 c0
-68 9 -91 25 -65 4 6 16 3 32 -7 25 -17 26 -16 47 10 35 43 66 32 66 -25 0
-11 8 -22 19 -25 10 -2 24 -16 30 -29 8 -18 19 -24 41 -24 25 0 30 -4 30 -25
0 -16 6 -25 15 -25 8 0 15 -5 15 -10 0 -6 12 -16 27 -23 15 -6 49 -34 75 -61
51 -51 62 -92 33 -116 -13 -10 -7 -19 35 -57 28 -25 50 -51 50 -60 0 -10 6
-12 19 -8 15 4 21 -1 30 -25 9 -27 13 -30 31 -20 11 6 24 8 29 5 5 -3 12 4 16
15 3 11 15 25 25 30 11 6 17 16 14 23 -3 8 0 26 6 41 l10 28 27 -26 c29 -29
43 -33 43 -12 0 7 7 19 15 26 8 7 19 27 23 44 6 24 14 31 32 31 21 0 23 5 24
44 1 46 21 67 33 34 4 -10 15 -24 25 -31 12 -9 17 -21 13 -32 -4 -13 1 -19 22
-23 19 -4 36 -20 53 -47 15 -25 30 -38 38 -35 8 3 21 -4 30 -15 10 -11 31 -24
49 -29 34 -10 47 -1 73 48 l13 25 16 -21 c22 -27 79 -56 92 -47 6 3 24 -10 41
-30 38 -46 63 -59 111 -58 26 1 44 9 56 24 l18 21 26 -39 c16 -23 27 -52 27
-73 0 -45 53 -97 96 -95 36 2 84 12 105 24 9 4 21 5 28 0 15 -9 16 -32 6 -111
-7 -52 -6 -58 13 -68 16 -9 27 -8 42 1 18 11 23 10 31 -4 6 -10 14 -18 19 -18
16 0 11 26 -10 50 -15 17 -20 37 -20 76 0 65 7 84 31 84 19 0 59 68 59 101 0
9 9 19 19 22 16 4 19 11 14 45 -3 23 -3 53 1 67 5 21 12 26 34 23 20 -2 29
-11 35 -35 5 -17 18 -33 28 -36 25 -7 24 -27 -1 -34 -11 -3 -20 -12 -20 -20 0
-11 6 -14 23 -9 12 3 32 6 44 6 20 0 21 2 8 42 -15 53 -7 131 15 136 9 1 33
-18 54 -43 21 -25 46 -45 54 -45 13 0 13 3 4 12 -7 7 -12 20 -12 30 0 10 -9
23 -20 30 -26 17 -25 26 7 55 32 30 84 34 112 9 20 -18 43 -14 40 7 -1 7 -1
21 0 32 2 28 16 2 25 -47 7 -40 15 -45 33 -27 8 8 13 7 18 -2 11 -17 8 -70 -4
-82 -14 -14 -14 -91 -1 -115 5 -9 19 -39 31 -67 22 -50 41 -47 20 3 -16 38
-23 247 -10 275 14 31 62 54 126 61 48 5 52 3 57 -20 5 -20 11 -23 31 -18 26
6 26 6 29 -56 1 -18 7 -26 25 -28 14 -2 35 -11 49 -20 18 -12 23 -22 18 -43
-6 -33 10 -98 32 -122 10 -11 27 -17 46 -15 25 2 31 -1 36 -22 4 -14 2 -34 -3
-45 -6 -11 -12 -57 -15 -103 l-4 -83 43 7 c42 6 79 28 79 45 0 5 -6 6 -14 3
-7 -3 -16 2 -19 10 -8 20 26 30 50 15 15 -9 27 -8 57 5 33 14 37 18 26 31 -19
23 5 62 52 86 43 22 54 49 44 110 -5 29 -3 41 8 45 8 3 27 23 41 45 45 64 119
85 144 41 9 -15 14 -15 55 6 82 39 156 20 156 -41 0 -13 5 -28 12 -35 14 -14
64 -16 73 -3 3 6 17 6 35 1 22 -6 34 -5 44 6 8 8 25 15 38 16 18 2 24 -2 26
-22 7 -63 14 -90 23 -90 6 0 13 9 16 19 3 11 29 31 61 47 32 15 81 47 110 72
41 35 53 53 58 83 6 33 10 39 31 39 18 0 28 8 36 30 6 17 17 28 23 26 13 -5
64 37 64 52 0 20 -14 20 -42 -1 -25 -18 -30 -19 -38 -7 -13 20 -13 67 0 75 6
3 23 -3 38 -14 15 -11 37 -19 47 -18 15 2 21 -6 25 -33 4 -28 10 -36 30 -38
20 -3 23 -1 13 9 -7 7 -13 19 -13 26 0 16 61 18 78 1 9 -9 21 -8 52 1 45 13
60 9 60 -19 0 -12 -12 -22 -35 -30 -39 -13 -38 -30 1 -30 35 0 174 38 207 56
17 9 38 13 53 10 24 -6 32 -30 14 -41 -5 -3 -10 -13 -10 -22 0 -11 6 -14 23
-8 57 18 64 17 70 -5 4 -16 10 -20 30 -15 29 8 42 -7 29 -32 -7 -12 -4 -21 12
-34 19 -16 20 -18 4 -24 -10 -4 -18 -14 -18 -21 0 -21 41 -74 52 -68 5 3 4 12
-3 20 -17 20 5 67 47 99 19 14 34 33 34 41 0 8 10 14 25 14 16 0 25 -6 25 -15
0 -8 4 -23 9 -33 5 -9 14 -29 20 -44 19 -50 141 -80 133 -33 -11 61 -7 80 16
83 31 5 111 -79 135 -140 3 -10 19 -20 34 -24 15 -4 35 -13 45 -21 9 -9 18
-10 22 -5 10 17 -5 43 -31 53 -28 10 -28 45 0 43 10 -1 31 12 47 28 l30 30 34
-21 c19 -12 40 -20 47 -19 21 5 43 -51 33 -81 -14 -38 -39 -34 -38 7 3 53 -14
36 -21 -23 -8 -59 -6 -65 79 -215 30 -52 49 -75 62 -75 20 0 20 2 7 87 -4 28
1 46 16 71 12 19 21 42 21 51 0 23 31 20 37 -4 4 -16 13 -20 37 -18 18 1 37
-1 43 -5 6 -4 15 -2 19 4 3 6 0 15 -7 20 -11 7 -12 12 -1 29 6 11 12 24 12 29
0 6 12 31 27 56 19 30 35 45 49 45 28 0 36 10 23 27 -9 9 -8 13 0 13 6 0 11
-5 11 -11 0 -21 34 -3 40 20 8 35 56 59 116 60 51 1 62 7 89 50 44 72 52 81
72 81 12 0 25 -5 28 -10 4 -6 13 -3 23 9 23 25 81 36 88 16 8 -19 24 -19 38
-1 17 22 146 10 146 -13 0 -10 -5 -22 -12 -29 -13 -13 -13 -13 75 -33 52 -11
67 -10 125 5 37 10 75 24 84 33 19 17 42 8 34 -13 -3 -8 -1 -14 4 -14 6 0 10
5 10 10 0 6 15 10 34 10 19 0 45 9 60 21 l27 21 57 -38 c91 -62 110 -70 132
-56 31 19 57 15 64 -10 4 -18 8 -20 18 -10 14 14 48 16 48 3 0 -14 79 -91 92
-91 35 1 42 17 24 62 -10 23 -25 51 -33 60 -18 20 -10 68 12 68 34 0 62 -23
71 -58 8 -31 13 -37 37 -38 15 -1 33 -6 38 -11 7 -7 19 -7 38 0 24 9 31 7 50
-12 29 -29 21 -63 -7 -37 -10 9 -22 16 -25 16 -9 0 1 -47 15 -78 14 -27 32
-29 25 -2 -3 12 0 20 8 20 14 0 25 22 25 51 0 27 40 41 78 27 25 -10 33 -8 57
10 19 15 35 20 56 15 36 -7 40 13 4 27 -14 5 -25 14 -25 19 0 14 30 22 48 12
12 -7 22 -3 37 13 17 18 29 22 70 19 94 -6 127 -14 115 -28 -8 -10 -8 -15 1
-21 7 -4 22 4 36 20 23 27 24 28 57 12 19 -9 43 -16 54 -16 12 0 24 -5 27 -10
4 -6 15 -8 26 -5 10 4 19 2 19 -3 0 -5 9 -12 20 -15 12 -3 20 -14 20 -26 0
-15 6 -21 24 -21 28 0 37 -11 55 -65 19 -55 28 -65 66 -65 40 0 75 41 54 66
-9 11 -8 14 10 14 19 0 26 15 22 42 0 4 9 26 20 48 22 43 49 52 78 26 10 -9
27 -12 44 -9 32 6 35 18 7 26 -11 3 -20 10 -20 17 0 7 9 14 20 17 20 5 20 14
20 344 0 353 -1 359 -41 323 -13 -12 -22 -13 -38 -5 -11 6 -32 11 -48 11 -48
0 -52 9 -57 119 -3 57 -11 110 -17 117 -9 11 -34 14 -101 12 l-90 -3 -14 -40
c-8 -24 -14 -82 -14 -146 l0 -106 -40 -18 c-37 -17 -41 -17 -58 -2 -10 10 -33
17 -50 17 -21 0 -35 7 -42 19 -6 12 -10 103 -10 226 l0 206 -31 59 c-23 45
-30 69 -27 102 2 35 0 43 -16 46 -32 7 -43 -15 -18 -38 27 -26 27 -32 2 -55
-11 -10 -20 -22 -20 -27 0 -5 -11 -24 -24 -41 -31 -41 -39 -70 -31 -108 5 -24
11 -29 26 -24 21 7 22 3 19 -58 -1 -28 5 -46 20 -62 15 -16 20 -30 15 -44 -9
-31 -34 -26 -46 9 -22 61 -32 20 -25 -96 6 -107 6 -113 -14 -124 -11 -6 -36
-8 -55 -4 -23 4 -35 2 -35 -5 0 -16 -25 -14 -39 3 -11 13 -14 74 -10 226 0 19
0 67 0 105 l0 71 -36 17 c-26 12 -35 23 -35 41 0 13 -7 29 -15 36 -8 7 -15 19
-15 27 0 21 -50 63 -75 63 -12 0 -32 -11 -45 -25 -21 -22 -22 -27 -10 -50 8
-15 22 -25 36 -25 27 0 34 -17 34 -85 0 -30 5 -57 10 -60 13 -8 13 -45 0 -45
-5 0 -17 11 -26 25 -17 27 -38 29 -40 4 -1 -8 -2 -20 -3 -27 -1 -8 -11 -12
-28 -10 -26 3 -28 7 -29 46 -1 23 -4 45 -7 48 -15 15 -36 -8 -42 -43 -3 -21
-10 -58 -15 -83 -6 -25 -12 -112 -14 -194 -3 -82 -9 -153 -15 -159 -22 -22
-31 7 -31 97 0 51 -3 140 -6 199 l-7 105 -33 4 c-36 4 -44 -5 -44 -49 0 -22
-3 -24 -26 -19 -35 9 -61 -1 -67 -24 -3 -11 -11 -20 -17 -20 -9 0 -11 15 -7
57 9 86 -18 118 -64 72 -23 -23 -28 -91 -28 -401 -1 -145 -7 -185 -28 -164
-12 12 -22 108 -13 131 5 13 5 36 1 52 -4 15 -4 43 1 61 13 47 -17 91 -87 127
l-56 28 -57 -30 c-39 -21 -58 -37 -62 -54 -6 -23 -10 -24 -119 -29 -132 -6
-126 -11 -130 110 -1 45 -7 77 -14 82 -7 4 -45 8 -85 8 -49 0 -74 4 -77 13 -4
11 -13 82 -14 118 -1 24 -51 53 -84 51 -19 -2 -34 5 -47 20 -15 19 -20 20 -34
9 -14 -11 -16 -11 -16 2 0 9 5 19 10 22 6 3 10 13 10 21 0 16 55 74 70 74 6 0
10 -4 10 -10 0 -5 6 -10 14 -10 24 0 29 38 10 68 -22 34 -70 82 -81 82 -17 -1
-74 -90 -80 -124 -3 -20 -10 -36 -14 -36 -5 0 -9 -13 -9 -30 0 -17 -9 -37 -20
-48 -19 -17 -21 -29 -18 -123 l3 -104 -85 0 -85 0 -10 -95 -10 -95 -100 -6
c-120 -6 -133 -4 -141 26 -7 30 -79 78 -124 85 l-34 5 -11 72 c-10 66 -15 76
-51 108 -45 41 -59 42 -96 12 -47 -39 -59 -85 -57 -218 3 -115 3 -119 25 -119
13 0 24 -8 27 -19 6 -23 0 -31 -24 -31 -23 0 -27 -13 -35 -114 -4 -58 -11 -86
-19 -86 -25 0 -30 148 -19 506 4 105 3 201 0 212 -4 12 -16 22 -26 22 -11 0
-25 12 -32 28 -9 19 -20 26 -35 24 -17 -2 -22 4 -27 32 -8 42 -31 57 -89 58
-32 0 -46 -5 -64 -26 -13 -15 -23 -34 -23 -42 0 -8 -10 -14 -25 -14 -17 0 -28
-7 -33 -21 -4 -11 -19 -26 -32 -32 l-25 -13 -2 -184 c-2 -235 0 -220 -18 -220
-22 0 -24 23 -27 289 -3 239 -4 244 -26 259 -20 13 -22 22 -23 121 -1 152 -9
205 -33 209 -21 4 -55 40 -56 58 0 6 -9 19 -20 29 -11 10 -20 24 -20 31 0 6
-15 21 -34 32 -32 19 -35 19 -50 4 -34 -36 -86 -113 -86 -128 0 -8 -12 -19
-27 -25 -42 -14 -54 -51 -60 -184 -4 -96 -9 -124 -23 -140 -17 -18 -18 -47
-18 -378 1 -196 -2 -361 -6 -364 -12 -13 -26 21 -26 64 0 24 -7 48 -16 57 -18
18 -60 21 -98 6 -24 -9 -26 -15 -26 -64 0 -53 -11 -78 -25 -55 -4 6 -9 270
-11 587 -2 317 -5 673 -6 789 l-2 213 -34 6 c-40 8 -56 39 -49 102 4 36 2 42
-14 42 -15 0 -19 -7 -19 -35z m-1785 -144 c7 -12 -12 -24 -25 -16 -11 7 -4 25
10 25 5 0 11 -4 15 -9z m1845 -96 c0 -3 -11 -18 -25 -33 -21 -22 -24 -23 -19
-7 4 11 11 26 17 33 10 12 27 17 27 7z m-172 -218 c2 -9 -4 -20 -13 -23 -20
-8 -50 19 -40 36 10 17 49 8 53 -13z m132 -126 c0 -12 -20 -25 -27 -18 -7 7 6
27 18 27 5 0 9 -4 9 -9z m20 -196 c0 -8 -7 -15 -15 -15 -16 0 -20 12 -8 23 11
12 23 8 23 -8z m-1808 -121 c6 -55 -2 -94 -18 -87 -8 3 -14 15 -14 28 0 12 -7
28 -15 35 -18 15 -19 32 -3 48 24 24 46 14 50 -24z m2436 -83 c3 -8 -1 -12 -9
-9 -7 2 -15 10 -17 17 -3 8 1 12 9 9 7 -2 15 -10 17 -17z m1562 -96 c0 -9 -9
-15 -25 -15 -24 0 -32 10 -18 23 12 13 43 7 43 -8z m-3620 -121 c0 -8 -4 -14
-9 -14 -5 0 -16 -3 -25 -6 -19 -7 -22 26 -4 44 14 14 38 -2 38 -24z m320 26
c0 -5 -9 -10 -20 -10 -11 0 -20 5 -20 10 0 6 9 10 20 10 11 0 20 -4 20 -10z
m100 -49 c0 -5 -6 -14 -14 -20 -16 -13 -32 2 -21 19 8 12 35 13 35 1z m-488
-71 c0 -11 1 -25 2 -32 1 -6 -4 -13 -10 -15 -13 -4 -28 43 -19 57 10 17 25 11
27 -10z m1496 -15 c7 -6 -11 -75 -19 -75 -5 0 -9 -9 -9 -20 0 -11 -2 -20 -4
-20 -2 0 -13 -3 -23 -7 -17 -7 -17 -6 0 20 24 37 23 70 -3 62 -25 -8 -27 11
-3 37 14 16 45 17 61 3z m2287 -25 c11 -18 -15 -50 -40 -50 -19 0 -23 4 -18
18 6 18 31 42 44 42 4 0 11 -4 14 -10z m-4637 -19 c3 -10 -1 -12 -17 -8 -15 3
-24 -1 -31 -14 -12 -22 -30 -25 -30 -5 0 17 40 46 59 43 8 -1 16 -8 19 -16z
m5892 -51 c0 -23 -13 -32 -34 -24 -21 8 -20 31 1 43 22 12 33 5 33 -19z
m-1320 -4 c0 -8 -4 -18 -10 -21 -16 -10 -11 -35 7 -35 18 0 73 -57 73 -75 -1
-29 -17 -35 -66 -26 -27 5 -62 7 -79 5 -28 -4 -29 -4 -7 7 24 13 30 39 10 39
-33 0 -58 -14 -58 -31 0 -11 -9 -21 -24 -25 -33 -8 -46 2 -46 32 0 14 -11 35
-25 48 -22 21 -23 25 -10 42 10 14 17 16 22 7 5 -7 30 -11 63 -10 46 2 57 6
65 24 13 30 85 46 85 19z m-5485 -32 c-18 -13 -20 -13 -23 2 -5 21 19 37 33
23 7 -7 4 -15 -10 -25z m263 -61 c-2 -29 -7 -53 -13 -53 -13 0 -19 73 -10 120
7 34 8 34 17 10 5 -13 8 -48 6 -77z m1572 67 c0 -5 -7 -10 -15 -10 -8 0 -15 5
-15 10 0 6 7 10 15 10 8 0 15 -4 15 -10z m-986 -55 c-22 -16 -64 -28 -71 -21
-10 10 9 26 31 26 13 0 30 7 37 16 9 11 15 12 17 4 2 -6 -4 -17 -14 -25z
m6406 -42 c0 -10 -20 -40 -20 -31 0 3 -3 13 -6 22 -4 11 -1 16 10 16 9 0 16
-3 16 -7z m-5351 -135 c0 -56 -3 -76 -9 -63 -15 35 -11 145 6 145 2 0 4 -37 3
-82z m2225 52 c-13 -25 -18 -28 -35 -20 -25 14 -24 29 4 40 40 16 47 12 31
-20z m-81 -13 c-3 -5 -10 -4 -15 1 -6 6 -7 16 -3 22 6 9 9 9 16 -1 4 -7 5 -17
2 -22z m1514 -14 c34 -39 40 -53 23 -53 -5 0 -10 -7 -10 -15 0 -17 -16 -20
-25 -4 -4 6 1 17 11 24 20 15 8 20 -20 9 -21 -8 -21 -53 0 -61 9 -3 28 1 43
10 25 15 30 15 49 1 12 -8 22 -25 22 -37 0 -25 45 -97 60 -97 14 0 12 -34 -2
-48 -9 -9 -7 -16 7 -32 13 -14 14 -20 5 -20 -7 0 -11 -3 -8 -6 3 -3 15 0 27 7
27 17 38 5 21 -25 -13 -26 -53 -43 -58 -25 -2 5 -20 16 -40 25 -45 19 -92 10
-92 -17 0 -23 -15 -25 -24 -4 -7 19 -36 20 -36 1 0 -19 -22 -35 -58 -42 -25
-5 -32 -3 -32 10 0 9 4 16 9 16 15 0 82 75 70 78 -5 2 -21 -8 -34 -22 -13 -14
-30 -26 -38 -26 -21 0 -59 49 -55 72 4 31 23 32 36 3 15 -33 23 -32 45 6 23
41 22 86 -2 94 -12 4 -21 19 -26 43 -4 20 -13 44 -21 54 -9 9 -11 18 -6 22 18
11 40 -5 57 -40 9 -19 21 -34 27 -34 7 0 7 4 -1 14 -13 16 -4 71 15 87 8 6 14
24 14 40 0 16 3 29 7 29 3 0 21 -17 40 -37z m1715 22 c0 -5 -5 -11 -11 -13 -6
-2 -11 4 -11 13 0 9 5 15 11 13 6 -2 11 -8 11 -13z m-72 -25 c0 -5 -12 -10
-26 -10 -14 0 -23 4 -19 10 3 6 15 10 26 10 10 0 19 -4 19 -10z m-3130 -25 c0
-8 -4 -15 -9 -15 -5 0 -17 -7 -26 -16 -12 -13 -19 -14 -30 -4 -22 18 -19 27
13 38 39 15 52 14 52 -3z m-3080 -14 c15 -29 13 -31 -20 -14 -17 8 -28 19 -25
24 10 15 34 10 45 -10z m0 -152 c18 -33 7 -40 -28 -19 -18 11 -30 25 -27 30
11 17 44 11 55 -11z m-362 -48 c-14 -22 -33 -27 -43 -12 -5 9 45 41 53 35 2
-1 -3 -11 -10 -23z m-774 -53 c-9 -30 -10 -32 -29 -25 -8 4 -15 16 -15 27 0
15 7 20 26 20 22 0 24 -3 18 -22z m170 -24 c11 -28 6 -34 -14 -17 -11 10 -20
21 -20 25 0 15 28 8 34 -8z m5306 -19 c0 -8 -6 -15 -14 -15 -17 0 -28 14 -19
24 12 12 33 6 33 -9z m-83 -40 c9 -24 -1 -27 -15 -5 -8 13 -8 20 -2 20 6 0 13
-7 17 -15z m424 -43 c-12 -23 -38 -35 -46 -22 -9 14 3 30 29 40 27 10 30 6 17
-18z m-301 3 c17 -20 6 -43 -25 -51 -39 -10 -49 8 -25 39 25 31 33 33 50 12z
m-2976 -44 c2 -3 0 -16 -5 -28 -6 -18 -16 -23 -44 -23 -19 0 -35 4 -35 8 0 5
-11 14 -25 20 -14 6 -25 16 -25 21 0 10 129 12 134 2z m83 -2 c6 -6 33 -12 59
-13 28 -1 49 -6 52 -14 2 -6 -1 -12 -7 -12 -6 0 -20 -11 -32 -24 -18 -21 -24
-23 -55 -13 -31 10 -34 13 -29 39 6 23 3 30 -17 37 -21 9 -21 10 -2 10 11 1
25 -4 31 -10z m-297 -29 c0 -5 -7 -10 -15 -10 -8 0 -15 5 -15 10 0 6 7 10 15
10 8 0 15 -4 15 -10z m-1156 -62 c-16 -54 -25 -69 -34 -63 -24 15 -2 85 26 85
11 0 14 -6 8 -22z m1178 -19 c3 -22 0 -33 -13 -40 -42 -22 -68 -1 -29 23 11 7
20 21 20 30 0 30 17 20 22 -13z m4618 -34 c0 -15 -33 -25 -49 -15 -9 5 -9 13
0 33 12 26 13 26 31 11 10 -10 18 -23 18 -29z m-256 -1 c11 -30 -33 -60 -49
-34 -8 13 13 50 29 50 8 0 17 -7 20 -16z m-5344 -48 c0 -8 -4 -17 -9 -21 -12
-7 -24 12 -16 25 9 15 25 12 25 -4z m955 -15 c-2 -5 -14 -11 -25 -14 -14 -4
-20 0 -20 12 0 10 3 21 6 24 9 9 46 -12 39 -22z m994 -39 c12 -22 -3 -42 -31
-42 -21 0 -24 30 -6 48 17 17 26 15 37 -6z m1833 -84 c-7 -7 -12 -22 -12 -34
0 -25 -14 -39 -30 -29 -7 4 -7 12 0 25 7 13 7 21 0 25 -20 12 -9 25 22 25 25
0 29 -3 20 -12z m-2006 -19 c3 -6 2 -15 -2 -19 -12 -12 -38 5 -30 19 9 14 23
14 32 0z m1768 -134 c17 -26 22 -65 8 -65 -14 0 -39 32 -51 63 -9 23 -8 27 8
27 10 0 26 -11 35 -25z m-2663 -120 c19 -6 26 -39 10 -49 -15 -10 -31 19 -35
65 -2 24 -1 32 1 17 2 -15 13 -30 24 -33z"/>
<path d="M6542 1313 c3 -57 3 -58 32 -56 16 1 36 9 45 18 14 13 14 17 -1 32
-13 13 -20 14 -31 5 -17 -15 -27 -6 -27 24 0 13 -5 26 -11 29 -7 5 -9 -13 -7
-52z"/>
<path d="M3264 2444 c3 -9 6 -18 6 -20 0 -3 5 -2 10 1 16 10 12 35 -6 35 -11
0 -14 -5 -10 -16z"/>
<path d="M3316 2424 c-3 -9 -2 -23 4 -32 7 -14 9 -10 10 16 0 35 -5 41 -14 16z"/>
<path d="M3237 2354 c-14 -14 -7 -35 11 -32 9 2 17 10 17 17 0 16 -18 25 -28
15z"/>
<path d="M2650 2194 c0 -28 -3 -87 -6 -130 -5 -55 -3 -76 4 -69 16 16 40 93
31 102 -4 4 -9 26 -11 48 -3 34 0 40 16 40 11 0 21 6 24 13 2 7 -5 12 -17 12
-11 0 -25 8 -30 18 -8 13 -10 6 -11 -34z"/>
<path d="M1517 2182 c-14 -15 -17 -53 -18 -272 -1 -140 2 -267 6 -282 8 -32
22 -34 80 -13 38 14 54 9 55 -18 0 -5 4 -6 9 -3 11 7 36 493 27 540 -7 34 -9
36 -45 36 -22 0 -44 6 -51 15 -17 20 -43 19 -63 -3z"/>
<path d="M7797 2063 c-12 -12 -7 -29 15 -53 13 -14 21 -34 20 -47 -3 -18 1
-23 18 -23 29 0 34 23 13 60 -10 18 -22 41 -28 51 -10 19 -26 24 -38 12z"/>
<path d="M7489 1879 c-10 -19 -9 -25 7 -36 26 -19 39 -11 39 23 0 36 -29 45
-46 13z"/>
<path d="M190 1481 c0 -11 26 -22 34 -14 12 12 5 23 -14 23 -11 0 -20 -4 -20
-9z"/>
<path d="M435 1480 c-3 -5 3 -10 14 -10 12 0 21 5 21 10 0 6 -6 10 -14 10 -8
0 -18 -4 -21 -10z"/>
<path d="M820 1481 c0 -13 37 -24 50 -16 6 4 8 11 5 16 -8 12 -55 12 -55 0z"/>
<path d="M892 1449 c2 -7 10 -15 17 -17 8 -3 12 1 9 9 -2 7 -10 15 -17 17 -8
3 -12 -1 -9 -9z"/>
<path d="M230 1020 c0 -5 6 -10 14 -10 8 0 18 5 21 10 3 6 -3 10 -14 10 -12 0
-21 -4 -21 -10z"/>
<path d="M55 1000 c-3 -5 3 -10 14 -10 12 0 21 5 21 10 0 6 -6 10 -14 10 -8 0
-18 -4 -21 -10z"/>
<path d="M255 969 c-4 -6 -13 -8 -20 -5 -8 3 -19 -2 -25 -9 -10 -12 -9 -16 3
-21 30 -11 62 0 65 24 3 23 -12 30 -23 11z"/>
<path d="M6540 941 c0 -14 69 -51 75 -40 4 5 -1 12 -9 15 -9 3 -16 12 -16 20
0 8 -10 14 -25 14 -14 0 -25 -4 -25 -9z"/>
<path d="M4735 881 c-9 -15 12 -22 42 -15 25 7 25 8 8 15 -28 11 -43 11 -50 0z"/>
<path d="M4498 853 c-6 -12 39 -56 46 -45 3 5 -5 19 -18 31 -13 13 -26 19 -28
14z"/>
<path d="M8556 833 c-11 -11 -6 -23 9 -23 8 0 15 4 15 9 0 13 -16 22 -24 14z"/>
<path d="M4727 823 c-4 -3 -7 -12 -7 -20 0 -17 26 -17 33 1 8 21 -11 35 -26
19z"/>
<path d="M8160 815 c0 -9 5 -15 11 -13 6 2 11 8 11 13 0 5 -5 11 -11 13 -6 2
-11 -4 -11 -13z"/>
<path d="M7701 808 c1 -29 14 -47 27 -39 12 7 12 12 1 30 -15 23 -29 28 -28 9z"/>
<path d="M7975 760 c-4 -12 -2 -27 3 -32 7 -7 12 -3 17 12 4 12 2 27 -3 32 -7
7 -12 3 -17 -12z"/>
<path d="M7797 694 c-14 -15 -6 -34 14 -34 14 0 19 5 17 17 -3 18 -20 27 -31
17z"/>
<path d="M4707 683 c-4 -3 -7 -12 -7 -20 0 -15 26 -18 34 -4 7 11 -18 33 -27
24z"/>
<path d="M7860 623 c0 -18 5 -33 10 -33 13 0 13 30 0 50 -7 11 -10 7 -10 -17z"/>
<path d="M8185 621 c-8 -25 3 -64 16 -56 11 8 12 46 0 64 -7 11 -10 9 -16 -8z"/>
<path d="M1322 590 l-23 -30 26 -26 26 -26 25 23 c30 28 30 45 2 70 -29 23
-29 23 -56 -11z"/>
<path d="M1793 365 c-3 -9 -3 -18 0 -21 9 -9 27 6 27 22 0 19 -19 18 -27 -1z"/>
<path d="M7147 334 c-13 -14 -7 -65 8 -71 22 -8 57 26 53 51 -3 21 -46 35 -61
20z"/>
<path d="M1983 262 c9 -9 19 -29 22 -44 9 -37 19 -35 22 3 1 17 7 37 13 44 8
10 1 13 -31 13 -38 1 -40 -1 -26 -16z"/>
</g>
</svg>
