<?xml version="1.0" standalone="no"?>
<!DOCTYPE svg PUBLIC "-//W3C//DTD SVG 20010904//EN"
 "http://www.w3.org/TR/2001/REC-SVG-20010904/DTD/svg10.dtd">
<svg version="1.0" xmlns="http://www.w3.org/2000/svg"
 width="1350.000000pt" height="900.000000pt" viewBox="0 0 1350.000000 900.000000"
 preserveAspectRatio="xMidYMid meet">
<metadata>
Created by potrace 1.10, written by Peter Selinger 2001-2011
</metadata>
<g transform="translate(0.000000,900.000000) scale(0.100000,-0.100000)"
fill="#000000" stroke="none">
<path d="M6246 6065 c-66 -17 -79 -37 -71 -100 3 -27 7 -66 8 -85 l2 -35 52
-1 c37 0 59 -7 74 -20 l21 -19 -48 -6 c-27 -3 -88 -5 -135 -3 l-86 2 -6 -140
c-3 -76 -2 -150 3 -163 13 -35 47 -65 73 -65 12 0 35 -7 51 -15 16 -9 38 -13
48 -9 12 3 31 -4 53 -20 18 -14 38 -26 44 -26 5 0 13 -9 16 -21 8 -24 26 -20
41 9 14 29 32 10 26 -28 -3 -24 -9 -30 -28 -30 -14 0 -24 -6 -24 -14 0 -21
-56 -41 -74 -27 -8 7 -25 9 -39 6 -14 -4 -28 -2 -31 4 -4 6 -20 11 -35 11 -15
0 -46 13 -69 30 -30 21 -43 26 -49 17 -4 -6 -6 -97 -4 -202 3 -183 4 -192 28
-236 24 -42 30 -46 79 -55 64 -12 65 -10 54 77 -4 35 -5 68 -3 72 3 5 -3 14
-13 21 -18 14 -12 36 11 36 7 0 15 6 18 14 3 8 25 17 48 21 25 4 51 17 64 31
30 32 68 33 63 2 -2 -17 -11 -24 -31 -26 -32 -4 -45 -26 -27 -47 6 -8 9 -19 5
-25 -10 -15 42 -117 62 -123 10 -2 26 -8 36 -12 13 -5 17 -2 17 15 0 30 18 60
36 60 19 0 84 59 84 76 0 7 7 14 15 18 20 7 21 104 2 112 -12 4 -66 -3 -159
-23 -32 -6 -32 -5 -15 62 11 42 17 50 37 50 32 0 49 29 32 55 -9 15 -10 26 -2
40 20 37 33 23 26 -26 -7 -54 8 -92 29 -74 18 15 35 5 35 -21 0 -20 24 -26 35
-9 5 8 11 7 20 0 8 -7 18 -9 23 -6 15 9 15 469 1 500 -7 14 -15 23 -20 21 -12
-8 -142 24 -204 50 -16 7 -46 17 -65 22 l-35 10 36 15 c45 20 53 32 38 57 -10
15 -9 22 4 36 22 22 22 21 -15 64 -27 30 -39 36 -72 36 -31 0 -41 4 -44 18 -3
13 3 17 25 17 35 0 58 14 49 29 -9 14 -59 13 -120 -4z m369 -655 c11 -17 -5
-32 -21 -19 -7 6 -11 15 -8 20 7 12 21 11 29 -1z m-145 -97 c0 -14 -19 -38
-25 -32 -8 8 5 39 16 39 5 0 9 -3 9 -7z m120 -21 c0 -13 -12 -22 -22 -16 -10
6 -1 24 13 24 5 0 9 -4 9 -8z m-426 -268 c23 -9 20 -19 -8 -32 -20 -9 -27 -8
-37 4 -10 13 -10 17 2 25 17 10 22 11 43 3z m6 -70 c0 -16 -16 -19 -25 -4 -8
13 4 32 16 25 5 -4 9 -13 9 -21z m280 0 c0 -8 -9 -14 -20 -14 -19 0 -27 19
-14 33 10 9 34 -4 34 -19z"/>
<path d="M6204 5346 c-8 -21 3 -49 16 -41 5 3 10 15 10 25 0 25 -18 36 -26 16z"/>
<path d="M6300 5309 c0 -18 2 -19 15 -9 15 12 12 30 -6 30 -5 0 -9 -10 -9 -21z"/>
<path d="M9200 5010 c-8 -14 -17 -19 -30 -15 -15 5 -24 -4 -44 -50 -15 -31
-33 -58 -41 -61 -23 -9 -65 -112 -65 -160 0 -38 4 -45 30 -59 17 -9 30 -20 30
-26 0 -6 12 -9 27 -7 23 2 29 9 33 38 8 48 17 60 44 60 24 0 85 -22 98 -35 4
-4 3 -15 -2 -24 -5 -9 -12 -37 -15 -63 -3 -27 -10 -48 -15 -48 -4 0 -17 16
-29 35 -11 19 -25 35 -30 35 -5 0 -15 -25 -22 -55 -11 -48 -10 -57 4 -73 27
-29 21 -57 -18 -83 -35 -24 -53 -58 -40 -78 3 -6 41 -11 86 -11 63 0 79 3 79
15 0 19 46 49 64 42 10 -4 12 -18 8 -52 -3 -32 -1 -50 8 -55 15 -9 5 -44 -20
-68 -9 -9 -21 -39 -24 -65 l-7 -49 33 4 c31 3 34 1 42 -35 8 -30 13 -36 28
-31 13 4 29 -5 52 -30 22 -25 38 -35 49 -30 34 12 12 114 -24 114 -10 0 -21
-4 -24 -10 -13 -21 -45 -10 -51 18 -10 48 -13 52 -33 52 -21 0 -34 23 -20 37
5 5 18 27 29 48 17 33 18 41 6 47 -8 4 -14 23 -14 43 0 30 3 35 24 35 17 0 24
-6 24 -19 0 -23 25 -35 38 -18 16 20 6 186 -12 206 -9 10 -16 24 -16 33 0 8
-9 23 -20 33 -27 24 -25 29 13 40 17 6 32 16 31 23 -1 6 -2 37 -2 67 -2 70
-20 72 -24 3 -3 -52 -23 -76 -34 -41 -3 10 -10 27 -14 38 -5 11 -11 42 -14 70
-4 32 -14 58 -30 75 -27 29 -56 82 -56 104 0 21 -19 30 -35 16 -12 -10 -17 -7
-25 14 -12 31 -16 32 -30 6z"/>
<path d="M1169 5008 c0 -7 -3 -80 -5 -162 -4 -154 5 -216 32 -216 8 0 14 -7
14 -15 0 -8 8 -15 18 -15 9 0 29 -15 44 -34 24 -29 25 -36 13 -46 -8 -7 -15
-19 -15 -26 0 -8 -8 -15 -17 -15 -42 -3 -43 -4 -43 -39 0 -11 5 -20 12 -20 6
0 20 -7 30 -17 17 -15 18 -14 18 18 0 44 15 59 57 59 38 0 103 -24 103 -38 0
-6 11 -13 24 -16 14 -3 28 -15 31 -26 8 -25 25 -25 57 0 25 19 25 19 45 -3 11
-12 23 -30 27 -40 3 -10 12 -17 19 -14 8 3 12 30 13 88 0 46 1 169 3 272 2
103 1 190 -2 193 -2 3 -22 7 -43 10 -22 3 -48 10 -59 15 -11 5 -42 10 -70 11
-46 3 -50 5 -53 29 -3 25 -7 27 -67 34 -36 3 -67 11 -70 16 -9 14 -115 11
-116 -3z m143 -233 c0 -5 -5 -11 -11 -13 -6 -2 -11 4 -11 13 0 9 5 15 11 13 6
-2 11 -8 11 -13z m36 -53 c9 -7 8 -13 -8 -27 -20 -18 -20 -18 -20 8 0 28 6 32
28 19z"/>
<path d="M6531 4916 c-27 -54 -30 -75 -16 -110 21 -51 19 -63 -15 -75 -37 -12
-38 -19 -5 -31 14 -5 25 -16 25 -24 0 -19 31 -36 64 -36 17 0 30 8 39 27 14
25 15 26 25 7 7 -14 6 -24 -4 -39 -20 -27 -17 -62 8 -87 27 -27 15 -50 -33
-60 -44 -9 -109 1 -116 18 -9 25 -22 15 -29 -22 -7 -41 8 -66 28 -46 7 7 22
12 35 12 18 0 22 -5 20 -22 -2 -18 4 -24 26 -26 16 -2 35 2 44 9 13 11 19 9
39 -16 27 -34 39 -29 29 14 -4 20 -11 28 -21 24 -8 -3 -14 1 -14 11 0 9 6 16
13 16 26 0 50 183 27 206 -6 6 -13 42 -16 80 -3 38 -8 95 -12 127 l-7 58 -61
4 c-55 2 -63 0 -73 -19z"/>
<path d="M6297 4923 c-11 -10 -8 -61 3 -68 17 -10 11 -32 -10 -38 -25 -7 -26
-27 -1 -27 10 0 24 -6 30 -14 19 -23 51 -27 51 -6 0 10 9 22 21 25 19 6 19 8
5 23 -28 29 -76 94 -76 103 0 11 -14 12 -23 2z"/>
<path d="M6062 4746 c-27 -13 -26 -49 1 -54 19 -4 67 35 67 56 0 15 -36 14
-68 -2z"/>
<path d="M2598 4693 c-64 -4 -71 -14 -37 -57 17 -22 28 -26 74 -26 46 0 55 3
69 26 10 14 16 33 14 42 -3 19 -25 21 -120 15z"/>
<path d="M3128 4692 l-78 -3 0 -102 c0 -56 -4 -108 -9 -116 -15 -23 -31 -2
-31 39 0 37 -20 70 -41 70 -11 0 -1 69 12 86 5 6 6 14 2 17 -10 11 -141 8
-148 -3 -4 -6 6 -10 24 -10 45 0 64 -10 51 -26 -6 -7 -10 -28 -8 -46 2 -27 7
-33 26 -31 29 3 30 -32 2 -47 -14 -8 -19 -17 -15 -30 8 -27 -86 -74 -131 -65
-18 3 -35 1 -39 -5 -4 -6 4 -10 19 -10 16 0 26 -6 26 -15 0 -8 5 -15 10 -15 6
0 10 5 10 10 0 6 7 10 15 10 24 0 17 -24 -17 -62 -18 -19 -48 -51 -65 -72 -31
-36 -53 -40 -53 -10 0 19 -19 18 -26 -1 -10 -24 -38 -17 -56 13 -14 24 -15 31
-2 61 l14 34 -36 -6 c-52 -9 -96 -53 -92 -92 2 -22 8 -29 21 -27 23 4 22 -13
-3 -38 -21 -21 -21 -20 -22 -280 -1 -99 10 -200 21 -200 9 0 31 83 31 113 0
45 37 60 69 28 15 -15 17 -28 13 -70 -5 -52 -20 -67 -29 -30 -4 15 -8 17 -14
8 -4 -7 -4 -18 0 -24 11 -14 21 -83 14 -101 -3 -8 -12 -14 -19 -14 -8 0 -17
-6 -20 -14 -9 -24 14 -53 47 -60 30 -6 31 -8 25 -41 -5 -27 -2 -39 14 -55 26
-26 29 -130 4 -151 -13 -11 -17 -10 -25 4 -5 9 -16 14 -24 11 -8 -4 -15 -1
-15 5 0 6 9 11 20 11 19 0 20 6 18 61 -2 52 -4 58 -15 43 -7 -10 -13 -23 -13
-29 0 -6 -6 -23 -12 -38 -11 -22 -18 -26 -39 -22 -17 4 -30 0 -38 -9 -13 -16
-12 -17 56 -41 7 -2 13 -28 15 -60 4 -66 23 -74 24 -10 1 51 10 67 25 45 12
-18 4 -116 -11 -134 -13 -16 -21 -249 -9 -288 5 -19 3 -40 -7 -63 -16 -39 -19
-91 -5 -99 30 -19 67 34 82 117 5 29 14 75 21 102 6 28 11 67 10 88 -1 20 3
37 8 37 6 0 10 17 10 38 0 57 49 122 91 122 l31 0 -6 58 c-9 75 -9 81 -6 122
4 44 36 116 56 124 10 4 13 13 9 26 -8 27 4 25 49 -5 20 -14 45 -25 55 -25 11
0 22 -7 25 -16 6 -15 19 -16 106 -11 75 5 100 3 100 -6 0 -7 8 -3 16 8 13 17
15 46 12 176 -3 109 -8 162 -17 172 -9 12 -10 31 -3 77 5 38 5 100 0 163 -7
72 -6 126 2 182 14 97 18 322 7 387 -5 30 -15 51 -25 55 -9 5 -52 7 -94 5z
m-444 -858 c9 -25 7 -34 -8 -34 -19 0 -29 17 -22 35 7 20 22 19 30 -1z m-4
-331 c-1 -27 -1 -27 -15 -9 -19 25 -19 36 0 36 10 0 15 -10 15 -27z m100 -258
c0 -8 -6 -15 -14 -15 -17 0 -28 14 -19 24 12 12 33 6 33 -9z"/>
<path d="M6346 4675 c-4 -10 3 -19 18 -25 13 -5 26 -14 28 -21 6 -18 38 -3 38
17 0 12 -6 15 -21 11 -15 -4 -23 0 -26 14 -6 23 -28 25 -37 4z"/>
<path d="M4407 4639 c-3 -13 -6 -66 -6 -118 -1 -51 -3 -96 -5 -100 -2 -3 0
-57 4 -120 7 -90 14 -124 35 -166 37 -76 61 -89 149 -80 72 7 109 25 100 50
-3 7 4 18 15 25 26 13 28 42 4 38 -10 -1 -18 2 -18 7 0 6 8 9 18 8 21 -3 22
15 1 39 -16 16 -16 18 0 24 13 5 16 23 16 113 0 59 -3 111 -6 114 -4 3 -15 2
-26 -4 -11 -6 -27 -8 -36 -4 -13 5 -11 11 16 31 26 21 32 33 32 63 0 30 -5 40
-29 54 -16 9 -42 17 -58 17 -16 0 -33 4 -38 9 -6 6 -44 13 -86 17 -75 6 -76 6
-82 -17z m181 -106 c2 -8 -5 -13 -17 -13 -21 0 -35 13 -24 24 10 10 36 3 41
-11z m-53 -28 c0 -5 -10 -11 -22 -13 -16 -2 -23 2 -23 13 0 11 7 15 23 13 12
-2 22 -7 22 -13z"/>
<path d="M11526 4605 c-37 -9 -38 -10 -33 -48 5 -38 5 -39 -21 -34 -15 3 -42
11 -59 18 -26 11 -35 11 -45 1 -10 -10 -8 -14 10 -18 26 -7 25 -6 11 -38 -14
-30 -34 -39 -59 -26 -29 16 -32 13 -26 -27 8 -47 -1 -60 -39 -65 -41 -4 -44
-32 -7 -67 27 -25 30 -32 25 -72 -6 -52 -29 -117 -49 -141 -21 -22 0 -34 28
-16 18 12 26 12 59 -5 22 -11 39 -23 39 -28 0 -5 33 -9 73 -9 67 0 75 -2 86
-24 7 -13 14 -49 15 -80 3 -69 13 -81 52 -65 16 7 33 11 38 10 5 -1 24 5 43
14 41 20 43 52 3 46 -44 -7 -49 -6 -50 4 0 6 9 11 20 11 11 1 29 9 39 18 13
12 37 16 94 16 42 0 79 -4 82 -10 3 -5 13 -10 21 -10 8 0 14 5 14 10 0 6 -7
10 -16 10 -9 0 -14 6 -12 13 6 16 56 21 72 7 10 -8 20 -8 39 1 21 10 25 19 31
77 8 86 8 316 0 365 -6 34 -9 37 -39 37 -39 0 -47 14 -38 75 5 41 4 45 -15 45
-24 0 -62 -48 -62 -79 0 -14 -6 -21 -20 -21 -16 0 -20 7 -20 32 0 22 -9 39
-31 59 -30 26 -36 28 -123 26 -50 -1 -108 -6 -130 -12z m133 -44 c6 -10 7 -21
4 -25 -9 -8 -44 25 -37 35 9 14 23 10 33 -10z m107 -27 c3 -19 10 -37 15 -40
5 -3 9 -10 9 -15 0 -12 -35 6 -72 36 l-26 22 20 21 c27 27 46 18 54 -24z
m-423 -162 c-6 -4 -13 -18 -14 -32 -4 -27 -22 -31 -27 -6 -3 15 38 60 47 50 3
-3 0 -8 -6 -12z"/>
<path d="M7435 4547 c-42 -25 -65 -52 -71 -84 -8 -43 -25 -56 -82 -57 l-47 -1
-5 -40 c-5 -39 -6 -40 -47 -43 l-43 -3 0 -78 c0 -156 15 -196 59 -157 11 9 23
11 39 5 47 -18 12 -52 -50 -47 l-43 3 0 -70 c0 -66 1 -70 22 -67 18 2 24 -4
31 -30 4 -18 15 -33 23 -33 8 0 24 -7 36 -14 l22 -15 -20 -28 c-24 -33 -41
-35 -77 -10 -15 10 -35 22 -46 25 -15 6 -17 14 -12 42 6 28 3 36 -14 45 -11 6
-20 17 -20 26 0 21 -45 36 -75 24 -13 -5 -31 -23 -40 -39 -10 -20 -34 -39 -73
-57 -62 -28 -89 -65 -77 -105 5 -16 3 -20 -6 -17 -8 3 -14 18 -14 34 -1 28 -2
29 -55 30 -82 0 -97 -5 -105 -33 -8 -32 -45 -74 -45 -51 0 9 7 21 15 28 8 7
15 20 15 30 0 14 -13 19 -77 24 -43 4 -89 13 -103 21 -22 12 -27 11 -47 -12
-16 -16 -32 -23 -50 -21 -39 4 -42 28 -4 28 28 0 31 3 31 30 0 45 -32 39 -82
-15 -23 -25 -46 -45 -51 -45 -6 0 -15 -7 -21 -16 -10 -13 -20 -14 -57 -7 l-44
9 -8 58 c-9 66 -4 80 19 47 12 -16 19 -20 27 -12 6 6 21 11 33 11 20 0 23 7
29 54 4 32 13 57 21 60 19 7 18 36 -1 36 -9 0 -18 -6 -21 -14 -8 -21 -73 -15
-85 7 -11 19 -44 23 -55 5 -4 -6 1 -17 10 -24 17 -12 16 -15 -13 -43 -18 -17
-36 -31 -41 -31 -16 0 -11 56 5 70 8 7 15 16 15 21 0 15 -38 10 -44 -6 -9 -23
-28 -18 -24 7 3 21 -2 23 -67 31 -52 5 -74 13 -85 27 -12 16 -22 18 -54 13
-26 -4 -40 -12 -44 -25 -2 -11 -13 -18 -27 -18 -21 0 -24 -6 -30 -57 -4 -40
-1 -74 9 -108 l15 -50 -27 -22 c-31 -25 -43 -28 -59 -12 -8 8 -22 3 -53 -17
-38 -25 -41 -31 -36 -59 5 -22 2 -36 -9 -45 -8 -7 -15 -19 -15 -26 0 -18 -20
-18 -46 0 -11 8 -31 16 -44 18 -14 2 -34 17 -48 38 -13 19 -32 39 -43 44 -10
5 -19 17 -19 26 0 13 12 19 46 25 25 3 49 4 52 0 4 -3 5 -22 3 -41 -2 -31 0
-34 24 -34 14 0 33 6 41 13 57 46 70 69 34 60 -43 -11 -124 56 -85 71 8 3 18
-2 23 -11 12 -20 32 -8 32 18 0 23 13 25 29 5 14 -16 70 -18 89 -3 6 5 12 24
12 43 0 26 -4 33 -22 36 -21 3 -23 9 -26 63 -4 69 -11 81 -36 62 -14 -10 -20
-32 -24 -88 l-7 -74 -5 78 c-4 52 -11 82 -21 88 -12 8 -11 11 4 23 15 12 16
20 6 65 -7 32 -18 55 -30 61 -10 6 -19 18 -19 28 0 11 -6 7 -18 -13 -17 -27
-17 -32 -3 -56 9 -16 11 -33 7 -45 -8 -18 -9 -18 -23 4 -21 30 -43 28 -43 -4
0 -20 -4 -25 -16 -20 -34 13 -54 -22 -54 -95 0 -58 -3 -70 -20 -79 -25 -13
-17 -30 13 -30 13 0 17 -3 11 -8 -17 -11 -31 -43 -38 -88 -6 -40 -4 -43 39
-78 57 -47 69 -95 34 -132 -12 -13 -28 -24 -35 -24 -7 0 -14 -5 -16 -11 -5
-14 -86 5 -106 25 -14 14 -14 17 3 36 26 29 38 25 31 -10 l-6 -30 26 16 c22
15 25 23 22 63 -3 42 -6 46 -33 52 -23 5 -25 7 -7 8 12 0 22 7 22 15 0 21 -17
28 -39 17 -15 -8 -24 -5 -45 14 -21 19 -26 33 -26 70 0 45 -1 46 -27 41 -80
-15 -185 -27 -202 -21 -20 6 -49 -19 -32 -29 12 -8 11 -86 -1 -86 -4 0 -11 0
-15 0 -5 0 -8 10 -8 22 0 14 -11 28 -28 38 -24 13 -29 13 -37 0 -6 -10 -3 -21
10 -35 11 -12 20 -29 20 -38 0 -10 7 -20 15 -24 9 -3 22 -18 31 -34 8 -16 19
-29 25 -29 21 0 66 -57 71 -90 7 -45 -24 -85 -54 -69 -26 14 -38 3 -38 -35 0
-17 -5 -37 -12 -44 -14 -14 4 -62 24 -62 7 0 19 -4 27 -9 11 -7 9 -13 -8 -30
-29 -29 -76 -25 -76 5 0 12 -7 30 -16 40 -30 34 -51 92 -45 121 3 15 1 35 -4
43 -9 13 -12 13 -24 -2 -18 -25 -56 -24 -56 1 0 11 -4 23 -10 26 -18 11 -42
74 -35 94 4 13 -1 26 -14 38 -13 12 -22 36 -25 64 -3 36 -8 45 -25 47 -16 3
-21 -2 -21 -17 0 -28 -46 -29 -55 -2 -3 12 -19 22 -38 26 -18 4 -39 14 -49 22
-9 8 -18 10 -21 6 -8 -12 -3 -200 5 -208 10 -10 46 13 53 34 3 10 0 30 -6 45
-7 14 -10 29 -6 32 10 11 47 -36 47 -61 0 -14 6 -25 13 -25 19 0 47 -33 47
-54 0 -19 -27 -15 -66 9 -13 8 -26 10 -35 4 -8 -5 -22 -6 -31 -3 -20 6 -32
-28 -26 -67 4 -24 5 -24 16 4 12 29 29 35 38 13 3 -7 2 -40 -3 -72 -7 -49 -11
-59 -28 -59 -18 0 -20 -8 -23 -78 -2 -59 -7 -79 -18 -84 -26 -10 -34 17 -34
122 -1 55 -1 108 -1 117 0 24 -13 30 -41 19 -16 -7 -18 -10 -6 -10 9 -1 20 -6
24 -13 5 -8 0 -9 -15 -5 -29 7 -61 -8 -85 -40 -17 -23 -17 -31 -7 -72 7 -25
16 -63 20 -83 5 -21 19 -52 33 -70 13 -18 37 -57 53 -85 15 -29 31 -53 35 -53
4 0 20 -11 35 -24 20 -17 28 -34 28 -55 0 -19 5 -31 14 -31 7 0 13 5 13 10 0
18 29 10 76 -22 25 -17 58 -31 73 -32 19 -1 27 -7 29 -24 4 -26 -13 -52 -35
-52 -10 0 -12 6 -8 20 9 27 -10 25 -29 -2 -20 -29 -9 -40 52 -53 40 -9 47 -14
50 -36 2 -15 16 -38 33 -53 16 -14 29 -36 29 -49 0 -19 27 -44 73 -65 4 -2 7
18 7 43 0 47 0 47 30 42 28 -6 30 -5 30 25 0 28 2 30 29 25 46 -10 49 19 6 61
-36 35 -47 72 -21 72 23 0 66 -19 83 -36 12 -11 27 -14 50 -11 47 8 65 0 57
-27 -6 -17 -4 -19 7 -10 8 7 28 15 45 18 26 6 32 4 36 -12 3 -11 18 -28 33
-38 24 -16 29 -16 39 -3 32 44 97 51 122 14 12 -18 24 -25 43 -23 54 4 66 -25
27 -66 -29 -32 -32 -32 -59 -2 -31 34 -77 42 -107 18 -19 -16 -21 -22 -11 -40
10 -19 8 -23 -18 -36 -16 -9 -31 -22 -34 -31 -4 -8 -18 -15 -32 -15 -29 0 -34
-18 -7 -26 9 -3 26 -9 37 -14 11 -5 28 -11 38 -14 9 -3 17 -13 17 -23 0 -13 3
-14 12 -5 19 19 50 14 83 -13 23 -19 27 -27 17 -37 -6 -6 -12 -20 -12 -29 0
-9 -7 -22 -15 -29 -23 -19 -18 -45 10 -58 23 -11 27 -9 36 12 8 16 8 30 1 42
-13 23 6 66 27 62 9 -2 25 -22 36 -45 15 -33 25 -43 43 -43 13 0 33 -5 45 -11
18 -10 23 -8 35 10 17 25 57 28 71 4 5 -10 27 -27 48 -38 34 -18 39 -25 43
-65 7 -54 36 -120 53 -120 6 0 23 9 37 20 14 11 35 20 48 20 13 0 22 6 22 15
0 8 -4 15 -8 15 -16 0 -44 76 -40 111 3 32 6 34 51 43 38 6 52 5 65 -7 9 -8
27 -18 40 -21 12 -4 22 -14 22 -21 0 -8 8 -19 18 -24 17 -9 18 -7 8 32 -7 23
-17 52 -24 64 -6 12 -12 32 -12 45 0 37 -20 51 -42 31 -26 -23 -53 -6 -53 33
0 16 -5 38 -12 50 -16 28 -4 40 44 41 40 0 43 -2 58 -39 l16 -40 73 5 c82 5
98 11 90 31 -3 8 -1 17 5 21 14 8 14 45 1 45 -5 0 -10 -6 -10 -14 0 -8 -13
-21 -29 -29 -25 -12 -33 -13 -48 -2 -17 13 -17 14 2 35 19 21 19 21 -3 27 -29
7 -23 24 14 42 16 8 35 23 42 33 15 20 42 24 42 6 0 -7 -12 -22 -27 -34 -28
-22 -28 -23 -8 -38 11 -8 28 -13 37 -10 11 3 19 -3 23 -16 5 -17 12 -20 35
-15 20 4 29 2 33 -9 4 -9 17 -16 30 -16 13 0 32 -9 42 -20 19 -21 50 -26 60
-10 3 6 19 10 35 10 16 0 31 4 34 9 3 5 32 12 63 16 51 6 63 12 98 48 30 31
48 42 73 43 18 0 35 -3 38 -7 3 -5 25 -6 50 -2 29 4 54 1 69 -7 20 -11 27 -11
40 0 14 11 17 10 22 -8 3 -12 9 -22 13 -22 22 0 40 14 40 31 0 13 7 19 23 19
28 -1 57 -22 57 -44 0 -9 11 -21 24 -28 44 -20 45 -58 1 -58 -29 0 -43 -18
-20 -26 16 -6 71 12 81 27 2 4 -1 17 -8 28 -9 15 -9 23 1 35 11 13 11 19 1 31
-10 13 -9 15 8 15 12 0 27 9 35 20 8 11 28 25 45 31 51 18 102 114 79 150 -9
15 -9 24 1 40 11 18 11 24 -3 39 -12 13 -13 20 -5 25 7 4 18 21 25 39 14 31
14 31 22 7 6 -14 24 -28 48 -37 34 -11 40 -11 51 4 17 23 28 9 14 -17 -9 -18
-8 -21 8 -21 23 0 52 30 52 54 0 23 -53 66 -118 96 -33 14 -18 30 22 23 28 -4
35 -2 41 16 3 11 15 21 25 21 10 0 22 5 26 11 3 6 27 24 52 40 38 24 57 29
107 29 56 0 63 2 83 30 19 25 62 42 62 24 0 -27 -74 -103 -102 -104 -53 -1
-60 -24 -22 -65 30 -32 45 -124 25 -149 -16 -19 -3 -46 28 -57 l26 -10 -25
-19 c-22 -17 -27 -17 -42 -4 -15 14 -17 13 -22 -4 -8 -25 30 -92 53 -92 22 0
41 19 41 42 0 9 9 22 20 28 15 8 19 17 14 35 -10 41 17 71 72 80 42 6 49 4 65
-16 l18 -24 31 24 c23 16 35 20 43 12 7 -7 5 -12 -7 -17 -28 -11 -66 -53 -66
-74 0 -10 -5 -22 -11 -26 -8 -5 -6 -10 5 -16 9 -5 16 -15 16 -22 0 -16 38 -66
51 -66 5 0 9 22 9 50 0 49 0 49 40 60 22 6 45 8 51 4 6 -3 19 3 29 14 10 11
24 22 31 24 22 7 -8 44 -54 66 -67 31 -74 46 -44 82 l26 30 -59 60 c-32 33
-61 60 -65 60 -3 0 -14 -6 -25 -12 -15 -10 -22 -10 -32 0 -11 11 -10 15 5 23
11 6 17 20 15 32 -2 22 2 27 23 27 6 0 33 -22 61 -50 50 -50 108 -87 108 -69
0 6 -12 21 -27 35 -14 13 -24 27 -20 30 10 10 47 -7 47 -21 0 -7 19 -28 43
-47 23 -18 44 -36 45 -40 2 -5 8 -8 14 -8 5 0 25 -12 44 -27 l35 -26 42 47
c40 45 44 47 71 37 16 -7 31 -9 34 -6 3 3 5 29 5 58 -1 28 3 57 9 64 11 14 19
153 9 153 -4 0 -12 -5 -19 -12 -9 -9 -12 -4 -12 24 0 40 16 52 56 42 14 -4 31
-1 40 7 13 11 12 15 -11 35 -15 13 -32 25 -38 27 -9 3 -8 11 1 32 l13 28 23
-22 c28 -26 48 -27 71 -2 11 13 33 21 64 23 39 3 46 6 49 26 4 29 52 32 52 3
0 -11 3 -26 6 -35 4 -10 -1 -18 -12 -22 -70 -23 -103 -55 -69 -68 8 -3 15 -16
15 -29 0 -13 5 -28 10 -33 7 -7 -1 -22 -25 -48 -34 -36 -45 -69 -26 -81 5 -3
12 -1 16 5 3 5 17 10 30 10 22 0 24 -3 19 -29 -5 -23 -2 -32 15 -40 17 -10 21
-21 21 -61 0 -45 -3 -51 -40 -80 -30 -23 -48 -31 -66 -27 -18 3 -33 -2 -46
-15 -10 -10 -23 -16 -27 -13 -18 10 -70 -8 -76 -26 -4 -11 -13 -19 -22 -19
-15 0 -13 -25 3 -25 22 -1 54 -32 54 -51 0 -12 7 -27 15 -34 12 -10 13 -16 5
-24 -8 -8 -16 -5 -30 12 -18 21 -40 28 -53 16 -12 -12 17 -54 56 -80 35 -23
48 -26 99 -22 51 4 61 2 70 -15 11 -21 -3 -37 -34 -37 -9 0 -20 -5 -23 -10
-11 -18 13 -37 60 -49 24 -6 46 -15 50 -20 6 -11 103 -3 120 9 6 4 34 15 64
24 l54 17 25 -30 c13 -18 29 -30 35 -29 7 1 27 -6 45 -16 42 -22 92 -14 92 15
0 16 5 18 25 13 14 -3 42 1 63 9 21 8 58 17 82 18 37 3 45 0 48 -15 6 -28 -17
-37 -80 -30 -32 4 -58 3 -58 -1 0 -4 9 -20 20 -36 22 -30 45 -30 55 0 4 14 17
18 66 18 34 1 66 6 72 12 6 6 19 11 29 11 10 0 27 5 37 12 41 26 72 -52 36
-92 -11 -12 -13 -27 -7 -61 7 -43 8 -44 42 -41 40 4 70 33 70 68 0 13 15 38
34 58 31 31 39 34 75 29 34 -5 41 -9 41 -28 0 -29 34 -59 59 -52 13 3 21 -1
24 -14 5 -19 27 -27 27 -10 0 5 25 28 56 52 50 38 57 41 65 26 10 -18 39 -24
39 -8 0 5 -7 17 -16 26 -12 11 -15 26 -11 51 5 31 3 36 -20 45 l-27 10 37 30
c19 16 37 39 39 52 3 20 9 22 68 25 72 2 103 -9 82 -30 -20 -20 -14 -36 13
-30 16 3 25 11 25 23 0 35 90 65 107 36 10 -17 80 -29 88 -16 4 5 24 6 46 3
39 -7 40 -6 33 20 -8 35 7 33 51 -5 34 -31 36 -31 55 -14 27 24 25 42 -4 49
-17 4 -26 14 -28 33 -4 35 -31 52 -58 35 -24 -14 -27 -9 -32 48 -2 26 -8 36
-23 39 -11 2 -35 16 -53 32 -36 32 -67 37 -76 14 -3 -8 -14 -15 -24 -15 -18 0
-46 -18 -84 -53 -18 -17 -20 -17 -45 3 -14 11 -31 20 -38 20 -11 0 -11 6 -2
30 9 23 9 35 -1 50 -10 16 -8 24 12 47 20 24 26 25 40 14 14 -11 16 -11 16 3
0 9 -7 16 -15 16 -11 0 -15 11 -15 38 -1 29 -3 33 -10 20 -15 -24 -97 -23
-105 2 -4 13 -20 19 -65 24 -87 10 -126 60 -83 108 14 15 14 18 1 18 -8 0 -27
9 -41 20 -14 11 -35 20 -46 20 -12 0 -21 6 -21 14 0 21 21 76 29 76 4 0 20
-16 35 -35 16 -19 32 -32 37 -29 14 9 10 36 -8 57 -12 12 -18 36 -18 66 0 34
-6 53 -24 74 -29 32 -57 35 -64 6 -5 -20 -6 -20 -41 3 -34 22 -49 61 -27 70 4
2 11 13 15 25 15 48 -60 79 -128 53 -36 -13 -35 -54 2 -77 15 -10 48 -40 74
-67 39 -40 46 -52 37 -67 -5 -11 -18 -19 -28 -19 -20 0 -78 27 -86 39 -7 13
-55 1 -123 -31 -35 -16 -66 -27 -70 -23 -4 3 -1 10 7 14 7 5 11 17 9 28 -1 11
3 27 10 36 11 13 10 17 -7 27 -12 6 -21 20 -21 30 0 11 -4 20 -10 20 -5 0 -20
11 -34 25 -25 25 -50 32 -60 17 -3 -5 -3 -25 1 -45 4 -26 11 -37 23 -37 10 0
23 -6 29 -14 10 -12 8 -17 -9 -26 -17 -9 -19 -14 -10 -25 9 -10 8 -19 0 -35
-8 -15 -8 -25 0 -34 7 -10 7 -22 0 -40 -5 -15 -10 -39 -10 -53 0 -14 -11 -41
-25 -59 -17 -23 -25 -45 -25 -74 0 -33 -4 -43 -19 -47 -12 -3 -17 -11 -14 -23
3 -10 -8 -45 -25 -77 -34 -68 -56 -146 -37 -135 39 23 125 159 125 198 0 7 11
15 24 18 13 3 26 15 29 26 6 22 36 26 68 9 16 -8 35 -5 87 14 37 14 89 28 116
31 27 3 55 11 63 17 10 9 18 8 31 -5 10 -9 24 -16 30 -16 6 0 17 -10 23 -22 7
-13 23 -34 35 -47 30 -30 31 -52 3 -48 -12 1 -24 -4 -26 -10 -6 -15 33 -18 42
-3 11 18 35 11 35 -10 0 -11 -4 -20 -10 -20 -5 0 -26 -16 -46 -36 l-37 -36 29
-23 c25 -20 27 -25 15 -39 -8 -9 -20 -15 -28 -12 -18 7 -16 -19 3 -38 17 -18
45 -21 60 -7 5 6 34 -2 73 -20 35 -16 71 -29 81 -29 19 0 83 -57 72 -64 -5 -3
-14 -1 -22 4 -16 10 -60 -24 -60 -46 0 -7 -23 -32 -51 -57 -49 -43 -52 -44
-85 -32 -19 6 -40 17 -46 23 -7 7 -21 12 -32 12 -12 0 -30 7 -40 15 -11 8 -32
15 -48 15 -17 0 -31 7 -38 19 -8 16 -20 19 -69 17 -42 -1 -66 -7 -80 -20 -14
-13 -21 -15 -21 -6 0 8 -8 10 -22 7 -13 -3 -32 1 -42 9 -32 23 -56 18 -56 -12
0 -16 -5 -24 -12 -21 -7 2 -13 18 -13 36 -1 41 -23 59 -88 67 -31 4 -51 13
-55 23 -3 9 -14 22 -25 30 -13 9 -17 20 -12 38 4 19 1 26 -15 30 -14 4 -20 14
-20 32 0 14 -4 32 -9 40 -14 22 -31 3 -24 -29 5 -28 2 -31 -60 -60 -36 -16
-71 -30 -79 -30 -7 0 -23 -7 -34 -15 -19 -13 -25 -12 -60 5 -49 26 -54 25 -84
-10 -13 -17 -28 -30 -32 -30 -15 0 -8 27 12 45 21 19 27 45 10 45 -6 0 -8 11
-4 25 4 18 1 27 -10 31 -23 9 -21 78 5 131 11 24 24 43 28 43 13 0 32 51 26
69 -4 12 3 21 19 29 18 8 27 22 32 49 4 21 15 50 26 65 11 16 16 32 13 38 -3
5 -3 16 2 23 4 6 8 34 8 62 0 55 17 68 60 45 34 -18 68 -9 83 23 8 16 11 35 8
43 -6 14 -57 20 -70 7 -10 -10 -119 -32 -129 -26 -5 3 -6 16 -3 29 6 21 3 24
-24 24 -36 0 -70 31 -70 63 0 30 -18 47 -48 47 -21 0 -23 2 -12 15 10 12 15
13 21 4 12 -20 41 -2 37 23 -2 17 -11 24 -31 26 -22 3 -29 10 -34 33 -3 16 -9
29 -13 29 -11 0 -22 -83 -14 -103 8 -21 -5 -22 -34 -1 -26 18 -28 36 -7 54 8
7 15 25 15 39 0 15 7 36 15 47 21 27 18 39 -11 55 -25 13 -26 16 -20 70 8 64
-7 89 -50 89 -25 0 -26 1 -28 100 -1 32 -4 35 -36 40 l-35 5 -1 70 -1 70 -39
8 c-51 10 -137 11 -196 2 -46 -7 -48 -9 -48 -39 0 -18 5 -37 11 -43 8 -8 8
-25 -1 -62 -12 -50 -30 -69 -30 -32 0 21 -22 33 -45 25 -10 -4 -15 -27 -17
-82 l-3 -77 -29 2 c-28 2 -28 2 -22 -45 14 -105 19 -215 9 -209 -6 4 -13 29
-17 57 l-7 50 -39 0 -40 0 0 -63 c0 -68 -10 -87 -47 -87 -21 0 -22 -5 -25 -71
-3 -61 -6 -73 -23 -79 -11 -4 -30 -4 -42 1 -23 8 -23 10 -23 211 0 209 -6 242
-34 219 -14 -12 -16 -10 -16 7 0 12 5 24 11 28 7 4 8 23 4 51 -9 61 -14 71
-36 78 -13 4 -19 16 -19 35 0 52 -8 60 -60 60 -66 0 -80 7 -80 41 0 67 -148
127 -215 86z m19 -83 c6 -49 1 -67 -17 -61 -14 4 -16 107 -1 107 6 0 14 -21
18 -46z m236 -171 c0 -20 -3 -24 -11 -16 -7 7 -9 19 -6 27 10 24 17 19 17 -11z
m790 -30 c0 -12 -4 -24 -9 -28 -16 -9 -23 13 -16 47 5 22 9 27 16 17 5 -8 9
-24 9 -36z m-38 -160 c-2 -24 -8 -43 -13 -43 -10 0 -12 44 -3 78 10 37 21 12
16 -35z m-896 -97 c6 -35 0 -56 -17 -56 -5 0 -9 20 -9 45 0 53 16 60 26 11z
m-2162 18 c19 -7 21 -31 4 -37 -15 -5 -58 13 -58 23 0 19 25 25 54 14z m3036
-28 c0 -38 -16 -57 -26 -32 -8 21 3 66 16 66 6 0 10 -15 10 -34z m218 -3 c14
-28 22 -82 13 -88 -12 -7 -40 38 -48 75 -4 23 -2 30 10 30 9 0 20 -8 25 -17z
m-2657 -86 c-8 -8 -11 -3 -11 19 1 25 2 27 11 11 8 -14 8 -22 0 -30z m-601 5
c0 -4 -6 -14 -12 -20 -10 -10 -10 -17 -1 -31 10 -15 8 -22 -6 -35 -18 -16 -19
-15 -29 13 -6 17 -16 31 -21 31 -17 0 -13 21 7 36 19 15 62 19 62 6z m1665
-91 c7 -12 -12 -24 -25 -16 -11 7 -4 25 10 25 5 0 11 -4 15 -9z m355 -14 c0
-8 -3 -16 -6 -20 -9 -8 -54 14 -48 24 8 14 54 10 54 -4z m-1389 -24 c8 -22 7
-30 -7 -40 -21 -16 -34 -8 -34 21 0 19 16 46 27 46 2 0 8 -12 14 -27z m305
-68 c7 -30 -3 -66 -15 -47 -4 6 -21 15 -39 18 -28 6 -32 4 -32 -15 0 -16 6
-21 25 -21 27 0 34 -15 10 -24 -8 -3 -21 2 -29 10 -10 9 -24 12 -41 8 -44 -11
-28 14 38 56 34 22 65 40 69 40 4 0 10 -11 14 -25z m1164 15 c0 -5 -10 -10
-22 -10 -19 0 -20 2 -8 10 19 13 30 13 30 0z m-1020 -29 c0 -11 -39 -21 -45
-11 -2 4 -2 10 2 14 10 9 43 7 43 -3z m-504 -23 c-3 -13 -6 -27 -6 -31 0 -5
-9 -5 -20 -2 -17 5 -20 2 -20 -20 0 -26 -9 -36 -87 -105 -21 -19 -42 -43 -46
-52 -3 -10 -13 -18 -21 -18 -14 0 -12 16 9 88 6 16 3 22 -8 22 -14 0 -37 28
-37 43 0 15 74 45 125 50 45 4 63 11 74 26 19 29 45 28 37 -1z m444 -11 c0
-17 -20 -37 -37 -37 -16 0 -17 22 -1 38 16 16 38 15 38 -1z m439 -27 c23 -32
21 -50 -8 -50 -23 0 -41 19 -41 45 0 44 19 45 49 5z m756 -20 c-3 -5 -1 -19 5
-30 15 -29 -4 -25 -24 5 -21 31 -20 35 5 35 11 0 17 -4 14 -10z m1276 -10 c27
-15 24 -40 -5 -40 -31 0 -56 28 -35 41 18 11 17 11 40 -1z m859 -65 c0 -7 10
-15 22 -19 18 -4 20 -8 10 -18 -9 -9 -15 -9 -24 0 -7 7 -20 12 -30 12 -23 0
-36 29 -18 40 17 10 40 2 40 -15z m-3990 6 c0 -5 -7 -12 -16 -15 -22 -9 -24
-8 -24 9 0 8 9 15 20 15 11 0 20 -4 20 -9z m1991 -79 c9 -11 25 -25 35 -33 10
-8 27 -29 36 -47 15 -28 16 -34 3 -38 -22 -9 -46 3 -52 26 -3 11 -9 20 -14 20
-8 0 -59 73 -59 85 0 13 37 3 51 -13z m-134 -47 c13 -19 18 -37 13 -40 -13 -8
-79 5 -86 17 -6 9 33 58 45 58 3 0 16 -16 28 -35z m-1867 2 c0 -11 -82 -77
-95 -77 -14 0 -1 29 26 58 30 32 69 43 69 19z m620 -4 c0 -12 -33 -43 -47 -43
-20 0 -16 16 10 33 24 17 37 21 37 10z m-1359 -26 c-1 -12 -15 -9 -19 4 -3 6
1 10 8 8 6 -3 11 -8 11 -12z m577 -24 c5 -17 -26 -29 -40 -15 -6 6 -7 15 -3
22 9 14 37 9 43 -7z m-584 -39 c34 -33 10 -52 -36 -28 -44 22 -45 24 -28 34
22 14 47 12 64 -6z m2566 -9 c0 -8 -7 -15 -15 -15 -8 0 -15 7 -15 15 0 8 7 15
15 15 8 0 15 -7 15 -15z m1227 -19 c-4 -9 -14 -16 -22 -16 -9 0 -14 3 -12 8 2
4 7 16 11 26 5 14 10 16 18 8 6 -6 8 -18 5 -26z m-2400 -4 c20 -27 20 -29 3
-39 -14 -9 -25 -6 -54 14 -33 24 -34 27 -18 39 27 21 46 17 69 -14z m-907 -22
c0 -5 -9 -14 -20 -20 -22 -12 -27 -1 -8 18 14 14 28 16 28 2z m-1106 -102 c4
-17 2 -28 -4 -28 -5 0 -10 14 -10 32 0 36 4 35 14 -4z m6149 -223 c7 -18 -6
-27 -27 -19 -17 7 -20 16 -9 27 11 12 31 8 36 -8z m-1453 -74 c0 -5 -9 -11
-19 -14 -14 -3 -18 -11 -14 -26 4 -15 1 -21 -11 -21 -12 0 -16 9 -16 35 0 32
2 35 30 35 17 0 30 -4 30 -9z m-306 -16 c-4 -8 -10 -15 -15 -15 -5 0 -9 7 -9
15 0 8 7 15 15 15 9 0 12 -6 9 -15z m50 -1 c4 -10 1 -14 -6 -12 -15 5 -23 28
-10 28 5 0 13 -7 16 -16z m-93 -67 c-8 -8 -11 -5 -11 9 0 27 14 41 18 19 2 -9
-1 -22 -7 -28z m492 -21 c21 -17 23 -40 1 -32 -9 3 -21 6 -27 6 -21 0 -40 17
-33 29 9 15 37 13 59 -3z m161 -8 c9 -12 16 -35 16 -50 0 -24 -4 -28 -28 -28
-30 0 -72 32 -72 55 0 13 43 44 62 45 4 0 14 -10 22 -22z m-4564 2 c0 -5 -9
-10 -21 -10 -11 0 -17 5 -14 10 3 6 13 10 21 10 8 0 14 -4 14 -10z m4044 1 c3
-5 -1 -11 -9 -15 -15 -6 -29 7 -18 18 9 9 21 8 27 -3z m-3274 -36 c0 -10 -10
-15 -30 -15 -20 0 -30 5 -30 15 0 10 10 15 30 15 20 0 30 -5 30 -15z m157 -3
c14 -9 33 -56 33 -84 0 -11 10 -28 22 -37 24 -20 17 -41 -13 -41 -13 0 -19 7
-19 24 0 16 -7 27 -20 31 -31 10 -54 62 -41 91 11 25 19 28 38 16z m1403 -25
c0 -21 -12 -28 -27 -16 -19 16 -16 29 7 29 11 0 20 -6 20 -13z m-860 -15 c0
-29 -37 -58 -58 -45 -24 15 -21 35 8 50 35 18 50 16 50 -5z m3685 -59 c-3 -10
-9 -31 -12 -48 l-6 -29 -12 39 c-14 47 -11 55 17 55 15 0 18 -4 13 -17z
m-3617 -18 c1 -5 -9 -11 -24 -13 -33 -4 -76 6 -70 16 7 11 91 9 94 -3z m-329
-62 c2 -2 -5 -3 -17 -3 -14 0 -22 6 -22 16 0 14 3 15 18 3 9 -7 19 -15 21 -16z"/>
<path d="M11130 4535 c0 -15 4 -24 10 -20 6 3 10 12 10 20 0 8 -4 17 -10 20
-6 4 -10 -5 -10 -20z"/>
<path d="M6375 4530 c-4 -6 -15 -8 -25 -5 -10 3 -21 1 -25 -5 -4 -6 -15 -8
-26 -5 -30 10 -39 -2 -27 -36 9 -27 15 -30 40 -27 42 7 33 -24 -11 -38 -19 -6
-40 -18 -46 -28 -11 -14 -14 -15 -25 -1 -12 14 -15 14 -31 -1 -16 -15 -19 -15
-24 -1 -4 8 -15 17 -25 20 -11 3 -22 18 -26 33 -10 42 -24 57 -40 43 -17 -14
-34 -3 -34 22 0 11 -4 18 -9 15 -11 -7 -21 -285 -10 -313 5 -13 5 -44 0 -70
-11 -55 -1 -88 29 -96 28 -7 36 15 16 45 -9 14 -13 28 -9 31 10 11 43 8 43 -3
0 -5 10 -10 23 -10 12 0 31 -7 41 -15 11 -8 26 -15 33 -15 17 0 17 26 -1 33
-7 3 -18 19 -24 36 -9 26 -8 34 8 49 13 12 16 22 10 32 -18 29 -11 59 14 66
29 7 46 -1 46 -22 0 -8 13 -17 30 -20 23 -5 30 -12 30 -31 0 -20 4 -23 28 -21
22 2 28 -2 30 -20 3 -17 -3 -25 -26 -33 -17 -6 -33 -16 -36 -24 -3 -8 -13 -11
-27 -8 -19 5 -21 3 -16 -23 18 -94 53 -154 105 -178 43 -21 46 -21 83 13 28
26 30 32 19 46 -9 11 -22 14 -41 10 -22 -5 -29 -2 -34 16 -7 22 -8 22 -21 4
-14 -18 -15 -18 -34 3 -25 27 -25 30 1 58 12 13 27 34 33 46 8 16 22 24 44 26
27 3 32 7 32 29 0 13 -9 36 -20 50 -11 15 -20 41 -20 61 0 29 -2 32 -14 23
-24 -20 -25 21 -1 41 20 18 20 18 1 33 -19 15 -19 15 2 35 28 27 31 106 5 126
-22 16 -30 17 -38 4z m-231 -181 c-7 -11 -34 -12 -34 -1 0 14 11 21 26 15 8
-3 11 -9 8 -14z"/>
<path d="M6174 4509 c-5 -9 -17 -18 -26 -22 -17 -6 -15 -37 2 -37 12 0 42 50
37 63 -2 8 -7 6 -13 -4z"/>
<path d="M2542 4483 c2 -10 11 -19 21 -21 24 -5 21 15 -4 28 -18 10 -20 9 -17
-7z"/>
<path d="M4350 4179 l0 -321 30 7 c16 3 37 2 47 -3 11 -7 24 -7 36 0 13 7 25
5 43 -7 14 -9 37 -15 52 -13 25 3 27 6 24 41 -2 28 1 37 13 37 8 0 15 -4 15
-10 0 -5 11 -10 23 -10 13 0 32 -9 42 -20 22 -24 77 -27 99 -5 8 8 23 15 33
15 41 1 92 73 100 142 3 29 10 58 14 64 5 6 6 24 3 40 -3 17 1 41 10 59 21 40
20 62 -3 68 -14 3 -23 -4 -35 -30 -20 -42 -20 -53 0 -68 21 -15 10 -55 -15
-55 -10 0 -30 -9 -45 -21 -14 -11 -31 -17 -37 -13 -8 5 -7 10 5 16 9 5 16 20
16 33 0 28 24 34 34 8 5 -13 9 -14 19 -4 9 10 8 15 -5 25 -22 16 -23 62 -3 82
16 17 20 60 6 68 -5 3 -14 -1 -21 -9 -19 -22 -30 -8 -30 36 0 28 -4 39 -12 36
-9 -2 -12 -23 -11 -63 2 -32 -2 -76 -9 -96 -8 -29 -8 -41 1 -52 10 -12 8 -16
-9 -21 -15 -5 -20 -14 -18 -28 7 -51 -149 -118 -250 -108 -20 2 -23 -1 -17
-18 5 -17 2 -21 -15 -21 -16 0 -20 4 -16 18 4 12 -6 35 -29 65 -19 25 -35 52
-35 59 0 8 -5 19 -10 24 -6 6 -12 73 -14 150 -2 76 -4 158 -5 182 -1 23 -5 42
-11 42 -6 0 -10 -114 -10 -321z m520 -119 c0 -5 -9 -10 -21 -10 -11 0 -17 5
-14 10 3 6 13 10 21 10 8 0 14 -4 14 -10z"/>
<path d="M2495 4469 c-3 -9 -5 -34 -3 -55 3 -34 6 -39 31 -42 37 -4 48 25 19
49 -12 9 -26 28 -31 41 -8 19 -10 20 -16 7z"/>
<path d="M12291 4442 c-17 -6 -13 -29 7 -36 48 -17 97 -53 97 -71 0 -24 -38
-32 -70 -15 -18 10 -27 9 -49 -5 -31 -20 -56 -14 -56 14 0 26 -32 43 -73 39
l-32 -3 -2 -469 c-2 -384 -5 -472 -16 -483 -20 -20 -66 -6 -78 24 -5 13 -9 91
-9 173 0 156 -6 186 -46 228 -17 17 -31 23 -55 20 -42 -4 -52 -28 -12 -28 37
0 45 -8 33 -30 -26 -49 -159 -83 -214 -55 -22 12 -30 11 -56 -1 -36 -19 -50
-12 -50 25 0 50 -21 66 -84 63 -60 -2 -75 11 -31 28 22 8 24 13 15 29 -5 11
-7 26 -4 34 3 9 -2 29 -10 46 -20 38 -67 49 -132 30 -53 -16 -65 -33 -38 -54
18 -13 18 -14 2 -15 -10 0 -18 -6 -18 -13 0 -19 39 -59 51 -51 15 9 39 -16 32
-34 -4 -9 -19 -30 -35 -46 -20 -22 -25 -33 -17 -42 6 -7 9 -21 7 -31 -3 -14
11 -25 59 -46 53 -24 70 -26 119 -21 33 4 64 14 75 25 16 16 19 16 48 -2 17
-10 38 -19 46 -19 9 0 21 -11 27 -25 14 -31 22 -31 36 0 7 14 23 27 39 30 15
4 38 11 51 16 89 36 163 -30 91 -81 -26 -19 -29 -26 -23 -54 3 -17 10 -36 15
-42 7 -8 -4 -13 -33 -18 -23 -4 -51 -14 -60 -23 -24 -22 -37 -7 -31 35 4 26
11 34 33 39 22 4 29 12 33 41 8 44 3 52 -32 52 -25 0 -45 -14 -79 -55 -8 -9
-29 -15 -55 -15 -65 -1 -105 -41 -53 -54 22 -5 24 -10 19 -46 -7 -48 5 -55 74
-42 45 8 53 6 79 -14 27 -22 28 -25 12 -41 -16 -15 -19 -15 -35 -1 -42 37 -60
40 -126 22 -34 -10 -68 -24 -75 -31 -18 -17 -6 -53 17 -53 10 0 24 -7 32 -16
7 -9 30 -23 51 -31 54 -21 52 -50 -2 -45 -26 3 -40 9 -40 18 0 8 -5 14 -12 14
-7 0 -24 11 -38 25 l-27 26 -17 -26 c-19 -29 -38 -32 -56 -10 -17 21 -34 4
-25 -24 4 -14 15 -21 33 -21 49 -1 125 -10 130 -14 2 -3 2 -13 -2 -22 -5 -13
-14 -15 -40 -11 -31 5 -33 4 -28 -21 4 -21 2 -24 -12 -19 -10 4 -20 7 -22 7
-2 0 -4 7 -4 15 0 24 -18 17 -34 -14 -17 -32 -47 -44 -80 -31 -25 10 -66 47
-66 60 0 6 -13 10 -30 10 -26 0 -30 3 -30 29 0 38 19 91 34 91 6 0 19 -8 28
-17 37 -40 47 -44 69 -32 18 9 20 17 15 47 -4 21 -7 46 -7 57 -2 46 -11 66
-39 80 -28 14 -31 14 -37 -1 -3 -9 -1 -30 5 -46 13 -34 -1 -45 -46 -33 -15 3
-37 7 -49 7 -12 0 -23 8 -26 19 -3 11 -14 19 -26 19 -11 0 -36 14 -54 30 -19
17 -44 30 -54 30 -11 0 -32 9 -46 20 -14 11 -30 20 -36 20 -7 0 -23 7 -36 16
-20 13 -23 20 -15 34 13 25 5 29 -77 39 -69 9 -88 6 -64 -8 25 -16 8 -44 -29
-46 -113 -8 -151 -18 -168 -44 -9 -14 -28 -40 -43 -58 -24 -28 -27 -39 -28
-117 0 -48 -3 -90 -5 -95 -7 -11 38 -103 58 -120 9 -7 16 -19 16 -27 0 -7 9
-18 19 -24 48 -25 61 -70 25 -84 -21 -8 -18 -65 4 -72 9 -3 25 -10 34 -15 10
-5 34 -9 54 -9 l37 0 -49 26 c-64 34 -68 38 -54 64 8 15 18 21 33 17 12 -3 60
-13 107 -22 47 -10 89 -21 94 -25 4 -5 17 1 28 12 15 15 28 18 54 13 23 -4 41
-1 56 10 23 16 55 19 82 9 10 -4 13 -14 10 -33 -6 -30 6 -45 47 -54 58 -14 74
39 20 68 l-26 14 26 1 c15 0 51 -11 80 -24 l54 -25 -42 0 c-39 -1 -43 -3 -43
-26 0 -18 7 -26 24 -31 14 -3 27 -12 30 -20 3 -8 11 -14 17 -14 7 0 17 -7 24
-17 18 -24 49 -10 36 16 -23 43 46 57 101 21 39 -26 50 -50 23 -50 -12 0 -10
-8 9 -39 23 -36 23 -39 8 -56 -16 -16 -15 -17 23 -10 35 5 45 2 68 -19 17 -15
40 -26 56 -26 16 0 35 -7 42 -16 11 -13 25 -15 71 -10 32 3 72 13 88 21 25 13
29 20 24 44 -5 22 -1 32 17 44 14 10 28 13 37 8 9 -5 26 -4 40 2 20 9 26 8 33
-6 6 -9 17 -17 25 -17 8 0 24 -16 35 -35 12 -20 29 -35 40 -35 22 0 25 -20 7
-39 -11 -10 -8 -17 15 -35 32 -26 34 -42 7 -51 -11 -3 -20 -11 -20 -17 0 -6
-7 -16 -17 -23 -21 -15 -10 -45 16 -45 26 0 36 17 21 35 -10 13 -8 15 17 15
24 0 29 -4 29 -22 -1 -17 5 -24 22 -26 27 -4 93 24 105 45 6 10 21 12 57 7 47
-6 48 -6 55 25 6 30 8 31 65 31 48 0 67 -5 102 -29 34 -23 57 -29 116 -33 75
-6 86 0 56 33 -24 26 -9 39 46 39 33 0 50 -5 54 -15 7 -18 36 -20 36 -2 0 7
-7 23 -17 36 -15 23 -15 25 3 38 10 8 28 12 39 9 11 -3 26 -1 34 3 9 6 26 2
48 -10 47 -27 52 -24 46 21 l-6 40 49 -2 c71 -2 203 11 224 22 23 12 60 13 60
1 0 -5 -7 -14 -16 -22 -14 -11 -14 -13 0 -21 9 -5 16 -16 16 -23 0 -20 -39
-19 -60 0 -15 14 -18 13 -28 -9 -10 -23 -8 -24 31 -34 69 -16 171 4 107 21
-16 4 -20 14 -20 44 0 21 -6 45 -12 52 -11 10 -9 15 6 27 11 8 26 14 33 14 10
0 13 82 13 430 l0 430 -47 0 c-55 0 -69 -7 -74 -35 -5 -26 -80 -38 -109 -18
-11 8 -58 16 -107 19 -48 3 -101 10 -116 16 -20 8 -82 9 -196 4 -140 -5 -170
-4 -180 8 -8 10 -12 52 -10 129 2 91 -1 119 -14 137 -11 16 -13 29 -6 47 5 13
9 49 9 78 0 43 -4 57 -21 68 -14 10 -17 17 -9 22 20 13 31 55 19 77 -8 15 -14
17 -22 9 -6 -6 -15 -11 -19 -11 -16 0 -7 20 19 44 23 22 26 29 17 53 -12 36
-25 30 -45 -23 -9 -24 -30 -54 -45 -67 -27 -24 -28 -27 -16 -60 9 -25 10 -42
2 -61 -14 -38 -14 -38 20 -31 34 7 35 6 18 -30 -6 -14 -20 -25 -30 -25 -10 0
-27 -6 -39 -12 -17 -11 -22 -10 -30 5 -13 21 -45 22 -57 1 -7 -12 -17 -15 -39
-10 -26 6 -29 10 -25 36 3 23 -4 37 -38 72 l-41 43 -20 -27 c-26 -35 -39 -36
-39 -3 0 20 -6 27 -30 31 -16 4 -27 11 -24 16 7 10 56 6 87 -7 12 -5 17 -3 17
9 0 17 29 36 57 36 10 0 25 5 33 10 13 9 12 12 -5 22 -19 11 -17 13 15 19 19
4 39 3 44 -2 17 -15 26 -10 23 13 -2 19 4 23 41 28 52 8 74 33 67 78 -5 29 -4
32 19 32 33 0 40 14 16 35 -10 9 -22 30 -25 46 -7 33 -27 36 -87 15 -21 -7
-40 -11 -43 -7 -9 8 -110 28 -124 23z m27 -240 c4 -14 -34 -16 -42 -3 -6 10
13 21 28 17 6 -1 12 -8 14 -14z m-87 -4 c-1 -5 -1 -19 -1 -32 0 -26 -34 -41
-65 -30 -26 10 -15 57 15 65 30 9 51 7 51 -3z m-816 -246 c0 -18 -20 -15 -23
4 -3 10 1 15 10 12 7 -3 13 -10 13 -16z m1203 -24 c-6 -18 -28 -21 -28 -4 0 9
7 16 16 16 9 0 14 -5 12 -12z m-188 -54 c0 -9 -7 -14 -17 -12 -25 5 -28 28 -4
28 12 0 21 -6 21 -16z m-72 -172 c2 -7 -3 -12 -12 -12 -9 0 -16 7 -16 16 0 17
22 14 28 -4z m546 -212 c14 0 26 -4 26 -10 0 -5 -5 -10 -10 -10 -6 0 -15 -12
-20 -26 -7 -18 -15 -24 -26 -20 -38 14 -62 17 -69 7 -3 -6 5 -15 20 -21 21 -8
24 -14 19 -37 -11 -54 -12 -54 -56 -51 -47 3 -61 26 -35 56 25 29 26 50 6 73
-10 12 -19 26 -19 30 0 16 96 29 122 17 9 -4 28 -8 42 -8z m-2089 -70 c12 -39
-25 -57 -45 -21 -8 16 -6 22 7 30 26 15 31 13 38 -9z m240 -31 c73 -20 105
-41 125 -80 32 -62 26 -75 -17 -40 -21 17 -43 31 -49 31 -6 0 -19 9 -28 19
-22 24 -63 32 -77 15 -15 -18 -34 -18 -53 2 -23 23 -20 32 17 48 41 18 35 18
82 5z m999 -214 c-4 -8 -10 -15 -15 -15 -5 0 -9 7 -9 15 0 8 7 15 15 15 9 0
12 -6 9 -15z m1171 -58 c0 -24 33 -43 48 -28 7 7 6 15 -3 26 -11 13 -9 15 12
15 18 0 32 -11 50 -37 35 -54 42 -90 21 -102 -15 -8 -15 -11 -3 -26 12 -15 11
-19 -7 -33 -12 -10 -27 -29 -32 -44 -10 -27 -11 -27 -45 -13 -43 18 -46 18
-46 1 0 -20 -25 -37 -44 -30 -13 5 -15 14 -11 33 5 22 -1 34 -28 62 -18 19
-36 42 -40 52 -8 20 -23 21 -58 4 -17 -9 -33 -11 -49 -5 -32 12 -49 -5 -32
-32 16 -27 6 -25 -34 5 -18 14 -37 25 -42 25 -5 0 -9 -27 -8 -59 1 -46 -3 -64
-19 -81 l-20 -22 23 -15 c28 -19 30 -53 2 -53 -19 0 -24 -10 -21 -37 1 -7 -7
-13 -19 -13 -15 0 -20 6 -20 25 0 16 6 25 15 25 10 0 15 10 15 30 0 32 -2 33
-37 24 -16 -4 -23 -14 -23 -29 0 -27 -35 -44 -54 -25 -8 9 -3 18 22 39 24 20
32 36 32 59 0 36 25 45 35 12 11 -34 25 -22 25 23 -1 107 1 112 45 115 26 2
48 11 62 27 26 27 63 41 72 28 11 -17 43 -23 58 -11 8 6 33 14 56 17 32 5 43
11 45 26 6 39 12 46 34 43 14 -2 23 -10 23 -21z m-1213 -43 c5 -3 8 -19 8 -35
0 -22 7 -32 27 -42 21 -9 27 -9 31 1 6 20 22 14 50 -19 52 -61 51 -81 -5 -104
-47 -20 -62 -19 -102 8 -19 12 -55 34 -80 48 l-46 27 3 53 c3 65 21 83 72 74
19 -4 38 -9 42 -11z m-142 -24 c0 -10 -4 -21 -9 -25 -12 -7 -25 31 -16 45 9
15 25 2 25 -20z m1603 -20 c4 -14 -3 -26 -23 -40 -48 -34 -56 -23 -34 48 6 20
51 14 57 -8z m-1210 -25 c33 -30 38 -40 32 -63 -9 -36 -10 -37 -32 -15 -84 88
-84 155 0 78z m429 -10 c6 -14 22 -28 35 -31 42 -11 27 -34 -21 -34 -42 0 -76
18 -76 40 0 5 -3 15 -6 23 -5 14 9 23 44 26 7 0 18 -10 24 -24z m-1292 -130
c0 -31 -26 -43 -46 -23 -14 13 -14 17 1 32 24 24 45 20 45 -9z m968 -29 c15
-24 39 -51 55 -59 39 -23 36 -47 -7 -47 -52 0 -138 22 -164 41 -32 25 -89 42
-110 34 -14 -6 -13 -9 11 -21 53 -28 22 -68 -36 -46 -20 8 -35 8 -42 2 -8 -7
-18 -4 -30 10 -18 19 -17 20 14 26 18 4 35 14 39 23 3 9 19 29 36 44 27 26 35
28 81 23 27 -3 55 -3 62 2 7 4 24 9 38 10 21 1 31 -7 53 -42z m1032 -101 c0
-8 -4 -15 -10 -15 -5 0 -10 7 -10 15 0 8 5 15 10 15 6 0 10 -7 10 -15z m-1684
-30 c4 -8 3 -22 0 -31 -6 -15 -8 -15 -31 0 -13 9 -36 16 -50 16 -42 0 -28 19
18 23 23 2 46 4 50 5 4 1 10 -5 13 -13z m998 -10 c-6 -16 -34 -21 -34 -7 0 13
11 22 26 22 8 0 11 -6 8 -15z m281 2 c19 -15 13 -37 -10 -37 -15 0 -45 27 -45
41 0 14 34 11 55 -4z m-603 -128 c38 -12 42 -29 8 -29 -10 0 -21 -7 -24 -16
-10 -25 -61 -14 -61 13 0 30 -15 41 -21 16 -3 -12 -16 -23 -29 -25 -18 -4 -21
-1 -17 14 2 10 15 27 29 37 25 20 23 20 115 -10z"/>
<path d="M12265 2840 c-10 -15 4 -47 22 -55 15 -5 52 27 53 46 0 16 -66 24
-75 9z"/>
<path d="M8950 4380 c0 -5 -12 -13 -27 -16 -37 -9 -43 -20 -43 -79 0 -62 22
-100 54 -90 63 20 99 22 125 9 14 -8 32 -14 39 -14 21 0 14 -47 -8 -53 -13 -3
-20 -14 -20 -31 0 -15 -8 -30 -20 -36 -27 -14 -25 -31 5 -64 14 -15 25 -31 25
-35 0 -9 -44 -51 -54 -51 -4 0 -17 -9 -29 -20 -29 -27 -51 -21 -57 15 -6 37
-30 39 -47 5 -19 -38 -16 -68 9 -81 18 -10 24 -8 35 7 11 15 13 16 13 2 0 -9
-14 -28 -32 -41 -28 -22 -30 -28 -18 -42 9 -11 16 -13 24 -5 5 5 22 10 37 10
28 0 42 16 69 80 14 33 62 61 84 48 13 -7 17 -3 22 21 6 26 11 31 36 31 17 0
42 7 58 16 33 20 69 12 50 -11 -14 -16 -5 -35 16 -35 18 0 18 -14 -1 -30 -18
-15 -20 -50 -3 -50 6 0 19 7 29 16 16 14 18 14 29 -5 6 -12 20 -21 30 -21 24
0 26 13 5 30 -8 7 -15 21 -15 32 0 34 -36 88 -59 88 -16 0 -13 27 5 54 10 16
12 26 4 31 -18 11 -49 -5 -52 -28 -2 -12 -11 -23 -22 -25 -15 -3 -18 0 -12 21
6 25 -13 57 -35 57 -5 0 -9 7 -9 16 0 8 -13 20 -30 25 -24 9 -29 15 -24 34 4
15 0 24 -11 29 -9 3 -14 10 -11 15 11 17 44 -1 67 -34 19 -28 70 -55 103 -55
15 0 4 28 -24 58 -16 18 -30 39 -30 45 -1 28 -21 41 -77 48 -45 5 -62 3 -76
-9 -23 -21 -27 -14 -29 52 -2 59 -14 76 -53 76 -12 0 -15 -6 -10 -20 4 -11 2
-20 -4 -20 -6 0 -11 9 -11 20 0 11 -4 20 -10 20 -5 0 -10 -4 -10 -10z"/>
<path d="M9822 4324 c-48 -34 -58 -54 -28 -54 8 0 19 -6 25 -14 7 -8 23 -17
38 -21 56 -14 85 61 40 103 l-23 22 -52 -36z"/>
<path d="M1610 4296 c0 -9 7 -16 16 -16 17 0 14 22 -4 28 -7 2 -12 -3 -12 -12z"/>
<path d="M6675 4300 c-3 -5 -1 -18 4 -27 9 -16 10 -14 11 10 0 28 -5 34 -15
17z"/>
<path d="M9956 4281 c-8 -12 3 -41 15 -41 12 0 12 37 0 45 -5 3 -12 1 -15 -4z"/>
<path d="M9740 4243 c1 -21 46 -57 54 -44 3 5 -1 11 -9 15 -8 3 -15 15 -15 26
0 11 -7 20 -15 20 -8 0 -15 -8 -15 -17z"/>
<path d="M1615 4235 c-3 -8 -7 -22 -10 -31 -5 -14 -16 -16 -70 -12 -83 7 -84
-6 -5 -61 34 -24 68 -54 76 -67 22 -32 31 -30 42 9 8 31 7 73 -4 145 -5 33
-21 43 -29 17z"/>
<path d="M9402 4203 c4 -22 53 -30 74 -12 20 16 1 29 -44 29 -27 0 -33 -4 -30
-17z"/>
<path d="M6681 4194 c-1 -12 -7 -27 -15 -33 -27 -23 -3 -123 25 -105 11 7 10
112 -1 139 -8 20 -9 19 -9 -1z"/>
<path d="M9690 4180 c0 -5 7 -10 15 -10 8 0 15 5 15 10 0 6 -7 10 -15 10 -8 0
-15 -4 -15 -10z"/>
<path d="M9006 4161 c-19 -21 -8 -35 18 -25 16 6 23 44 8 44 -5 0 -17 -9 -26
-19z"/>
<path d="M3675 4151 c-49 -6 -50 -7 -53 -41 -1 -19 -7 -62 -12 -95 -12 -72 1
-129 33 -149 15 -9 41 -11 87 -7 l65 6 -2 115 c-2 68 -7 116 -13 118 -5 2 -10
11 -10 21 0 20 -19 42 -34 39 -6 0 -33 -4 -61 -7z m35 -252 c0 -5 -7 -9 -15
-9 -15 0 -20 12 -9 23 8 8 24 -1 24 -14z"/>
<path d="M3875 4143 c-35 -26 -47 -66 -46 -157 1 -50 4 -105 7 -121 6 -35 -22
-68 -68 -79 -16 -3 -28 -13 -28 -21 0 -8 -5 -15 -11 -15 -6 0 -9 7 -5 15 8 21
-24 35 -81 35 -28 0 -58 7 -71 16 -21 15 -22 14 -22 -14 0 -20 7 -32 23 -40
l22 -11 -22 -7 c-19 -5 -23 -14 -23 -46 0 -40 36 -118 55 -118 18 1 39 24 59
63 24 46 44 48 48 5 4 -46 23 -36 24 12 0 40 25 80 49 80 7 0 15 7 19 15 4 12
10 13 33 3 15 -7 31 -17 35 -22 11 -16 -11 -46 -40 -57 l-27 -10 24 -18 c22
-17 23 -20 10 -57 -17 -52 -34 -64 -87 -64 -35 0 -45 4 -49 20 -6 22 -23 27
-23 7 0 -7 -13 -27 -30 -45 -35 -39 -35 -41 -13 -80 15 -26 22 -30 45 -25 33
6 37 -10 12 -46 -13 -18 -23 -22 -45 -17 -17 3 -29 1 -29 -5 0 -21 -45 -4 -48
19 -2 14 -10 22 -22 22 -29 0 -47 25 -54 75 -7 45 -19 58 -30 30 -3 -8 -13
-15 -22 -15 -12 0 -15 -6 -10 -26 5 -17 0 -33 -14 -51 -18 -23 -19 -28 -5 -35
8 -5 22 -22 30 -38 9 -17 23 -30 33 -30 10 0 23 -5 28 -10 6 -6 44 -16 86 -24
50 -8 86 -21 106 -37 32 -25 41 -49 20 -49 -7 -1 -26 -11 -42 -24 -34 -28 -22
-40 30 -30 29 5 41 16 64 53 16 26 41 57 55 69 14 13 25 31 23 40 -4 23 -47
28 -62 7 -14 -20 -56 -12 -56 9 0 23 30 86 40 86 17 0 90 74 90 92 0 21 31 80
48 91 17 11 15 57 -3 57 -22 0 -18 21 5 27 24 6 25 16 4 34 -14 12 -14 14 2
26 10 7 25 13 35 13 11 0 18 11 22 33 6 40 2 47 -28 47 -13 0 -27 5 -30 10 -4
6 13 10 44 10 27 0 53 5 56 10 4 7 13 7 25 0 32 -17 48 30 51 148 3 85 1 103
-13 114 -9 7 -18 22 -20 33 -3 18 -12 20 -88 23 -47 1 -90 -1 -95 -5z m125
-122 c15 -29 13 -37 -14 -49 -34 -15 -51 5 -35 42 14 31 34 34 49 7z"/>
<path d="M780 4058 c0 -16 5 -28 13 -28 18 0 69 -68 61 -82 -13 -21 -7 -87 10
-110 9 -13 28 -39 42 -58 27 -37 73 -72 86 -64 4 3 8 75 8 160 l0 154 -53 0
c-55 0 -77 12 -77 41 0 14 -9 17 -45 17 -43 -1 -45 -3 -45 -30z"/>
<path d="M3544 4069 c-3 -6 -1 -16 5 -22 8 -8 11 -5 11 11 0 24 -5 28 -16 11z"/>
<path d="M11027 4064 c-11 -11 3 -24 18 -18 8 4 12 10 9 15 -6 11 -18 12 -27
3z"/>
<path d="M9642 4041 c-22 -13 -11 -66 13 -66 11 0 26 -4 33 -8 19 -13 35 2 20
20 -7 8 -17 24 -23 36 -12 24 -25 30 -43 18z"/>
<path d="M6352 4028 c6 -18 28 -21 28 -4 0 9 -7 16 -16 16 -9 0 -14 -5 -12
-12z"/>
<path d="M9417 4003 c-4 -3 -7 -30 -7 -58 0 -38 5 -56 18 -68 22 -20 39 -22
45 -4 3 9 9 9 23 1 31 -18 43 -7 34 28 -12 41 -28 58 -56 58 -17 0 -25 7 -30
25 -6 25 -15 31 -27 18z"/>
<path d="M6557 3994 c-7 -7 36 -44 51 -44 5 0 17 8 26 19 16 17 16 19 -6 25
-30 8 -63 8 -71 0z"/>
<path d="M1376 3964 c-7 -19 -8 -17 22 -33 12 -6 22 -16 22 -22 0 -12 -43 -1
-48 12 -2 5 -8 9 -14 9 -6 0 -8 -7 -4 -15 4 -12 -1 -14 -24 -10 -17 3 -30 1
-30 -5 0 -5 3 -10 8 -10 11 0 28 -43 24 -63 -3 -16 -6 -15 -27 7 -33 35 -48
34 -40 -4 6 -26 4 -30 -14 -30 -24 0 -64 79 -62 122 1 15 -4 30 -10 33 -7 5
-11 -25 -11 -101 0 -89 -4 -236 -7 -302 -1 -15 -40 -32 -58 -25 -9 4 -13 31
-13 89 l0 84 -35 0 c-38 0 -47 -14 -15 -23 16 -4 20 -14 21 -49 3 -91 -9 -104
-92 -106 -33 -1 -65 -4 -70 -7 -12 -8 -12 -85 0 -85 13 0 56 41 64 60 4 12 6
12 6 -2 1 -10 9 -22 19 -27 13 -7 17 -21 15 -68 -1 -32 -2 -61 -2 -65 -1 -5
-10 -8 -21 -8 -41 0 -20 -53 25 -62 15 -3 19 -10 17 -30 -2 -19 6 -33 29 -52
19 -16 25 -26 15 -26 -8 0 -22 -10 -31 -22 -15 -22 -17 -22 -29 -5 -7 9 -16
17 -20 17 -13 0 -5 -25 25 -71 44 -70 25 -88 -52 -49 -28 15 -44 32 -55 60
-17 43 -29 47 -94 34 -21 -5 -35 -15 -41 -30 -4 -13 -15 -24 -24 -24 -20 0
-19 -5 7 -41 18 -25 20 -33 10 -47 -22 -30 -26 -46 -14 -50 7 -2 12 -8 12 -13
0 -15 -44 -10 -69 8 -18 12 -28 13 -41 5 -29 -18 -100 8 -116 44 -15 33 -48
74 -61 74 -35 0 -81 23 -91 46 -9 17 -18 24 -30 20 -9 -3 -51 -7 -92 -8 -57
-2 -84 -8 -111 -24 -20 -12 -56 -27 -80 -32 -31 -7 -36 -10 -18 -11 15 -1 38
-10 53 -22 25 -20 28 -20 45 -5 10 9 21 16 25 16 4 0 14 7 22 15 18 17 80 20
89 4 4 -6 -1 -16 -11 -24 -14 -10 -16 -16 -6 -27 9 -11 9 -17 0 -26 -9 -9 -7
-17 7 -32 16 -18 17 -23 4 -46 -12 -23 -11 -27 6 -40 18 -14 18 -14 -3 -37
-27 -29 -28 -43 -2 -57 13 -7 20 -21 20 -40 0 -39 15 -46 43 -18 13 13 35 23
48 23 29 -2 32 -5 23 -28 -9 -25 3 -34 26 -19 18 11 20 10 20 -10 0 -13 -11
-41 -25 -62 l-23 -39 33 -22 c18 -13 47 -26 64 -30 27 -6 37 -1 79 36 26 23
64 49 84 58 34 16 35 18 17 29 -15 10 -17 16 -9 32 5 10 7 25 4 33 -7 19 11
24 99 26 60 1 70 -1 92 -23 14 -14 25 -35 25 -46 0 -12 5 -18 10 -15 6 3 10
20 10 36 0 33 22 48 45 29 19 -16 19 -54 0 -70 -8 -7 -15 -20 -15 -29 0 -10
-12 -28 -26 -42 -25 -24 -26 -24 -40 -5 -14 19 -16 18 -18 -14 -1 -11 -12 -15
-44 -13 -38 2 -42 0 -37 -17 3 -11 -2 -31 -11 -46 -17 -26 -17 -27 7 -44 71
-53 67 -47 37 -59 -31 -12 -34 -21 -16 -39 14 -14 48 -16 48 -3 0 5 14 15 32
22 24 10 33 10 36 1 2 -7 7 -12 11 -12 15 0 78 -66 86 -89 7 -24 59 -51 99
-51 13 0 33 -8 45 -17 21 -18 21 -21 11 -171 -5 -84 -14 -162 -20 -173 -18
-33 -9 -83 16 -87 20 -3 23 4 33 85 26 200 50 313 67 313 7 0 23 -13 36 -29
28 -32 58 -51 84 -51 10 0 32 -14 50 -31 32 -31 61 -32 49 -1 -7 19 32 62 56
62 27 0 31 -15 9 -35 -11 -10 -20 -24 -20 -30 0 -7 -9 -24 -21 -39 l-21 -26
40 -46 c22 -25 59 -58 81 -74 22 -16 47 -40 56 -53 14 -22 54 -47 75 -47 22 0
-18 67 -72 121 -44 44 -58 65 -54 79 3 11 9 29 12 40 9 32 61 27 77 -7 6 -16
27 -43 45 -62 28 -30 39 -34 85 -35 61 -1 132 -34 140 -66 3 -11 12 -20 21
-20 19 0 21 14 3 32 -8 7 -17 26 -21 42 -4 18 -53 76 -126 150 -127 130 -160
168 -160 185 0 6 16 17 35 25 39 17 40 18 23 46 -18 28 -3 35 51 24 l49 -10
-19 38 c-11 21 -24 38 -29 38 -19 0 -10 27 14 39 20 11 29 10 64 -8 44 -23 72
-26 100 -12 28 14 65 29 90 36 16 5 22 14 22 36 0 19 -5 29 -15 29 -8 0 -15
-4 -15 -8 0 -14 -48 -33 -55 -22 -4 6 -18 10 -33 10 -23 1 -25 2 -9 11 9 5 17
19 17 30 0 11 -8 23 -17 26 -10 4 -29 15 -42 25 -13 10 -33 18 -45 18 -12 0
-27 5 -34 12 -7 7 -33 15 -59 18 -35 4 -49 10 -51 23 -3 14 2 17 25 15 28 -3
28 -3 25 50 -2 28 0 52 6 52 5 0 19 9 32 20 26 23 43 25 68 9 13 -8 27 -7 56
5 21 9 47 16 57 16 11 0 19 5 19 10 0 6 -9 10 -21 10 -14 0 -19 5 -17 16 4 20
17 27 77 45 24 7 50 19 57 27 18 18 18 84 0 127 -16 38 -7 67 41 133 14 18 26
45 27 60 1 15 12 48 25 75 19 41 26 47 53 47 25 0 29 -3 20 -12 -17 -17 -15
-38 3 -38 8 0 15 9 15 20 0 11 4 20 10 20 5 0 15 -9 22 -20 20 -31 54 -25 72
12 19 38 21 68 3 68 -15 0 -53 33 -59 52 -4 11 -8 10 -21 -1 -15 -12 -18 -10
-26 10 -9 25 -5 49 9 49 5 0 20 20 34 45 15 25 30 45 34 45 12 0 31 50 25 66
-5 14 0 16 46 18 13 1 26 7 28 14 4 9 -18 12 -87 12 -80 0 -91 -2 -86 -16 3
-9 6 -18 6 -21 0 -3 7 0 15 7 46 38 63 -43 18 -85 l-28 -25 -17 22 -18 23 0
-32 c0 -19 -8 -41 -20 -53 -24 -24 -36 -25 -44 -5 -12 32 -25 12 -28 -42 l-3
-58 -47 -3 c-62 -4 -70 11 -76 157 -2 64 -8 121 -13 127 -6 7 -25 8 -54 4 -25
-4 -48 -3 -51 2 -3 5 -5 61 -5 125 2 141 -6 156 -78 146 -25 -3 -52 -12 -58
-21 -8 -9 -13 -45 -13 -88 0 -53 -4 -75 -16 -85 -34 -28 -44 -67 -44 -167 0
-86 -3 -101 -20 -117 -37 -33 -46 -15 -53 101 -4 59 -7 144 -7 188 -1 76 -13
116 -35 116 -13 0 -34 -33 -35 -54 0 -14 -5 -17 -24 -12 -13 3 -37 -1 -55 -10
-36 -18 -68 -14 -62 7 20 70 26 80 49 74 17 -4 22 -1 22 14 0 22 -19 31 -65
31 -20 0 -35 6 -39 15 -7 20 -22 19 -30 -1z m-156 -188 c0 -14 5 -28 10 -31
17 -10 11 -25 -10 -25 -21 0 -37 38 -26 65 9 24 26 18 26 -9z m-70 -752 c0
-14 -3 -14 -15 -4 -8 7 -15 14 -15 16 0 2 7 4 15 4 8 0 15 -7 15 -16z m-690
-32 c0 -35 -60 -68 -83 -46 -7 8 6 36 28 57 18 18 55 11 55 -11z m-107 -21 c5
-22 0 -31 -20 -31 -7 0 -13 11 -13 25 0 30 25 34 33 6z m595 -47 c2 -13 -5
-24 -20 -31 -20 -9 -26 -6 -45 24 l-23 34 43 -3 c34 -2 43 -7 45 -24z m388 11
c4 -8 4 -22 0 -30 -4 -12 -10 -13 -31 -3 -29 13 -32 23 -7 37 24 14 32 13 38
-4z m-924 -57 c-9 -9 -15 -9 -24 0 -9 9 -7 12 12 12 19 0 21 -3 12 -12z m-67
-18 c3 -5 -3 -10 -15 -10 -12 0 -18 5 -15 10 3 6 10 10 15 10 5 0 12 -4 15
-10z m469 -76 c25 -9 19 -24 -9 -24 -16 0 -25 6 -25 15 0 16 9 19 34 9z m644
-711 c2 -8 -5 -13 -17 -13 -12 0 -21 6 -21 16 0 18 31 15 38 -3z"/>
<path d="M11053 3957 c-37 -12 -44 -27 -13 -27 10 0 31 -5 45 -12 21 -9 29 -9
42 5 13 13 14 19 3 31 -14 18 -30 18 -77 3z"/>
<path d="M6820 3932 c-13 -5 -13 -49 0 -57 12 -7 94 28 104 44 6 9 -83 20
-104 13z"/>
<path d="M3547 3923 c-11 -10 -8 -73 3 -73 6 0 10 18 10 40 0 41 -2 45 -13 33z"/>
<path d="M10285 3893 c-13 -55 56 -72 84 -21 19 33 14 39 -37 42 -36 3 -41 0
-47 -21z"/>
<path d="M9193 3883 c-17 -6 -16 -23 1 -23 8 0 16 7 20 15 6 15 1 17 -21 8z"/>
<path d="M11655 3830 c-22 -24 -19 -36 14 -50 23 -9 33 -9 50 2 29 18 26 30
-14 49 -32 15 -36 15 -50 -1z"/>
<path d="M9296 3803 c-12 -12 -6 -33 9 -33 8 0 15 6 15 14 0 17 -14 28 -24 19z"/>
<path d="M10368 3797 c-6 -8 -23 -11 -37 -9 -21 4 -23 2 -18 -19 4 -13 7 -30
7 -36 0 -8 13 -13 31 -13 47 0 72 -17 59 -40 -13 -24 -4 -45 28 -66 32 -21 98
-26 112 -8 14 16 -14 34 -41 27 -12 -4 -19 0 -19 9 0 10 -8 13 -30 10 -22 -3
-30 0 -30 10 0 13 39 35 93 52 18 6 25 66 7 66 -5 0 -10 -7 -10 -15 0 -21 -17
-19 -29 3 -5 10 -27 24 -49 30 -50 15 -58 15 -74 -1z"/>
<path d="M11138 3804 c-22 -7 -24 -59 -3 -68 8 -3 15 -14 15 -25 0 -33 68 -43
108 -15 25 17 29 60 9 88 -14 19 -92 31 -129 20z"/>
<path d="M9395 3789 c-10 -15 3 -25 16 -12 7 7 7 13 1 17 -6 3 -14 1 -17 -5z"/>
<path d="M4020 3775 c0 -8 5 -15 10 -15 6 0 10 7 10 15 0 8 -4 15 -10 15 -5 0
-10 -7 -10 -15z"/>
<path d="M3325 3732 c-9 -24 -5 -136 5 -152 9 -13 15 -10 38 15 15 17 40 38
56 49 26 17 30 17 38 2 5 -9 13 -14 19 -11 11 7 12 85 1 102 -11 17 -150 12
-157 -5z"/>
<path d="M2540 3671 c0 -22 16 -36 24 -22 8 12 -3 41 -15 41 -5 0 -9 -9 -9
-19z"/>
<path d="M4728 3656 c-25 -23 -26 -25 -9 -40 24 -21 28 -20 35 9 7 27 25 32
44 13 15 -15 16 -3 2 23 -14 25 -39 24 -72 -5z"/>
<path d="M9199 3669 c-15 -9 -2 -46 19 -54 10 -3 21 0 28 9 6 9 16 16 23 16 6
0 11 6 11 14 0 15 -63 27 -81 15z"/>
<path d="M647 3653 c-12 -11 -8 -53 7 -82 8 -15 32 -39 53 -54 22 -15 54 -43
73 -62 34 -35 60 -45 60 -23 0 6 -8 20 -17 30 -14 16 -15 23 -5 38 17 27 17
27 -27 34 -47 7 -96 52 -104 95 -6 29 -25 40 -40 24z"/>
<path d="M11010 3600 c0 -19 3 -21 12 -12 9 9 9 15 0 24 -9 9 -12 7 -12 -12z"/>
<path d="M11285 3581 c-3 -5 4 -13 16 -16 23 -8 34 -1 24 14 -8 13 -32 14 -40
2z"/>
<path d="M2396 3534 c-9 -22 -8 -24 9 -24 8 0 15 6 15 14 0 22 -17 28 -24 10z"/>
<path d="M3540 3525 c0 -14 5 -25 10 -25 6 0 10 11 10 25 0 14 -4 25 -10 25
-5 0 -10 -11 -10 -25z"/>
<path d="M11316 3525 c-19 -14 -18 -15 13 -15 21 0 31 4 29 12 -6 18 -21 19
-42 3z"/>
<path d="M10106 3483 c-4 -9 -3 -20 2 -25 11 -11 47 16 38 30 -11 17 -33 15
-40 -5z"/>
<path d="M11430 3475 c0 -15 4 -24 10 -20 6 3 10 12 10 20 0 8 -4 17 -10 20
-6 4 -10 -5 -10 -20z"/>
<path d="M11235 3470 c-7 -12 2 -30 16 -30 5 0 9 9 9 20 0 21 -15 27 -25 10z"/>
<path d="M3547 3463 c-12 -11 -7 -53 6 -53 16 0 40 38 32 50 -7 11 -29 13 -38
3z"/>
<path d="M11516 3427 c-20 -19 -36 -44 -36 -56 0 -17 6 -21 35 -21 32 0 38 4
54 43 15 33 20 38 26 25 10 -24 35 -23 35 1 0 23 -4 26 -46 35 -27 6 -37 2
-68 -27z"/>
<path d="M943 3416 c-27 -28 -29 -36 -8 -36 8 0 15 6 15 14 0 7 9 16 21 19 12
3 18 10 14 16 -9 16 -17 13 -42 -13z"/>
<path d="M9264 3365 c-8 -45 -21 -53 -33 -22 -12 32 -27 41 -35 22 -6 -17 31
-95 45 -95 5 0 12 7 16 16 4 11 13 14 29 10 20 -5 24 -3 24 18 0 14 -5 28 -11
32 -6 3 -9 17 -6 30 3 16 0 24 -9 24 -7 0 -16 -16 -20 -35z"/>
<path d="M9114 3376 c-8 -22 3 -33 18 -18 9 9 9 15 0 24 -9 9 -13 7 -18 -6z"/>
<path d="M3870 3370 c0 -5 10 -10 23 -10 18 0 19 2 7 10 -19 13 -30 13 -30 0z"/>
<path d="M11547 3326 c-25 -19 -21 -36 8 -36 18 0 25 5 25 19 0 26 -11 32 -33
17z"/>
<path d="M10472 3263 c-24 -29 -26 -64 -4 -71 7 -2 17 10 23 27 6 17 15 31 20
31 5 0 9 9 9 20 0 28 -22 25 -48 -7z"/>
<path d="M10301 3197 c-13 -17 -5 -27 24 -27 12 0 25 3 28 7 9 8 -12 33 -28
33 -7 0 -18 -6 -24 -13z"/>
<path d="M2945 3181 c-51 -51 -54 -71 -14 -71 16 0 20 -6 17 -27 -4 -37 28
-45 37 -11 9 35 2 121 -10 125 -6 2 -20 -6 -30 -16z"/>
<path d="M3570 3191 c-11 -8 -9 -12 14 -21 32 -12 69 -4 63 13 -5 15 -57 20
-77 8z"/>
<path d="M10396 3191 c-3 -5 1 -12 10 -15 20 -8 29 -1 19 13 -8 13 -22 14 -29
2z"/>
<path d="M9807 3164 c-4 -4 -7 -23 -7 -41 0 -42 23 -41 28 1 4 29 -9 52 -21
40z"/>
<path d="M2447 3133 c-4 -3 -7 -15 -7 -27 0 -15 -3 -17 -12 -8 -20 20 -31 14
-24 -13 5 -20 3 -25 -11 -25 -18 0 -63 -40 -63 -56 0 -4 8 -16 17 -26 15 -17
15 -20 -6 -39 -13 -12 -20 -28 -17 -36 4 -9 1 -22 -5 -30 -15 -17 -12 -20 42
-36 27 -8 55 -10 73 -6 20 6 33 4 43 -7 18 -18 23 -18 52 2 21 15 23 22 17 67
-6 39 -3 53 10 69 21 22 24 101 5 136 -8 16 -21 22 -46 22 -18 0 -37 5 -40 10
-7 12 -19 13 -28 3z m81 -91 c4 -26 -21 -40 -42 -23 -8 7 -12 21 -9 32 8 28
47 22 51 -9z"/>
<path d="M10401 3126 c-6 -7 -30 -13 -53 -13 -35 0 -47 -6 -75 -37 -19 -21
-33 -42 -30 -49 6 -21 45 -19 66 2 12 12 27 21 35 21 7 0 19 7 26 15 6 8 22
13 33 12 18 -2 23 4 25 31 3 34 -8 41 -27 18z"/>
<path d="M10485 3129 c-10 -15 1 -23 20 -15 9 3 13 10 10 16 -8 13 -22 13 -30
-1z"/>
<path d="M3560 3100 c0 -5 7 -10 15 -10 8 0 15 5 15 10 0 6 -7 10 -15 10 -8 0
-15 -4 -15 -10z"/>
<path d="M9750 3095 c0 -8 5 -15 10 -15 6 0 10 7 10 15 0 8 -4 15 -10 15 -5 0
-10 -7 -10 -15z"/>
<path d="M3810 3060 c0 -11 7 -20 15 -20 8 0 15 6 15 14 0 8 -7 16 -15 20 -10
4 -15 -1 -15 -14z"/>
<path d="M2242 3041 c2 -7 7 -12 11 -12 12 1 9 15 -3 20 -7 2 -11 -2 -8 -8z"/>
<path d="M3240 3042 c0 -14 11 -21 26 -15 8 3 11 9 8 14 -7 11 -34 12 -34 1z"/>
<path d="M8190 3038 c0 -8 9 -23 20 -33 12 -11 20 -13 20 -6 0 6 -9 21 -20 33
-15 17 -20 18 -20 6z"/>
<path d="M4186 3032 c-3 -5 2 -18 10 -30 16 -23 68 -31 79 -11 4 5 17 9 28 7
12 -1 23 2 24 7 2 6 -3 10 -10 11 -6 0 -21 3 -32 6 -43 13 -94 18 -99 10z"/>
<path d="M2984 2953 c-32 -34 -35 -36 -59 -23 -23 12 -29 11 -53 -7 -43 -32
-38 -46 23 -77 37 -19 55 -34 55 -47 0 -12 -7 -19 -19 -19 -29 0 -35 -17 -11
-30 15 -8 18 -15 11 -28 -7 -12 -2 -32 17 -70 25 -52 25 -52 73 -52 61 0 71
22 34 75 -33 49 -33 75 0 75 17 0 29 -9 40 -30 19 -38 26 -37 48 1 19 33 24
134 7 144 -5 3 -10 17 -10 31 0 13 -5 24 -10 24 -6 0 -15 11 -20 25 -6 15 -17
25 -29 25 -11 0 -23 5 -26 10 -12 19 -38 10 -71 -27z"/>
<path d="M4250 2950 c0 -11 5 -20 10 -20 6 0 10 9 10 20 0 11 -4 20 -10 20 -5
0 -10 -9 -10 -20z"/>
<path d="M198 2938 c9 -9 15 -9 24 0 9 9 7 12 -12 12 -19 0 -21 -3 -12 -12z"/>
<path d="M4345 2920 c-4 -6 -3 -16 3 -22 6 -6 12 -6 17 2 4 6 3 16 -3 22 -6 6
-12 6 -17 -2z"/>
<path d="M2780 2899 c0 -7 -7 -21 -16 -31 -16 -16 -15 -18 1 -24 20 -8 47 21
43 45 -4 18 -28 27 -28 10z"/>
<path d="M7885 2891 c-3 -5 -1 -12 5 -16 12 -7 30 2 30 16 0 12 -27 12 -35 0z"/>
<path d="M4340 2865 c0 -10 10 -15 33 -15 30 1 31 1 13 15 -25 19 -46 19 -46
0z"/>
<path d="M10953 2873 c-22 -8 -14 -23 12 -23 14 0 25 4 25 9 0 11 -21 19 -37
14z"/>
<path d="M2786 2804 c-11 -30 13 -44 43 -25 12 8 12 12 2 25 -17 20 -37 20
-45 0z"/>
<path d="M8062 2771 c4 -13 18 -16 19 -4 0 4 -5 9 -11 12 -7 2 -11 -2 -8 -8z"/>
<path d="M8121 2746 c-6 -7 -9 -20 -6 -29 4 -10 -3 -18 -24 -25 -44 -15 -41
-46 5 -68 34 -16 37 -16 67 1 29 17 31 17 44 0 7 -11 13 -31 13 -47 l0 -27 32
31 c29 28 35 30 82 24 29 -3 53 -12 58 -21 5 -8 18 -15 28 -15 26 0 28 48 3
57 -10 3 -31 18 -48 34 -22 20 -42 29 -75 31 -39 3 -45 6 -43 24 2 18 -6 24
-42 33 -58 15 -80 14 -94 -3z"/>
<path d="M7422 2729 c-12 -18 -12 -23 0 -30 23 -15 43 -5 43 21 0 32 -26 37
-43 9z"/>
<path d="M2320 2707 c0 -13 6 -31 13 -42 13 -17 14 -15 21 15 4 23 2 36 -6 42
-21 13 -28 9 -28 -15z"/>
<path d="M7565 2695 c-16 -13 -26 -27 -22 -31 4 -4 0 -16 -10 -26 -22 -25 -14
-30 57 -31 65 -2 82 9 73 45 -3 10 -18 25 -33 33 -16 8 -30 19 -32 24 -1 5
-16 -1 -33 -14z"/>
<path d="M716 2681 c-3 -5 5 -11 19 -13 17 -4 25 -1 25 8 0 15 -36 19 -44 5z"/>
<path d="M11055 2651 c-7 -12 12 -24 25 -16 11 7 4 25 -10 25 -5 0 -11 -4 -15
-9z"/>
<path d="M2582 2618 c-7 -7 -12 -17 -12 -24 0 -6 -6 -17 -14 -23 -16 -14 -11
-95 9 -127 15 -23 23 -123 12 -140 -3 -6 0 -24 8 -40 9 -20 16 -84 21 -195 6
-148 5 -172 -12 -218 l-18 -51 27 -27 c14 -15 30 -23 34 -19 9 9 8 165 -2 282
-9 100 2 129 46 120 21 -4 29 -2 29 8 0 7 7 19 15 26 8 7 15 21 15 32 0 10 7
21 15 24 25 10 17 24 -22 41 -40 16 -51 28 -69 80 -11 30 -10 66 2 166 4 35 2
54 -10 72 -18 27 -54 33 -74 13z m153 -358 c4 -6 -1 -23 -10 -37 -14 -20 -19
-23 -26 -12 -16 26 -10 59 10 59 11 0 23 -5 26 -10z"/>
<path d="M3693 2623 c-21 -8 -15 -22 17 -38 39 -20 50 -19 50 5 0 28 -36 46
-67 33z"/>
<path d="M7163 2600 c-8 -12 -9 -21 -3 -25 6 -3 10 -15 10 -27 0 -17 2 -18 15
-8 9 7 13 21 10 31 -4 12 -1 21 9 25 24 9 19 24 -7 24 -12 0 -28 -9 -34 -20z"/>
<path d="M2850 2589 c1 -27 22 -59 39 -59 20 0 12 34 -14 59 l-25 23 0 -23z"/>
<path d="M4470 2590 c0 -19 3 -21 12 -12 9 9 9 15 0 24 -9 9 -12 7 -12 -12z"/>
<path d="M9206 2593 c-11 -11 -6 -23 9 -23 8 0 15 4 15 9 0 13 -16 22 -24 14z"/>
<path d="M12070 2555 c0 -8 5 -15 10 -15 6 0 10 7 10 15 0 8 -4 15 -10 15 -5
0 -10 -7 -10 -15z"/>
<path d="M9177 2553 c-4 -3 -7 -10 -7 -14 0 -11 29 -19 35 -10 6 11 -20 33
-28 24z"/>
<path d="M7800 2535 c-16 -20 -16 -61 1 -81 8 -10 23 -14 41 -12 16 3 31 1 34
-4 11 -17 24 -7 24 17 0 15 -11 36 -25 49 -14 13 -25 28 -25 35 0 16 -35 14
-50 -4z"/>
<path d="M10110 2534 c0 -8 9 -14 20 -14 11 0 20 4 20 9 0 5 -9 11 -20 14 -13
3 -20 0 -20 -9z"/>
<path d="M12080 2491 c0 -40 15 -47 42 -21 23 21 23 22 4 36 -31 22 -46 17
-46 -15z"/>
<path d="M2938 2470 c-6 -40 0 -44 27 -18 21 20 22 23 7 35 -25 18 -29 16 -34
-17z"/>
<path d="M12917 2470 c-14 -11 -30 -20 -36 -20 -6 0 -11 -5 -11 -11 0 -7 7 -8
18 -4 36 16 64 17 88 5 30 -17 44 -5 18 15 -42 34 -51 35 -77 15z"/>
<path d="M2166 2434 c-9 -8 -21 -25 -28 -37 -6 -12 -19 -27 -28 -34 -12 -8
-16 -21 -13 -40 5 -30 31 -93 38 -93 10 0 38 66 40 94 2 23 8 32 26 36 28 7
36 34 18 66 -14 28 -31 30 -53 8z"/>
<path d="M3727 2409 c-8 -29 3 -42 32 -37 21 3 21 3 -2 32 l-24 29 -6 -24z"/>
<path d="M11876 2413 c-12 -12 -5 -23 14 -23 11 0 20 4 20 9 0 11 -26 22 -34
14z"/>
<path d="M11577 2264 c-14 -14 -6 -24 19 -24 16 0 24 5 22 13 -5 14 -31 21
-41 11z"/>
<path d="M5880 2156 c0 -15 55 -66 71 -66 18 0 9 21 -21 50 -33 33 -50 38 -50
16z"/>
<path d="M7920 2145 c0 -8 5 -15 10 -15 6 0 10 7 10 15 0 8 -4 15 -10 15 -5 0
-10 -7 -10 -15z"/>
<path d="M5646 2141 c-18 -7 -18 -8 -2 -14 29 -11 46 -8 46 8 0 16 -14 18 -44
6z"/>
<path d="M8115 2140 c-3 -5 -1 -10 5 -10 6 0 27 -16 45 -36 19 -20 39 -33 45
-29 5 3 24 -1 42 -9 41 -21 48 -20 48 4 0 17 -7 20 -45 20 -39 0 -51 5 -81 35
-36 37 -49 42 -59 25z"/>
<path d="M830 2126 c0 -14 29 -31 38 -21 6 6 -18 35 -29 35 -5 0 -9 -6 -9 -14z"/>
<path d="M10932 2078 c-28 -34 -36 -128 -11 -128 9 0 15 20 24 93 7 49 4 55
-13 35z"/>
<path d="M6025 2030 c-8 -12 45 -80 63 -80 20 0 14 35 -13 64 -25 28 -40 32
-50 16z"/>
<path d="M7976 2011 c-8 -12 21 -68 39 -75 17 -6 39 10 31 23 -4 6 -14 11 -21
11 -8 0 -21 12 -28 26 -9 17 -17 23 -21 15z"/>
<path d="M12155 1973 c-10 -28 -18 -140 -11 -159 13 -33 25 1 31 83 5 77 -5
114 -20 76z"/>
<path d="M12362 1918 c4 -51 18 -57 40 -19 16 29 16 30 -7 45 -34 23 -37 21
-33 -26z"/>
<path d="M11340 1872 c0 -83 5 -99 26 -81 19 15 4 159 -16 159 -6 0 -10 -34
-10 -78z"/>
<path d="M10902 1905 c-14 -30 -16 -95 -4 -95 11 0 31 39 33 65 4 59 -10 73
-29 30z"/>
<path d="M12357 1763 c-3 -49 -2 -108 2 -133 10 -52 10 -49 17 118 5 124 -11
137 -19 15z"/>
<path d="M11340 1726 c0 -14 5 -28 10 -31 6 -4 10 7 10 24 0 17 -4 31 -10 31
-5 0 -10 -11 -10 -24z"/>
<path d="M11319 1606 c-13 -27 -1 -77 19 -84 8 -2 12 14 12 52 0 59 -13 72
-31 32z"/>
<path d="M11317 1274 c-4 -4 -7 -26 -7 -48 l1 -41 15 29 c16 28 8 77 -9 60z"/>
</g>
</svg>
