<?xml version="1.0" standalone="no"?>
<!DOCTYPE svg PUBLIC "-//W3C//DTD SVG 20010904//EN"
 "http://www.w3.org/TR/2001/REC-SVG-20010904/DTD/svg10.dtd">
<svg version="1.0" xmlns="http://www.w3.org/2000/svg"
 width="1350.000000pt" height="477.000000pt" viewBox="0 0 1350.000000 477.000000"
 preserveAspectRatio="xMidYMid meet">
<metadata>
Created by potrace 1.10, written by Peter Selinger 2001-2011
</metadata>
<g transform="translate(0.000000,477.000000) scale(0.100000,-0.100000)"
fill="#000000" stroke="none">
<path d="M1882 4016 c-24 -6 -49 -21 -54 -31 -6 -11 -12 -21 -13 -23 -1 -1
-16 5 -34 14 -43 21 -247 16 -262 -7 -5 -8 -9 -418 -9 -961 l0 -947 -32 5
c-18 2 -55 9 -83 15 -27 6 -120 9 -205 7 l-155 -3 -3 -145 c-1 -79 -6 -148
-11 -153 -5 -5 -122 -8 -259 -8 -240 2 -251 1 -261 -18 -12 -21 -16 -1016 -5
-1045 6 -15 246 -16 2629 -16 2520 0 2623 1 2638 18 9 10 20 34 23 53 4 19 10
39 14 44 4 6 10 22 14 37 l6 28 108 0 108 0 23 -72 c28 -91 34 -102 56 -106
37 -8 37 15 2 104 -19 49 -49 132 -67 184 -17 52 -38 109 -46 127 -8 17 -14
35 -14 40 0 23 -33 73 -52 79 -27 8 -53 -21 -68 -76 -6 -21 -17 -51 -25 -67
-8 -15 -15 -36 -15 -45 0 -9 -5 -20 -10 -23 -6 -3 -10 -13 -10 -22 0 -8 -6
-29 -14 -46 -8 -18 -26 -66 -40 -107 -15 -42 -30 -81 -35 -88 -6 -10 -539 -12
-2579 -12 -1415 0 -2579 0 -2587 0 -13 0 -15 61 -15 485 0 455 1 485 18 486 9
1 126 2 260 3 204 1 244 3 252 16 5 8 10 80 10 159 l0 144 137 -7 c76 -4 180
-11 232 -17 51 -6 96 -7 100 -4 3 4 8 437 11 963 l5 957 89 3 c66 2 98 -1 123
-13 47 -22 85 -16 100 16 21 44 130 50 202 13 14 -8 36 -14 48 -14 13 0 29
-11 38 -24 13 -20 26 -24 97 -30 44 -4 86 -10 92 -14 6 -4 24 -11 40 -17 l29
-10 -2 -490 c-2 -307 1 -500 8 -516 5 -15 17 -29 25 -32 9 -4 113 -7 231 -7
182 -1 220 -4 245 -18 17 -9 30 -20 30 -24 0 -5 25 -8 55 -8 37 0 55 -4 55
-12 0 -7 1 -229 3 -493 l2 -480 68 -3 c38 -2 74 1 81 7 7 6 88 9 199 8 155 -1
190 1 197 13 6 8 10 72 10 141 0 112 2 128 20 147 12 12 25 22 29 22 5 0 12
16 15 35 4 19 11 35 16 35 5 0 16 8 26 18 15 14 34 17 118 15 56 -1 114 -6
129 -12 16 -6 67 -14 115 -18 49 -3 98 -13 112 -21 33 -21 60 -53 60 -74 0
-10 11 -19 30 -23 36 -8 39 -18 43 -145 l2 -95 84 -3 c75 -3 85 -1 98 18 8 11
20 20 26 19 36 -4 37 0 37 136 0 120 2 136 18 142 9 4 31 22 48 40 20 22 40
33 59 33 33 0 92 -34 100 -58 15 -45 132 -81 162 -51 11 11 41 10 173 -7 25
-3 54 -9 65 -14 11 -4 28 -11 38 -14 32 -10 40 -55 38 -200 -1 -76 1 -156 4
-178 l7 -39 151 3 152 3 3 98 3 97 27 2 c15 1 42 1 60 -1 45 -3 62 14 62 61
l0 40 54 -6 c34 -5 63 -3 75 4 21 11 21 16 21 525 l0 515 29 0 c17 0 33 -4 36
-10 15 -24 72 -10 115 29 36 32 53 40 95 44 41 3 53 0 69 -17 35 -40 136 -58
172 -31 10 8 28 15 39 15 11 0 33 7 49 15 15 8 32 15 37 15 5 0 31 10 59 22
36 16 50 27 50 42 0 12 7 30 15 40 8 11 15 34 16 50 l1 31 9 -35 c5 -19 9
-428 9 -908 1 -848 2 -874 20 -892 15 -15 25 -17 42 -11 19 7 24 18 28 57 4
44 8 49 30 50 14 1 40 2 58 3 l32 1 0 160 c0 134 2 160 15 160 12 0 15 -25 17
-142 l3 -142 35 -8 c19 -4 45 -4 58 -1 22 5 22 7 22 191 0 155 3 188 16 203
11 13 17 46 21 121 3 57 11 117 18 133 8 17 39 57 69 90 31 33 56 69 56 80 0
34 15 49 29 31 10 -12 18 -13 33 -5 28 15 45 5 53 -29 3 -16 19 -42 35 -57 17
-16 30 -37 30 -47 0 -10 10 -20 25 -24 18 -4 25 -13 25 -29 0 -13 6 -30 14
-38 16 -16 26 -109 31 -305 2 -85 7 -138 15 -147 8 -10 31 -15 70 -15 79 0 85
10 85 129 0 85 2 96 19 99 10 2 29 -2 42 -8 12 -7 35 -10 51 -7 17 3 36 0 47
-9 11 -8 37 -14 57 -14 71 0 69 -11 69 396 l0 364 137 -1 c135 -2 139 -2 198
-34 l60 -33 5 -348 c3 -192 7 -350 8 -351 1 -2 20 -6 42 -9 22 -4 45 -13 51
-20 6 -8 20 -14 30 -14 11 0 19 -7 19 -17 0 -10 6 -30 14 -44 7 -14 16 -59 20
-100 4 -41 12 -79 16 -84 5 -6 10 -47 12 -90 l3 -80 165 0 165 0 6 520 c3 286
7 595 8 688 1 166 1 167 24 167 41 0 52 16 57 82 l5 63 122 3 c122 3 122 3
129 -22 3 -13 5 -37 3 -52 -4 -54 0 -63 34 -72 l32 -8 2 -210 c2 -116 7 -218
13 -229 6 -12 11 -183 13 -445 l2 -425 110 0 110 0 3 385 2 385 58 18 c69 21
125 22 142 2 7 -8 18 -15 25 -15 29 0 37 -31 38 -143 2 -80 6 -119 16 -130 11
-14 36 -17 156 -17 125 0 144 2 158 18 10 10 17 29 17 43 0 35 13 50 51 58 32
7 93 0 105 -12 3 -3 8 -24 11 -47 4 -25 13 -46 24 -53 11 -7 19 -21 19 -32 1
-11 7 -31 15 -45 8 -14 14 -35 15 -46 0 -12 9 -33 20 -47 11 -14 23 -39 26
-57 4 -17 14 -36 24 -43 9 -7 20 -29 23 -51 3 -21 13 -46 21 -55 11 -13 15
-55 18 -191 2 -96 7 -183 12 -192 7 -15 4 -16 -25 -8 -28 8 -37 6 -57 -13 -22
-20 -23 -27 -17 -92 10 -112 5 -106 98 -105 45 0 136 -3 202 -7 109 -7 722 1
731 10 2 2 7 49 10 105 5 76 10 102 21 102 9 0 13 -17 13 -66 0 -37 5 -83 11
-104 l11 -37 127 -8 c167 -11 615 -12 768 -2 146 10 142 14 134 -122 l-6 -94
-2557 -1 c-1699 -1 -2558 2 -2559 9 0 6 0 68 1 138 l1 128 -41 41 c-37 38 -45
42 -91 42 -28 0 -53 -5 -57 -11 -4 -5 -18 -16 -31 -23 -20 -10 -25 -10 -33 4
-10 17 -33 21 -42 7 -3 -4 -7 -91 -8 -192 l-3 -184 30 0 30 0 -4 135 c-3 126
-2 137 18 162 29 36 93 54 132 38 37 -16 43 -49 36 -201 -3 -84 -2 -121 7
-128 12 -10 5157 -24 5209 -14 l27 6 0 248 c0 227 -2 249 -17 256 -10 5 -198
6 -418 3 -220 -3 -467 -3 -550 0 l-150 5 -3 255 c-3 271 -2 270 -53 270 -15 0
-29 7 -33 15 -3 9 -19 15 -41 15 -22 0 -38 6 -41 14 -3 8 -22 22 -42 32 -20 9
-52 28 -70 42 -28 21 -37 24 -52 14 -18 -11 -19 -7 -22 41 -3 47 -5 52 -28 55
-14 2 -29 9 -35 16 -19 24 -71 27 -98 6 -14 -11 -39 -20 -55 -20 -17 0 -34 -5
-38 -11 -3 -6 -6 -56 -5 -112 1 -66 -3 -105 -11 -114 -9 -11 -12 -85 -13 -272
l0 -256 -25 -3 c-14 -2 -30 -8 -37 -13 -7 -7 -14 -6 -18 1 -9 14 -78 13 -93
-2 -9 -9 -15 -9 -24 0 -7 7 -21 12 -33 12 -41 0 -44 13 -38 200 l6 178 -26 25
c-18 16 -27 35 -27 54 0 17 -9 40 -20 53 -11 13 -20 36 -20 51 0 19 -8 34 -24
44 -16 11 -25 28 -29 58 -3 23 -11 43 -16 45 -6 2 -11 11 -11 20 0 10 -9 34
-20 55 -11 20 -20 50 -20 66 0 20 -9 36 -27 51 -25 19 -37 21 -121 18 -105 -4
-122 -14 -122 -75 0 -41 -13 -45 -140 -41 l-95 3 -3 110 c-3 123 -7 131 -81
169 -41 20 -57 22 -142 18 -86 -4 -100 -7 -123 -29 l-27 -25 1 -368 c1 -203
-1 -374 -5 -380 -7 -11 -66 -13 -101 -4 -21 5 -21 8 -27 647 -7 638 -7 642
-28 660 -12 9 -30 17 -40 17 -20 0 -23 10 -20 76 4 69 -7 74 -180 74 -85 0
-159 -5 -170 -10 -16 -9 -19 -22 -19 -75 0 -62 -1 -65 -24 -65 -13 0 -28 -6
-34 -13 -12 -14 -18 -192 -30 -917 l-7 -455 -85 -1 c-143 -1 -138 -5 -143 79
-10 152 -56 337 -83 337 -8 0 -31 9 -51 20 -21 11 -46 20 -55 20 -17 0 -18 22
-18 343 0 188 -4 347 -8 352 -4 6 -29 21 -57 34 -27 13 -62 30 -77 38 -35 17
-328 19 -346 1 -9 -9 -12 -106 -12 -375 0 -327 -2 -364 -16 -370 -11 -4 -23 2
-34 17 -15 21 -22 22 -72 16 -43 -6 -57 -4 -68 8 -7 9 -25 16 -39 16 -41 0
-61 -50 -61 -155 0 -77 -2 -84 -21 -90 -14 -5 -25 -2 -30 6 -5 8 -9 71 -9 141
0 74 -4 129 -10 133 -5 3 -10 37 -10 74 0 47 -4 72 -14 80 -8 7 -18 26 -21 42
-4 16 -15 34 -26 39 -10 6 -26 26 -34 45 -7 19 -19 35 -24 35 -14 0 -58 70
-67 104 -7 31 -20 32 -53 7 -24 -18 -25 -18 -42 3 -24 28 -51 12 -61 -37 -9
-43 -74 -134 -101 -143 -10 -3 -20 -19 -24 -35 -3 -16 -12 -34 -19 -40 -10 -8
-14 -35 -14 -88 0 -48 -5 -82 -12 -89 -9 -9 -14 -73 -16 -227 -4 -201 -5 -215
-22 -215 -27 0 -33 30 -29 164 l4 120 -26 10 c-14 5 -38 6 -53 2 l-26 -6 0
-161 0 -160 -56 3 -55 3 1 806 c0 702 -2 810 -15 835 -8 16 -15 41 -15 56 0
29 -26 68 -46 68 -23 0 -44 -37 -44 -79 0 -28 -5 -44 -15 -47 -8 -4 -15 -16
-15 -28 0 -17 -11 -26 -42 -39 -24 -10 -56 -24 -71 -32 -16 -8 -44 -15 -63
-15 -22 0 -37 -6 -40 -15 -7 -17 -40 -20 -49 -5 -3 6 -17 10 -30 10 -15 0 -26
7 -30 20 -6 18 -15 20 -95 20 -86 0 -91 -1 -127 -32 -35 -32 -40 -33 -122 -33
l-86 0 -3 -522 -2 -522 -73 -3 -72 -3 -3 -42 -3 -43 -63 0 c-84 0 -91 -9 -83
-103 4 -39 2 -78 -2 -86 -11 -17 -188 -16 -209 1 -10 9 -13 46 -11 157 1 80
-2 160 -6 176 -9 37 -33 65 -54 65 -9 0 -25 7 -35 15 -11 8 -37 15 -57 15 -21
0 -41 5 -44 10 -10 17 -190 13 -205 -5 -10 -12 -16 -11 -43 8 -17 12 -44 37
-60 54 -55 62 -157 69 -217 14 -19 -17 -42 -33 -51 -36 -24 -8 -31 -45 -29
-165 2 -139 3 -133 -19 -127 -12 3 -27 -3 -37 -14 -17 -19 -49 -24 -78 -13
-14 5 -16 18 -10 80 9 94 -11 149 -57 158 -19 4 -29 12 -29 24 0 42 -87 95
-170 103 -67 8 -240 33 -298 45 -18 3 -38 2 -45 -4 -6 -5 -29 -12 -49 -16 -21
-4 -38 -11 -38 -16 0 -5 -8 -11 -19 -15 -10 -3 -27 -21 -37 -40 -10 -19 -27
-38 -37 -41 -29 -9 -37 -47 -37 -180 l0 -124 -47 -1 c-27 -1 -111 -1 -188 0
-110 2 -146 -1 -169 -13 -59 -33 -56 -59 -56 470 0 315 -4 492 -10 505 -9 16
-22 19 -72 19 -44 0 -67 5 -81 18 -17 15 -48 18 -246 22 l-226 5 -5 515 -5
515 -30 8 c-16 5 -38 14 -48 19 -19 9 -88 26 -147 35 -19 3 -42 11 -50 18 -8
8 -28 16 -45 20 -16 4 -44 13 -61 21 -44 19 -160 25 -212 10z m9258 -2093 c3
-3 6 -32 7 -65 2 -73 11 -85 43 -58 13 11 29 20 36 20 7 0 38 -20 68 -45 30
-24 68 -47 83 -51 15 -4 37 -13 48 -20 11 -8 27 -14 36 -14 15 0 17 -25 21
-242 l4 -243 -25 -22 c-31 -26 -44 -28 -65 -8 -19 19 -45 19 -66 0 -16 -14
-21 -14 -53 1 -32 16 -38 16 -59 2 -21 -14 -27 -14 -53 -1 -24 13 -35 14 -63
3 -26 -9 -40 -9 -63 0 -24 10 -33 10 -54 -4 -38 -25 -48 -12 -41 53 4 31 8
143 11 249 2 106 8 198 12 205 4 6 6 56 5 109 -4 116 4 135 56 141 38 4 103
-2 112 -10z m-560 -814 l0 -50 -32 3 c-37 3 -46 26 -29 71 8 19 18 27 36 27
23 0 25 -3 25 -51z m118 30 c4 -22 -25 -50 -43 -43 -9 4 -15 19 -15 36 0 26 3
29 27 26 16 -2 29 -10 31 -19z m692 -9 c0 -33 -19 -40 -40 -15 -16 20 -5 45
20 45 16 0 20 -7 20 -30z m118 -14 c4 -45 -8 -61 -37 -51 -16 5 -21 15 -21 39
0 65 53 77 58 12z m155 13 c8 -29 -3 -58 -24 -64 -29 -9 -39 2 -39 45 0 29 5
40 18 42 25 6 39 -1 45 -23z m113 16 c8 -20 -13 -45 -37 -45 -13 0 -19 7 -19
23 0 13 3 27 7 30 12 13 44 7 49 -8z m694 -15 c0 -23 -5 -30 -19 -30 -20 0
-37 32 -26 50 3 5 15 10 26 10 14 0 19 -7 19 -30z m-6510 -46 c0 -12 4 -25 9
-29 5 -3 13 -20 17 -37 3 -18 13 -43 21 -55 8 -12 12 -27 8 -33 -7 -12 -161
-14 -169 -2 -3 5 8 41 24 81 17 40 30 77 30 81 0 5 5 21 11 37 l11 28 19 -24
c10 -13 19 -34 19 -47z m6630 52 c0 -8 2 -20 5 -28 9 -23 -19 -51 -43 -44 -18
6 -22 15 -22 47 0 37 2 39 30 39 19 0 30 -5 30 -14z m-1420 -36 c103 -13 242
-58 238 -79 -3 -11 -71 -14 -396 -15 -367 -1 -392 0 -392 17 0 10 8 17 18 17
10 0 26 6 37 13 50 34 245 67 355 59 41 -2 104 -8 140 -12z m1061 5 c126 -19
264 -64 264 -85 0 -10 -89 -13 -387 -12 -213 0 -391 3 -397 7 -16 10 -13 25 5
25 9 0 30 6 47 13 82 35 216 62 328 65 25 1 88 -5 140 -13z"/>
<path d="M7067 1233 c-4 -3 -7 -21 -7 -39 0 -35 22 -50 54 -38 22 8 31 50 16
69 -13 15 -51 20 -63 8z"/>
<path d="M6897 1193 c-4 -3 -7 -26 -7 -50 0 -32 -5 -46 -20 -55 -26 -17 -25
-37 3 -47 22 -8 22 -11 19 -144 -4 -127 -3 -138 18 -167 19 -27 27 -31 63 -28
55 4 64 33 15 46 l-33 8 0 140 0 139 30 5 c27 5 31 10 27 39 -1 5 -14 11 -29
13 -26 3 -28 7 -31 56 -3 47 -5 52 -26 52 -12 0 -26 -3 -29 -7z"/>
<path d="M9416 1171 c-13 -15 -16 -36 -14 -116 l3 -97 60 7 c33 4 78 6 100 4
76 -7 683 -4 691 4 4 4 2 13 -5 20 -9 9 -98 12 -364 12 -327 0 -352 1 -355 18
-3 12 3 17 20 17 13 0 32 6 43 13 31 21 141 46 245 55 151 14 372 -14 436 -55
12 -7 28 -11 37 -7 12 4 16 -3 19 -33 3 -37 4 -38 47 -41 24 -2 47 0 52 5 5 5
14 43 20 85 10 69 9 79 -7 102 -21 28 -55 34 -74 11 -14 -17 -60 -21 -60 -5 0
14 -43 13 -57 -1 -8 -8 -21 -8 -47 1 -21 7 -53 9 -75 5 -24 -4 -48 -2 -61 5
-17 9 -29 9 -51 0 -23 -10 -35 -10 -59 0 -24 10 -36 10 -60 0 -22 -9 -37 -9
-60 -1 -22 7 -38 7 -55 -1 -17 -7 -32 -7 -55 0 -25 9 -38 8 -65 -5 -32 -15
-36 -15 -53 0 -23 21 -36 21 -68 1 -23 -15 -26 -15 -43 0 -24 21 -64 20 -85
-3z m189 -21 c9 -14 -13 -50 -30 -50 -15 0 -21 40 -8 53 10 10 31 8 38 -3z
m705 -15 c0 -26 -25 -44 -40 -29 -4 5 -11 19 -15 32 -6 19 -3 22 24 22 26 0
31 -4 31 -25z m-816 -1 c12 -32 6 -63 -14 -69 -27 -8 -40 1 -40 30 0 36 10 55
30 55 10 0 21 -7 24 -16z m936 -5 c6 -11 10 -30 8 -42 -2 -18 -10 -22 -38 -22
-33 0 -35 2 -32 30 1 17 5 36 7 43 7 19 43 14 55 -9z"/>
<path d="M6188 1103 c-16 -4 -18 -20 -18 -148 0 -157 10 -198 56 -234 33 -26
109 -28 143 -4 19 13 28 14 42 5 10 -7 28 -12 39 -12 19 0 20 6 20 194 0 202
-1 209 -42 198 -16 -4 -18 -20 -18 -153 l0 -149 -40 -25 c-48 -30 -100 -33
-124 -6 -15 17 -17 39 -15 168 1 82 -1 155 -5 161 -7 12 -9 13 -38 5z"/>
<path d="M6627 1103 c-42 -7 -97 -67 -97 -106 1 -55 44 -90 150 -122 68 -21
80 -30 80 -65 0 -44 -29 -62 -96 -58 -58 3 -59 4 -80 43 -29 56 -54 59 -54 7
0 -33 6 -45 35 -71 33 -28 42 -31 104 -31 55 0 74 4 97 22 41 31 44 37 44 89
0 67 -26 90 -142 125 -67 19 -81 32 -76 71 2 21 10 29 36 37 39 11 112 -8 112
-29 0 -17 27 -45 45 -45 22 0 28 37 9 68 -27 47 -100 75 -167 65z"/>
<path d="M7070 900 c0 -191 1 -200 19 -200 11 0 23 5 27 11 4 7 7 92 7 189 0
97 -3 182 -7 189 -4 6 -16 11 -27 11 -18 0 -19 -9 -19 -200z"/>
</g>
</svg>
