<?xml version="1.0" standalone="no"?>
<!DOCTYPE svg PUBLIC "-//W3C//DTD SVG 20010904//EN"
 "http://www.w3.org/TR/2001/REC-SVG-20010904/DTD/svg10.dtd">
<svg version="1.0" xmlns="http://www.w3.org/2000/svg"
 width="1015.000000pt" height="965.000000pt" viewBox="0 0 1015.000000 965.000000"
 preserveAspectRatio="xMidYMid meet">
<metadata>
Created by potrace 1.10, written by Peter Selinger 2001-2011
</metadata>
<g transform="translate(0.000000,965.000000) scale(0.100000,-0.100000)"
fill="#783f04" stroke="none">
<path d="M2367 9620 c-14 -11 -36 -20 -49 -20 -37 -1 -110 -38 -152 -78 -21
-20 -40 -32 -42 -27 -20 50 -33 61 -94 83 -95 33 -208 15 -224 -35 -3 -10 -44
-38 -92 -62 -47 -24 -119 -67 -159 -96 l-74 -53 -68 33 c-60 29 -127 49 -240
70 -19 4 -35 14 -38 25 -3 10 -17 30 -30 44 -30 33 -77 34 -147 4 -50 -21 -68
-45 -68 -91 0 -12 -12 -33 -27 -47 -14 -14 -38 -50 -52 -80 -24 -51 -26 -65
-26 -195 0 -138 1 -141 37 -225 39 -93 51 -146 102 -450 19 -113 39 -218 45
-233 6 -16 11 -74 11 -130 0 -88 5 -114 31 -187 40 -114 46 -190 24 -346 -22
-161 -17 -264 25 -449 54 -235 44 -371 -39 -565 -42 -98 -88 -168 -147 -225
-47 -46 -411 -292 -527 -356 -112 -62 -155 -102 -188 -175 -22 -49 -34 -63
-56 -69 -62 -15 -82 -66 -42 -106 57 -57 172 -88 440 -118 356 -40 492 -37
711 15 174 41 220 81 279 242 18 52 41 98 51 103 15 8 120 -6 231 -30 33 -8
54 -3 160 38 67 27 146 56 175 65 29 10 69 33 89 52 l36 35 146 -53 c162 -59
182 -61 359 -40 56 7 107 10 112 7 5 -3 22 -29 39 -59 45 -78 107 -144 162
-172 68 -34 212 -71 332 -85 131 -15 508 -6 642 15 244 39 456 107 463 149 8
41 -7 65 -53 83 -36 13 -45 21 -45 41 0 64 -72 148 -167 196 -26 14 -133 54
-236 91 -104 36 -225 85 -269 108 -195 101 -419 393 -463 603 -9 43 -15 127
-15 216 0 153 -16 276 -50 388 -25 80 -25 142 0 256 12 54 24 161 30 270 10
201 17 253 62 505 23 133 37 187 58 225 63 112 99 323 86 499 -10 126 -22 176
-61 241 -25 41 -33 64 -29 83 11 52 -65 91 -179 92 -76 0 -117 -16 -134 -53
-10 -22 -18 -25 -100 -29 -63 -4 -107 -13 -155 -32 l-66 -27 -44 22 c-24 11
-51 34 -60 50 -10 16 -25 29 -35 29 -10 1 -43 9 -73 20 -70 25 -91 25 -123 0z
m878 -30 c48 -18 23 -35 -47 -33 -69 2 -118 16 -118 33 0 13 130 13 165 0z
m-770 -30 c12 -24 13 -38 5 -77 -7 -29 -9 -90 -4 -158 6 -97 4 -113 -10 -128
-45 -45 -78 2 -84 119 -7 129 6 231 31 254 29 27 44 25 62 -10z m-470 -16 c48
-22 69 -72 73 -173 6 -123 -22 -201 -73 -201 -43 0 -57 41 -30 90 8 16 10 29
4 36 -5 7 -14 47 -19 90 -10 89 -18 115 -37 127 -7 4 -13 17 -13 27 0 25 47
27 95 4z m-978 -61 c-4 -3 -10 -3 -14 0 -3 4 0 7 7 7 7 0 10 -3 7 -7z m1655
-29 c63 -32 224 -147 271 -193 81 -77 202 -260 184 -277 -14 -15 -38 9 -98 98
-76 111 -195 233 -287 292 -62 40 -125 96 -108 96 4 0 21 -7 38 -16z m-925
-21 c-9 -9 -20 -13 -24 -9 -4 4 1 14 11 22 25 18 35 8 13 -13z m8 -103 c0 -8
-10 -16 -22 -18 -22 -3 -32 16 -16 32 12 11 38 2 38 -14z m-55 -49 c0 -11 -39
-25 -47 -18 -3 3 -2 10 2 16 8 13 45 15 45 2z m-250 -48 c0 -5 -29 -44 -65
-88 -35 -44 -81 -108 -101 -143 -40 -67 -54 -83 -54 -57 0 43 87 181 157 249
46 44 63 55 63 39z m1395 -83 c99 -96 127 -151 126 -241 0 -37 -8 -87 -17
-109 -9 -22 -14 -47 -10 -55 3 -10 -1 -15 -14 -15 -22 0 -23 5 -45 125 -18
102 -74 259 -110 313 -53 78 -21 70 70 -18z m-1209 3 c-14 -26 -34 -61 -44
-76 -19 -29 -63 -152 -83 -234 -7 -33 -15 -43 -29 -43 -16 0 -20 7 -20 30 0
27 -2 30 -19 20 -11 -5 -21 -22 -23 -37 -2 -14 -9 -28 -15 -31 -18 -5 -33 41
-33 101 0 68 38 134 120 210 56 53 159 121 168 113 2 -2 -8 -26 -22 -53z m832
-36 c4 -20 -25 -34 -40 -19 -15 15 -1 44 19 40 10 -2 19 -11 21 -21z m257
-113 c8 -4 29 -26 46 -51 24 -34 35 -43 51 -37 16 5 19 2 16 -17 -5 -39 -37
-35 -77 8 -27 30 -43 39 -66 39 -25 -1 -32 -7 -41 -36 -14 -43 -30 -49 -37
-14 -6 36 10 91 31 103 20 12 53 14 77 5z m-1024 -70 c38 -19 73 -91 63 -129
l-6 -26 -23 21 c-12 11 -27 39 -34 60 -10 35 -16 40 -41 40 -36 0 -57 -20 -87
-85 -21 -45 -23 -47 -17 -15 11 58 35 109 62 130 30 24 44 25 83 4z m818 -91
c47 -57 48 -83 10 -225 -8 -31 -14 -38 -34 -38 -33 0 -41 36 -26 116 11 55 11
69 -4 108 -14 37 -15 49 -5 61 18 22 25 19 59 -22z m-1240 -78 c-19 -31 -44
-73 -56 -93 -13 -20 -30 -59 -39 -87 -9 -27 -21 -55 -26 -62 -14 -18 -38 -4
-38 22 0 74 154 315 183 286 6 -6 -2 -29 -24 -66z m429 -19 c2 -10 -3 -16 -16
-16 -11 0 -29 -12 -40 -27 -16 -21 -23 -25 -32 -16 -16 15 5 80 28 86 26 5 57
-8 60 -27z m1368 -12 c32 -15 74 -74 74 -104 0 -20 -30 -10 -66 23 -32 27 -45
32 -88 32 -48 0 -56 3 -56 24 0 11 60 40 83 41 11 0 35 -7 53 -16z m-1149
-116 c20 -76 37 -356 29 -471 -6 -71 -13 -103 -26 -120 -34 -41 -44 -11 -48
153 -3 111 -8 153 -18 161 -21 17 -17 56 7 80 21 21 22 28 16 139 -3 65 -3
121 0 124 12 11 25 -11 40 -66z m838 16 c-8 -27 -39 -93 -70 -146 -72 -125
-97 -220 -93 -342 2 -59 -1 -91 -8 -93 -26 -9 -33 217 -9 307 9 34 41 95 88
165 40 60 79 123 85 139 19 44 24 25 7 -30z m266 -80 c56 -28 87 -143 57 -209
-23 -50 -47 -18 -29 38 7 19 9 40 6 48 -11 25 -109 99 -131 99 -29 0 -80 -43
-88 -75 -4 -14 -11 -25 -17 -25 -14 0 -3 46 17 78 18 28 87 61 127 62 15 0 42
-7 58 -16z m-506 -64 c3 -5 3 -21 -1 -35 -4 -18 -13 -25 -30 -25 -20 0 -24 5
-24 28 0 16 3 32 7 35 10 10 41 8 48 -3z m-1076 -27 c41 -30 71 -99 71 -164 0
-73 -16 -119 -41 -119 -19 0 -20 5 -13 83 8 97 -6 135 -59 167 -43 26 -61 25
-90 -6 -38 -40 -42 -11 -5 31 29 34 35 37 72 32 21 -3 51 -14 65 -24z m1337
-78 c6 -77 25 -141 61 -202 14 -24 20 -43 15 -43 -19 0 -80 84 -91 125 -17 61
-13 210 5 192 2 -2 7 -34 10 -72z m-1434 -12 c37 -40 51 -71 43 -100 -9 -36
-46 -28 -57 13 -4 17 -17 39 -28 49 -29 26 -26 65 5 65 6 0 23 -12 37 -27z
m-122 -61 c6 -68 32 -113 71 -122 31 -7 36 -35 10 -50 -25 -13 -64 -4 -84 18
-19 22 -47 108 -47 143 0 36 20 81 34 76 6 -2 13 -31 16 -65z m1930 -31 c-21
-39 -60 -64 -108 -69 -31 -2 -52 0 -56 7 -5 7 2 11 16 11 26 0 104 45 127 74
11 13 16 14 22 5 4 -7 4 -20 -1 -28z m-365 -129 c49 -54 137 -107 166 -99 25
7 25 -10 0 -18 -49 -15 -120 21 -193 98 -54 56 -58 63 -58 106 l1 46 21 -43
c11 -23 40 -64 63 -90z m-1125 43 c0 -69 -70 -156 -190 -235 -88 -57 -121 -68
-139 -46 -22 26 -6 43 78 85 47 24 102 62 134 93 51 50 65 76 82 153 l7 30 13
-25 c8 -14 14 -39 15 -55z m-243 -92 c-22 -40 -111 -131 -142 -143 -42 -16
-55 -12 -55 14 0 20 10 29 53 49 58 27 85 50 125 112 24 35 27 37 30 18 2 -12
-3 -34 -11 -50z m1471 -102 c24 -21 29 -41 9 -41 -16 0 -57 37 -57 50 0 16 23
11 48 -9z m-1153 -102 c-22 -66 -83 -142 -142 -175 -27 -15 -61 -38 -76 -51
-16 -13 -36 -23 -44 -23 -9 0 -37 -20 -63 -44 -56 -53 -86 -70 -95 -56 -18 28
143 176 251 231 34 17 76 45 92 62 30 31 80 126 84 157 0 8 3 0 5 -18 3 -18
-3 -55 -12 -83z m1123 -25 c38 -18 78 -29 120 -32 52 -4 62 -7 62 -23 0 -27
-36 -42 -87 -35 -56 7 -157 56 -200 95 -34 32 -93 109 -93 122 0 4 32 -16 71
-45 39 -30 96 -66 127 -82z m-1198 53 c0 -38 -110 -97 -180 -96 -56 1 -115 21
-115 40 0 8 7 12 15 11 59 -14 193 10 235 42 25 19 45 20 45 3z m820 -7 c12
-23 6 -40 -14 -40 -15 0 -25 27 -19 48 7 18 21 15 33 -8z m-1238 -56 c-5 -76
-68 -192 -92 -168 -8 8 0 34 30 94 22 46 40 95 40 108 0 15 5 22 13 19 8 -3
11 -20 9 -53z m686 -97 c28 -33 96 -427 86 -494 -6 -45 -28 -73 -44 -57 -11
11 -49 236 -60 364 -5 52 -14 111 -20 130 -16 56 8 93 38 57z m678 -59 c23
-24 53 -59 67 -78 26 -36 87 -174 87 -198 0 -21 29 -26 49 -8 17 15 20 15 34
2 8 -9 18 -34 22 -56 4 -22 11 -42 16 -46 27 -16 -13 -145 -62 -196 -39 -41
-63 -47 -91 -21 -25 22 -24 79 2 93 10 6 25 29 31 53 7 23 20 49 30 59 26 23
16 81 -12 73 -30 -10 -73 42 -98 116 -12 36 -37 90 -56 120 -84 134 -90 162
-19 87z m174 32 c0 -5 -4 -10 -10 -10 -5 0 -10 5 -10 10 0 6 5 10 10 10 6 0
10 -4 10 -10z m-960 -4 c0 -2 -11 -28 -24 -57 -13 -30 -27 -80 -30 -112 -10
-76 -30 -71 -34 9 l-3 59 -29 -48 c-17 -25 -37 -74 -46 -106 -20 -70 -39 -71
-29 -2 18 129 62 212 128 242 39 17 67 24 67 15z m-220 -88 c0 -21 -46 -112
-63 -127 -10 -7 -17 -20 -17 -27 0 -8 -11 -16 -25 -20 -17 -4 -36 -27 -65 -80
-22 -41 -47 -74 -55 -74 -18 0 -18 7 -4 51 15 44 82 135 130 177 21 18 48 51
60 72 23 40 39 51 39 28z m926 -23 c22 -34 32 -144 13 -155 -23 -15 -39 9 -33
49 3 21 0 54 -9 78 -8 23 -12 45 -9 48 11 10 22 5 38 -20z m314 -29 c16 -20 9
-60 -12 -64 -25 -5 -46 42 -28 63 16 19 24 19 40 1z m-1304 -187 c-8 -52 -22
-79 -41 -79 -22 0 -18 36 7 81 28 51 42 50 34 -2z m1048 5 c21 -8 21 -24 0
-24 -8 0 -29 -13 -45 -29 -28 -28 -29 -33 -29 -125 0 -52 4 -105 9 -119 12
-32 -2 -56 -22 -38 -42 34 -47 212 -9 288 26 50 53 63 96 47z m-752 -55 c31
-16 58 -86 58 -151 0 -33 -5 -60 -12 -64 -6 -4 -14 -2 -16 4 -2 7 -12 12 -23
12 -11 0 -37 17 -58 38 -55 53 -67 62 -93 62 -28 0 -86 -34 -94 -55 -7 -18
-34 -20 -34 -3 0 19 50 77 80 93 59 30 125 13 174 -45 29 -35 32 -30 15 21
-16 47 -39 71 -61 63 -21 -6 -24 6 -6 24 15 15 43 15 70 1z m846 -102 c8 -9 6
-21 -8 -42 -36 -55 -19 -159 29 -185 11 -5 40 -10 65 -10 53 0 62 -19 20 -39
-22 -10 -33 -8 -70 10 -77 37 -107 99 -86 180 8 31 8 39 -1 30 -6 -6 -19 -11
-28 -11 -15 0 -16 4 -8 29 15 41 66 64 87 38z m-951 -57 c40 -24 58 -52 74
-112 9 -33 10 -56 3 -75 -13 -39 -28 -32 -36 17 -16 93 -70 159 -130 160 l-23
1 25 14 c34 19 49 18 87 -5z m757 -188 c24 -45 58 -90 89 -118 35 -32 47 -48
39 -56 -16 -16 -73 7 -110 45 -36 38 -75 118 -97 202 -18 71 -18 76 -4 112 11
27 12 25 28 -42 9 -38 34 -103 55 -143z m546 158 c0 -27 -22 -60 -40 -60 -24
0 -25 10 -3 48 15 26 43 34 43 12z m-1351 -47 c42 -35 46 -128 6 -128 -14 0
-21 8 -23 25 -7 63 -12 72 -37 66 -29 -7 -40 7 -25 34 13 25 50 26 79 3z m202
-188 c-36 -78 -110 -160 -158 -176 -50 -16 -49 -7 3 31 56 40 124 130 155 207
21 50 24 54 27 29 2 -15 -10 -55 -27 -91z m1006 69 c18 -61 15 -163 -6 -210
-23 -50 -90 -108 -147 -128 -42 -14 -44 -14 -44 5 0 12 12 27 31 37 97 52 134
124 133 260 0 89 12 104 33 36z m193 -24 c0 -27 -27 -37 -47 -17 -20 19 -9 37
23 37 17 0 24 -5 24 -20z m-1614 -52 c0 -53 6 -75 37 -141 40 -82 89 -129 148
-142 16 -4 29 -11 29 -17 0 -32 -140 47 -184 105 -74 97 -100 257 -42 257 9 0
12 -20 12 -62z m169 2 c11 0 37 9 58 20 21 11 42 18 47 15 13 -8 -15 -61 -35
-69 -50 -19 -142 11 -165 54 -16 30 -12 30 33 5 23 -14 51 -25 62 -25z m303 8
c-2 -24 -7 -42 -13 -41 -13 3 -18 29 -11 59 11 40 27 27 24 -18z m1176 -39
c25 -55 30 -133 12 -148 -22 -19 -123 -26 -141 -11 -19 16 -19 45 -1 62 9 8
12 26 8 51 -6 49 26 87 73 87 27 0 34 -6 49 -41z m-1754 -152 c61 -22 110 -65
110 -95 0 -22 76 -96 137 -135 23 -15 44 -30 47 -36 12 -19 -7 -39 -52 -56
-26 -9 -59 -31 -75 -48 -15 -18 -42 -38 -60 -47 -26 -12 -33 -22 -35 -50 -2
-19 -7 -39 -11 -43 -16 -17 -145 36 -201 82 -30 25 -58 51 -62 56 -12 16 -9
60 6 96 13 30 12 37 -5 71 -21 42 -15 72 22 109 14 14 22 35 23 63 2 60 11 69
60 61 22 -4 66 -17 96 -28z m1300 -77 c0 -5 -11 -10 -25 -10 -14 0 -25 5 -25
10 0 6 11 10 25 10 14 0 25 -4 25 -10z m-740 -20 c0 -29 -109 -60 -164 -46
-36 9 -32 26 7 27 17 0 57 7 87 14 30 7 58 13 63 14 4 0 7 -3 7 -9z m1169 -30
c29 -15 39 -56 45 -183 5 -93 3 -119 -7 -123 -7 -2 -39 9 -70 25 -32 17 -74
33 -95 37 -20 3 -47 15 -59 26 -16 15 -29 19 -50 14 -76 -19 -93 -19 -93 1 0
35 54 96 131 149 41 28 81 53 89 57 24 9 90 8 109 -3z m181 -350 c10 0 32 -12
49 -26 29 -24 36 -25 94 -19 34 4 70 11 80 17 24 13 156 -7 175 -26 14 -14 11
-19 -24 -51 -85 -79 -247 -138 -384 -139 -85 -1 -85 -1 -88 26 -2 14 7 46 19
69 16 33 20 53 16 90 -6 49 6 74 31 64 8 -3 22 -5 32 -5z m-1015 -21 c-8 -12
-35 -12 -35 0 0 11 22 20 33 14 4 -2 5 -9 2 -14z m-135 -3 c0 -6 -219 -92
-255 -100 -49 -12 -26 0 85 44 132 53 170 66 170 56z m-769 -78 c26 -29 48
-56 49 -60 0 -4 -7 -14 -16 -22 -14 -14 -21 -13 -74 14 -33 17 -71 30 -84 30
-34 0 -92 -53 -128 -117 -16 -29 -34 -56 -39 -59 -5 -3 -9 -23 -9 -44 0 -51
-12 -54 -141 -35 -57 9 -116 13 -132 9 -41 -9 -64 16 -64 69 -1 23 4 49 10 58
24 32 81 52 162 57 92 6 112 15 176 84 39 42 54 52 105 63 99 22 128 15 185
-47z m863 24 c-20 -32 -70 -52 -232 -92 -90 -22 -175 -45 -190 -50 l-27 -10
23 19 c12 11 61 33 110 49 48 17 136 51 197 76 110 45 143 48 119 8z m259 -46
c12 -17 14 -36 9 -70 -4 -26 -11 -47 -17 -48 -25 -2 -45 85 -29 126 9 22 19
20 37 -8z m1482 -34 c80 -25 211 -77 275 -111 22 -11 24 -46 4 -65 -12 -13
-26 -15 -59 -10 -27 4 -45 2 -49 -5 -10 -16 -52 -13 -66 4 -7 8 -10 24 -7 35
6 24 8 24 -39 4 -32 -13 -60 -15 -161 -9 -133 8 -150 15 -138 62 16 65 77 112
145 113 19 0 62 -8 95 -18z m-1450 -152 c3 -6 -1 -13 -10 -16 -19 -8 -30 0
-20 15 8 14 22 14 30 1z m446 -79 c28 -26 33 -51 10 -51 -15 0 -61 49 -61 65
0 22 15 18 51 -14z m-2355 -26 c53 -23 94 -65 94 -96 0 -40 -42 -69 -125 -85
-100 -19 -309 -21 -330 -4 -38 32 8 86 136 161 111 64 129 66 225 24z m3702
-77 c-7 -20 -48 -23 -48 -4 0 11 9 16 26 16 16 0 24 -5 22 -12z m-80 -13 c-5
-25 -160 -72 -298 -90 -69 -9 -149 -21 -179 -26 -61 -10 -194 -12 -228 -3 -26
7 -30 29 -7 38 9 3 57 6 109 6 99 0 221 18 350 51 71 19 167 34 233 38 16 1
22 -4 20 -14z m-3943 -186 c321 -51 540 -66 718 -51 90 8 114 2 77 -18 -32
-17 -307 -32 -333 -18 -12 6 -88 12 -186 13 -106 2 -193 9 -241 19 -118 26
-140 35 -140 58 0 17 4 19 23 13 12 -4 49 -11 82 -16z m915 -38 c0 -12 -29
-23 -41 -15 -18 10 -9 24 16 24 14 0 25 -4 25 -9z"/>
</g>
</svg>
